<?xml version="1.0" encoding="UTF-8"?>
<svg id="Capa_1" xmlns="http://www.w3.org/2000/svg" version="1.1" viewBox="0 0 85 85">
  <!-- Generator: Adobe Illustrator 29.0.0, SVG Export Plug-In . SVG Version: 2.1.0 Build 186)  -->
  <defs>
    <style>
      .st0 {
        fill: #fff;
      }
    </style>
  </defs>
  <path class="st0" d="M57.1,56.1h0c-.2.6-.4,1.2-.6,1.9l-.8-.8,1.5-1.5c0,0,0,.2,0,.3h0Z"/>
  <path class="st0" d="M30.7,57.2l-.8.8c-.2-.7-.4-1.3-.6-1.9h0c0,0,0-.2-.1-.3l1.5,1.5h0Z"/>
  <path class="st0" d="M77.3,6.6H7.7c-.6,0-1,.4-1,1v48.9c0,.5.4,1,1,1h20c.2.8.5,1.7.8,2.7.2.8.4,1.6.6,2.6.2,1.2.5,2.4.6,3.6.2,1.6.4,3.2.5,4.9,0,.6,0,1.2.1,1.8,0,1.3.1,2.8.1,4.3s.5,1,1,1,1-.4,1-1v-3.6l2.1,2.1-.8.8c-.4.4-.4,1,0,1.4.2.2.5.3.7.3s.5,0,.7-.3l.8-.8.8.8c.2.2.5.3.7.3s.5,0,.7-.3c.4-.4.4-1,0-1.4l-.8-.8,2.3-2.3,2.3,2.3-.8.8c-.4.4-.4,1,0,1.4.2.2.5.3.7.3s.5,0,.7-.3l.8-.8.8.8c.2.2.5.3.7.3s.5,0,.7-.3c.4-.4.4-1,0-1.4l-.8-.8,2.3-2.3,2.3,2.3-.8.8c-.4.4-.4,1,0,1.4.2.2.5.3.7.3s.5,0,.7-.3l.8-.8.8.8c.2.2.5.3.7.3s.5,0,.7-.3c.4-.4.4-1,0-1.4l-.8-.8,2.1-2.1v3.6c0,1.3.5,1,1,1s1-.4,1-1c0-1.5,0-2.9,0-4.3,0-.6,0-1.2,0-1.8,0-1.7.3-3.3.5-4.9.2-1.2.3-2.3.6-3.5.2-.9.4-1.8.6-2.5.2-1,.5-1.9.8-2.7h18.5c.6,0,1-.5,1-1V7.6c0-.6-.4-1-1-1h0ZM32.2,70.6c0-1.4-.3-2.8-.4-4.1l.4-.4,2.3,2.3-2.3,2.3h0ZM30.6,60.2l1.6-1.6,2.3,2.2-2.3,2.3-1.2-1.1c-.1-.6-.3-1.2-.4-1.8h0ZM33.6,64.6l2.3-2.3,2.3,2.3-2.3,2.3-2.3-2.3ZM37.3,60.9l2.3-2.3,2.3,2.3-2.3,2.3-2.3-2.3ZM43.3,62.3l2.3,2.3-2.3,2.3-2.3-2.3s2.3-2.3,2.3-2.3ZM44.7,60.9l2.3-2.3,2.3,2.3-2.3,2.3-2.3-2.3ZM50.7,62.3l2.3,2.3-2.3,2.3-2.3-2.3s2.3-2.3,2.3-2.3ZM54.4,66.1l.4.4c-.2,1.4-.3,2.7-.4,4.1l-2.3-2.3,2.3-2.3h0ZM55.6,62l-1.2,1.2-2.3-2.3,2.3-2.3,1.6,1.6c0,.6-.3,1.2-.4,1.8h0ZM54.4,55.8l-2-2h4.1l-2,2h0ZM53,57.2l-2.3,2.3-2.3-2.3,2.3-2.3,2.3,2.3ZM47,55.8l-2-2h4.1l-2,2h0ZM45.5,57.2l-2.3,2.3-2.3-2.3,2.3-2.3,2.3,2.3ZM39.6,55.8l-2-2h4.1l-2,2h0ZM38.1,57.2l-2.3,2.3-2.3-2.3,2.3-2.3,2.3,2.3ZM32.2,55.8l-2-2h4.1l-2,2h0ZM35.8,74.3l-2.3-2.3,2.3-2.3,2.3,2.3-2.3,2.3ZM39.6,70.6l-2.3-2.3,2.3-2.3,2.3,2.3-2.3,2.3ZM43.3,74.3l-2.3-2.3,2.3-2.3,2.3,2.3-2.3,2.3ZM44.7,68.3l2.3-2.3,2.3,2.3-2.3,2.3-2.3-2.3ZM48.4,72l2.3-2.3,2.3,2.3-2.3,2.3-2.3-2.3ZM57.1,56.1h0c-.2.6-.4,1.2-.6,1.9l-.8-.8,1.5-1.5c0,0,0,.2,0,.3h0ZM26.5,51.8v-3.9h33.5v3.9H26.5ZM64,20.7H22.5c-.5,0-1,.5-1,1v26.7c0,.5.5,1,1,1h2v1h-11.3V13.8h58.7v36.5h-9.8v-1h2c.6,0,1-.5,1-1v-26.7c0-.5-.4-1-1-1h-.1ZM23.5,47.3v-24.7h39.5v24.7h-1v-.5c0-.5-.5-1-1-1h-5.4c.7-1.3,1.3-2.6,1.6-4.1.2-.7.2-1.4.3-2.1.2-2.8-.4-5.5-1.8-7.9-.6-1.1-1.4-2.1-2.3-3h0c-1-1-2-1.9-3.2-2.5-3-1.7-6.6-2.2-10-1.5h-.3c-2.5.6-4.8,1.9-6.6,3.6h-.2c-1.9,2-3.2,4.3-3.8,6.9h0c-.1.5-.2,1-.3,1.5-.3,2.6,0,5.3,1.2,7.7l.6,1.2h-5.4c-.5,0-1,.5-1,1v.5h-1l.2.2ZM32.4,40.6c-.3,1.6-.2,3.8-.2,3.8,0,0-.2-.2-.3-.6-.9-2.1-1.3-4.4-1-6.7,0-.3.1-.6.1-.8,1-.4,1.8-.4,2.6,0,0,0-.8,1.9-1.2,4.3ZM31.9,34c.5-1.2,1.2-2.3,2-3.3l2.2,2.2c-.5.5-.9,1.1-1.3,1.7-.9-.5-1.9-.7-2.9-.6ZM39.2,30.2c-.6.4-1.2.8-1.7,1.3l-2.2-2.2c1-.8,2.1-1.5,3.3-2,0,1,0,2,.6,2.9ZM35.2,37.9c1.3,1.8,1.8,3.9,2.2,5.9.2.7.3,1.4.5,2.1h-3.5c-.9-3.1.3-6.8.8-8ZM36.3,36c.4-.6.8-1.1,1.2-1.6l11.5,11.5h-9c-.2-.8-.4-1.6-.6-2.5-.5-2.4-1.1-5.1-3.1-7.4ZM38.9,32.9c.5-.4,1-.8,1.6-1.2,2.3,2,5,2.6,7.4,3.1s4.4.9,5.8,2.5c.7.8,1.3,1.6,1.8,2.4,0,.5,0,1-.2,1.5-.4,1.7-1,3.2-2,4.5h-1.5l-12.9-12.9h0ZM44.5,27.9c-1.2.3-2.5.7-3.6,1.3-.5-.8-.5-1.6,0-2.6,2.6-.5,5.3-.2,7.7,1-1.4,0-2.7,0-4.1.3h0ZM52.3,30.3c.7.8,1.3,1.6,1.8,2.4.6,1.1,1,2.2,1.3,3.4h0c-1.9-2.1-4.5-2.7-6.9-3.2-2-.4-4.1-.9-5.9-2.2.8-.4,1.6-.6,2.5-.8,2.4-.5,5-.4,7.3.4h0ZM76.3,55.5h-16.8c.3-.8.5-1.3.7-1.7h.9c.5,0,1-.5,1-1v-.5h10.9c.6,0,1-.5,1-1V12.8c0-.6-.4-1-1-1H12.1c-.6,0-1,.4-1,1v38.5c0,.5.4,1,1,1h12.3v.5c0,.5.5,1,1,1h.9c.2.4.4.9.7,1.7H8.7V8.6h67.6v46.9h0Z"/>
</svg>