<?xml version="1.0" encoding="UTF-8"?>
<svg id="Capa_1" data-name="Capa 1" xmlns="http://www.w3.org/2000/svg" viewBox="0 0 85.04 85.04">
  <defs>
    <style>
      .cls-1 {
        fill: #fff;
      }

      .cls-2 {
        fill: #6baf58;
      }

      .cls-3 {
        fill: #c8e2bf;
      }

      .cls-4 {
        fill: #154c08;
      }
    </style>
  </defs>
  <path class="cls-3" d="M82.3,71.1c-2.92,23.03-63.15,6.72-72.56-7.06C-.82,48.59,25.19,1.08,43.9,1.08s40.75,51.46,38.4,70.02Z"/>
  <path class="cls-1" d="M30.96,62.13c-.13-.63-.26-1.22-.4-1.79l1.59-1.59,2.29,2.29-2.29,2.29-1.19-1.19Z"/>
  <path class="cls-1" d="M61.04,45.96h-5.37c.73-1.27,1.28-2.63,1.6-4.09.15-.67.25-1.37.29-2.07.19-2.78-.42-5.52-1.76-7.94-.61-1.09-1.37-2.11-2.26-3.03,0,0-.01-.01-.02-.02-.04-.05-.09-.09-.13-.14-.95-.94-2.02-1.75-3.18-2.4-3.04-1.69-6.6-2.21-9.98-1.47-.11.02-.22.05-.29.07,0,0,0,0-.01,0,0,0-.01,0-.02,0-2.5.6-4.79,1.86-6.62,3.65-.04.04-.1.09-.17.15-1.87,1.87-3.19,4.22-3.8,6.79,0,0,0,0,0,0,0,0,0,.01,0,.02-.12.47-.21.98-.27,1.5-.34,2.63.06,5.31,1.16,7.74.19.42.42.83.65,1.23h-5.37c-.55,0-1,.45-1,1v.48h-.96v-24.67h39.48v24.67h-.96v-.48c0-.55-.45-1-1-1Z"/>
  <path class="cls-1" d="M51.82,45.96l-12.92-12.92c.51-.44,1.05-.85,1.63-1.21,2.31,2.03,5,2.62,7.39,3.13,2.36.5,4.4.93,5.85,2.55.73.81,1.31,1.63,1.76,2.44-.05.51-.12,1.01-.22,1.5-.36,1.65-1.05,3.16-2.03,4.52h-1.46Z"/>
  <path class="cls-1" d="M52.26,30.4c.7.75,1.31,1.57,1.79,2.43.59,1.07,1.02,2.21,1.27,3.4-.02-.02-.03-.04-.05-.06-1.89-2.11-4.45-2.65-6.93-3.17-2.03-.43-4.11-.88-5.91-2.2.81-.35,1.64-.63,2.51-.81,2.44-.53,4.97-.39,7.32.41Z"/>
  <path class="cls-1" d="M44.52,28.04c-1.25.27-2.45.7-3.6,1.26-.5-.79-.52-1.63-.07-2.58,2.63-.52,5.34-.18,7.74.97-1.36-.06-2.72.05-4.07.34Z"/>
  <path class="cls-1" d="M39.2,30.32c-.6.4-1.17.84-1.71,1.31l-2.19-2.19c.98-.84,2.08-1.52,3.28-2.01-.14,1.02.07,2,.62,2.89Z"/>
  <path class="cls-1" d="M33.86,30.83l2.2,2.2c-.48.54-.92,1.12-1.32,1.72-.9-.54-1.87-.74-2.88-.61.49-1.21,1.17-2.34,2-3.31Z"/>
  <path class="cls-1" d="M31.03,37.24c.04-.3.1-.57.15-.85.95-.44,1.78-.41,2.57.09-.77,1.56-1.29,3.21-1.51,4.94-.11.9-.14,1.81-.1,2.71-.04-.08-.08-.15-.12-.23-.94-2.09-1.29-4.4-.99-6.67Z"/>
  <path class="cls-1" d="M34.37,45.96c-.27-1.43-.32-2.86-.14-4.29.16-1.28.51-2.52,1.02-3.69,1.32,1.8,1.77,3.87,2.2,5.9.15.69.3,1.39.48,2.08h-3.55Z"/>
  <path class="cls-1" d="M40.02,45.96c-.24-.79-.43-1.61-.62-2.49-.51-2.39-1.09-5.07-3.12-7.38.36-.57.77-1.12,1.21-1.63l11.5,11.5h-8.97Z"/>
  <rect class="cls-1" x="26.48" y="47.96" width="33.55" height="3.93"/>
  <polygon class="cls-1" points="41.59 53.89 39.56 55.92 37.53 53.89 41.59 53.89"/>
  <rect class="cls-1" x="41.64" y="55.72" width="3.24" height="3.24" transform="translate(-27.87 47.38) rotate(-45)"/>
  <polygon class="cls-1" points="44.93 53.89 48.99 53.89 46.96 55.92 44.93 53.89"/>
  <rect class="cls-1" x="49.05" y="55.72" width="3.24" height="3.24" transform="translate(-25.7 52.62) rotate(-45)"/>
  <polygon class="cls-1" points="52.34 53.89 56.4 53.89 54.37 55.92 52.34 53.89"/>
  <polygon class="cls-1" points="34.18 53.89 32.15 55.92 30.12 53.89 34.18 53.89"/>
  <rect class="cls-1" x="34.23" y="55.72" width="3.24" height="3.24" transform="translate(-30.04 42.14) rotate(-45)"/>
  <rect class="cls-1" x="34.23" y="63.12" width="3.24" height="3.24" transform="translate(-35.28 44.31) rotate(-45)"/>
  <rect class="cls-1" x="37.94" y="59.42" width="3.24" height="3.24" transform="translate(-31.57 45.85) rotate(-45)"/>
  <rect class="cls-1" x="41.64" y="63.12" width="3.24" height="3.24" transform="translate(-33.11 49.55) rotate(-45)"/>
  <rect class="cls-1" x="45.35" y="59.42" width="3.24" height="3.24" transform="translate(-29.4 51.09) rotate(-45)"/>
  <rect class="cls-1" x="49.05" y="63.12" width="3.24" height="3.24" transform="translate(-30.94 54.78) rotate(-45)"/>
  <path class="cls-1" d="M52.08,61.04l2.29-2.29,1.59,1.59c-.14.57-.27,1.16-.4,1.79l-1.19,1.19-2.29-2.29Z"/>
  <path class="cls-1" d="M57.14,56.2s0,.02,0,.03c-.19.57-.39,1.18-.58,1.88l-.77-.77,1.47-1.47c-.04.11-.08.22-.11.34Z"/>
  <path class="cls-1" d="M62.04,49.44h1.96c.55,0,1-.45,1-1v-26.67c0-.55-.45-1-1-1H22.52c-.55,0-1,.45-1,1v26.67c0,.55.45,1,1,1h1.96v.96h-11.33V13.89h58.74v36.52h-9.85v-.96Z"/>
  <path class="cls-1" d="M30.74,57.33l-.76.76c-.2-.7-.39-1.3-.58-1.87,0-.01,0-.02-.01-.03-.04-.11-.08-.22-.11-.33l1.47,1.47Z"/>
  <path class="cls-1" d="M32.15,70.73c-.11-1.41-.26-2.79-.44-4.14l.44-.44,2.29,2.29-2.29,2.29Z"/>
  <rect class="cls-1" x="37.94" y="66.83" width="3.24" height="3.24" transform="translate(-36.81 48.02) rotate(-45)"/>
  <rect class="cls-1" x="41.64" y="70.53" width="3.24" height="3.24" transform="translate(-38.35 51.72) rotate(-45)"/>
  <rect class="cls-1" x="34.23" y="70.53" width="3.24" height="3.24" transform="translate(-40.52 46.48) rotate(-45)"/>
  <rect class="cls-1" x="49.05" y="70.53" width="3.24" height="3.24" transform="translate(-36.18 56.96) rotate(-45)"/>
  <rect class="cls-1" x="45.35" y="66.83" width="3.24" height="3.24" transform="translate(-34.64 53.26) rotate(-45)"/>
  <path class="cls-1" d="M54.37,66.16l.44.44c-.19,1.36-.34,2.74-.44,4.13l-2.29-2.29,2.29-2.29Z"/>
  <path class="cls-1" d="M76.33,55.59h-16.85c.29-.76.53-1.34.7-1.7h.86c.55,0,1-.45,1-1v-.48h10.85c.55,0,1-.45,1-1V12.89c0-.55-.45-1-1-1H12.15c-.55,0-1,.45-1,1v38.52c0,.55.45,1,1,1h12.33v.48c0,.55.45,1,1,1h.86c.17.37.41.94.7,1.7H8.71V8.71h67.63v46.89Z"/>
  <g>
    <path class="cls-4" d="M77.33,6.71H7.71c-.55,0-1,.45-1,1v48.89c0,.55.45,1,1,1h20.02c.25.79.5,1.67.76,2.68.2.79.39,1.64.58,2.56.25,1.24.45,2.4.61,3.56.23,1.57.41,3.21.53,4.88.04.58.08,1.18.11,1.79.07,1.35.11,2.79.11,4.28,0,.55.45,1,1,1s1-.45,1-1c0-1.24-.03-2.44-.08-3.59l2.11,2.11-.77.77c-.39.39-.39,1.02,0,1.41.2.2.45.29.71.29s.51-.1.71-.29l.77-.77.77.77c.2.2.45.29.71.29s.51-.1.71-.29c.39-.39.39-1.02,0-1.41l-.77-.77,2.29-2.29,2.29,2.29-.77.77c-.39.39-.39,1.02,0,1.41.2.2.45.29.71.29s.51-.1.71-.29l.77-.77.77.77c.2.2.45.29.71.29s.51-.1.71-.29c.39-.39.39-1.02,0-1.41l-.77-.77,2.29-2.29,2.29,2.29-.77.77c-.39.39-.39,1.02,0,1.41.2.2.45.29.71.29s.51-.1.71-.29l.77-.77.77.77c.2.2.45.29.71.29s.51-.1.71-.29c.39-.39.39-1.02,0-1.41l-.77-.77,2.11-2.11c-.05,1.16-.08,2.35-.08,3.59,0,.55.45,1,1,1s1-.45,1-1c0-1.49.04-2.93.11-4.29.03-.61.07-1.21.11-1.79.12-1.65.29-3.29.53-4.88.16-1.15.35-2.31.6-3.55.18-.92.38-1.77.57-2.55.25-1.01.51-1.89.76-2.68h18.54c.55,0,1-.45,1-1V7.71c0-.55-.45-1-1-1ZM29.39,56.23s0-.02-.01-.03c-.04-.11-.08-.22-.11-.33l1.47,1.47-.76.76c-.2-.7-.39-1.3-.58-1.87ZM32.15,70.73c-.11-1.41-.26-2.79-.44-4.14l.44-.44,2.29,2.29-2.29,2.29h0ZM30.56,60.34l1.59-1.59,2.29,2.29-2.29,2.29-1.19-1.19c-.13-.63-.26-1.22-.4-1.79ZM33.56,64.74l2.29-2.29,2.29,2.29-2.29,2.29-2.29-2.29ZM37.27,61.04l2.29-2.29,2.29,2.29-2.29,2.29-2.29-2.29ZM43.26,62.45l2.29,2.29-2.29,2.29-2.29-2.29,2.29-2.29ZM44.67,61.04l2.29-2.29,2.29,2.29-2.29,2.29-2.29-2.29ZM50.67,62.45l2.29,2.29-2.29,2.29-2.29-2.29,2.29-2.29ZM54.37,66.16l.44.44c-.19,1.36-.34,2.74-.44,4.13l-2.29-2.29,2.29-2.29ZM55.57,62.13l-1.19,1.19-2.29-2.29,2.29-2.29,1.59,1.59c-.14.57-.27,1.16-.4,1.79ZM54.37,55.92l-2.03-2.03h4.06l-2.03,2.03ZM52.96,57.33l-2.29,2.29-2.29-2.29,2.29-2.29,2.29,2.29ZM46.96,55.92l-2.03-2.03h4.06l-2.03,2.03ZM45.55,57.33l-2.29,2.29-2.29-2.29,2.29-2.29,2.29,2.29ZM39.56,55.92l-2.03-2.03h4.06l-2.03,2.03ZM38.14,57.33l-2.29,2.29-2.29-2.29,2.29-2.29,2.29,2.29ZM32.15,55.92l-2.03-2.03h4.06l-2.03,2.03ZM35.85,74.44l-2.29-2.29,2.29-2.29,2.29,2.29-2.29,2.29ZM39.56,70.73l-2.29-2.29,2.29-2.29,2.29,2.29-2.29,2.29ZM43.26,74.44l-2.29-2.29,2.29-2.29,2.29,2.29-2.29,2.29ZM44.67,68.44l2.29-2.29,2.29,2.29-2.29,2.29-2.29-2.29ZM48.38,72.15l2.29-2.29,2.29,2.29-2.29,2.29-2.29-2.29ZM57.14,56.2s0,.02,0,.03c-.19.57-.39,1.18-.58,1.88l-.77-.77,1.47-1.47c-.04.11-.08.22-.11.34ZM26.48,51.89v-3.93h33.55v3.93H26.48ZM64,20.78H22.52c-.55,0-1,.45-1,1v26.67c0,.55.45,1,1,1h1.96v.96h-11.33V13.89h58.74v36.52h-9.85v-.96h1.96c.55,0,1-.45,1-1v-26.67c0-.55-.45-1-1-1ZM23.52,47.44v-24.67h39.48v24.67h-.96v-.48c0-.55-.45-1-1-1h-5.37c.73-1.27,1.28-2.63,1.6-4.09.15-.67.25-1.37.29-2.07.19-2.78-.42-5.52-1.76-7.94-.61-1.09-1.37-2.11-2.26-3.03,0,0-.01-.01-.02-.02-.04-.05-.09-.09-.13-.14-.95-.94-2.02-1.75-3.18-2.4-3.04-1.69-6.6-2.21-9.98-1.47-.11.02-.22.05-.29.07,0,0,0,0-.01,0,0,0-.01,0-.02,0-2.5.6-4.79,1.86-6.62,3.65-.04.04-.1.09-.17.15-1.87,1.87-3.19,4.22-3.8,6.79,0,0,0,0,0,0,0,0,0,.01,0,.02-.12.47-.21.98-.27,1.5-.34,2.63.06,5.31,1.16,7.74.19.42.42.83.65,1.23h-5.37c-.55,0-1,.45-1,1v.48h-.96ZM32.14,44.14c-.04-.08-.08-.15-.12-.23-.94-2.09-1.29-4.4-.99-6.67.04-.3.1-.57.15-.85.95-.44,1.78-.41,2.57.09-.77,1.56-1.29,3.21-1.51,4.94-.11.9-.14,1.81-.1,2.71ZM31.85,34.14c.49-1.21,1.17-2.34,2-3.31l2.2,2.2c-.48.54-.92,1.12-1.32,1.72-.9-.54-1.87-.74-2.88-.61ZM39.2,30.32c-.6.4-1.17.84-1.71,1.31l-2.19-2.19c.98-.84,2.08-1.52,3.28-2.01-.14,1.02.07,2,.62,2.89ZM34.23,41.68c.16-1.28.51-2.52,1.02-3.69,1.32,1.8,1.77,3.87,2.2,5.9.15.69.3,1.39.48,2.08h-3.55c-.27-1.43-.32-2.86-.14-4.29ZM36.28,36.09c.36-.57.77-1.12,1.21-1.63l11.5,11.5h-8.97c-.24-.79-.43-1.61-.62-2.49-.51-2.39-1.09-5.07-3.12-7.38ZM38.9,33.05c.51-.44,1.05-.85,1.63-1.21,2.31,2.03,5,2.62,7.39,3.13,2.36.5,4.4.93,5.85,2.55.73.81,1.31,1.63,1.76,2.44-.05.51-.12,1.01-.22,1.5-.36,1.65-1.05,3.16-2.03,4.52h-1.46l-12.92-12.92ZM44.52,28.04c-1.25.27-2.45.7-3.6,1.26-.5-.79-.52-1.63-.07-2.58,2.63-.52,5.34-.18,7.74.97-1.36-.06-2.72.05-4.07.34ZM52.26,30.4c.7.75,1.31,1.57,1.79,2.43.59,1.07,1.02,2.21,1.27,3.4-.02-.02-.03-.04-.05-.06-1.89-2.11-4.45-2.65-6.93-3.17-2.03-.43-4.11-.88-5.91-2.2.81-.35,1.64-.63,2.51-.81,2.44-.53,4.97-.39,7.32.41ZM76.33,55.59h-16.85c.29-.76.53-1.34.7-1.7h.86c.55,0,1-.45,1-1v-.48h10.85c.55,0,1-.45,1-1V12.89c0-.55-.45-1-1-1H12.15c-.55,0-1,.45-1,1v38.52c0,.55.45,1,1,1h12.33v.48c0,.55.45,1,1,1h.86c.17.37.41.94.7,1.7H8.71V8.71h67.63v46.89Z"/>
    <path class="cls-2" d="M51.82,45.96l-12.92-12.92c.51-.44,1.05-.85,1.63-1.21,2.31,2.03,5,2.62,7.39,3.13,2.36.5,4.4.93,5.85,2.55.73.81,1.31,1.63,1.76,2.44-.05.51-.12,1.01-.22,1.5-.36,1.65-1.05,3.16-2.03,4.52h-1.46Z"/>
    <path class="cls-2" d="M52.26,30.4c.7.75,1.31,1.57,1.79,2.43.59,1.07,1.02,2.21,1.27,3.4-.02-.02-.03-.04-.05-.06-1.89-2.11-4.45-2.65-6.93-3.17-2.03-.43-4.11-.88-5.91-2.2.81-.35,1.64-.63,2.51-.81,2.44-.53,4.97-.39,7.32.41Z"/>
    <path class="cls-2" d="M44.52,28.04c-1.25.27-2.45.7-3.6,1.26-.5-.79-.52-1.63-.07-2.58,2.63-.52,5.34-.18,7.74.97-1.36-.06-2.72.05-4.07.34Z"/>
    <path class="cls-2" d="M39.2,30.32c-.6.4-1.17.84-1.71,1.31l-2.19-2.19c.98-.84,2.08-1.52,3.28-2.01-.14,1.02.07,2,.62,2.89Z"/>
    <path class="cls-2" d="M33.86,30.83l2.2,2.2c-.48.54-.92,1.12-1.32,1.72-.9-.54-1.87-.74-2.88-.61.49-1.21,1.17-2.34,2-3.31Z"/>
    <path class="cls-2" d="M31.03,37.24c.04-.3.1-.57.15-.85.95-.44,1.78-.41,2.57.09-.77,1.56-1.29,3.21-1.51,4.94-.11.9-.14,1.81-.1,2.71-.04-.08-.08-.15-.12-.23-.94-2.09-1.29-4.4-.99-6.67Z"/>
    <path class="cls-2" d="M34.37,45.96c-.27-1.43-.32-2.86-.14-4.29.16-1.28.51-2.52,1.02-3.69,1.32,1.8,1.77,3.87,2.2,5.9.15.69.3,1.39.48,2.08h-3.55Z"/>
    <path class="cls-2" d="M40.02,45.96c-.24-.79-.43-1.61-.62-2.49-.51-2.39-1.09-5.07-3.12-7.38.36-.57.77-1.12,1.21-1.63l11.5,11.5h-8.97Z"/>
    <path class="cls-2" d="M62.04,49.44h1.96c.55,0,1-.45,1-1v-26.67c0-.55-.45-1-1-1H22.52c-.55,0-1,.45-1,1v26.67c0,.55.45,1,1,1h1.96v.96h-11.33V13.89h58.74v36.52h-9.85v-.96Z"/>
  </g>
</svg>