<?xml version="1.0" encoding="UTF-8"?>
<svg id="Capa_1" xmlns="http://www.w3.org/2000/svg" version="1.1" viewBox="0 0 85 85">
  <!-- Generator: Adobe Illustrator 29.0.0, SVG Export Plug-In . SVG Version: 2.1.0 Build 186)  -->
  <defs>
    <style>
      .st0 {
        fill: #fff;
      }
    </style>
  </defs>
  <path class="st0" d="M75.2,25.7l-12.4-10.6c-4.1-3.5-10-3.5-14.1-.1-.8-.3-1.6-.3-2.4-.2-1.9-3.3-5.4-5.5-9.5-5.5h-16.3c-5.4,0-9.9,3.9-10.8,9.1-2.3,1-3.9,3.5-3.7,6.2.7,8.2,1.2,13,1.6,14.4.7,3,2.9,6,4.3,7.2,1,.9,1.6,2.3,1.6,3.7v1.4h0c0,0,0,.1,0,.2v16.7c0,1.4,1.1,2.5,2.5,2.5h17.2l5.5,4.7c.5.4,1,.6,1.6.6h0c0,0,.1,0,.2,0,.7,0,1.3-.4,1.7-.9l10.9-12.7c0,0,0-.1.1-.2h0s1-1.2,1-1.2c.9-1,2.1-1.6,3.6-1.6,1.9,0,3.8-.9,5.1-2.4l13.4-15.6c3.9-4.6,3.4-11.5-1.2-15.5ZM48.8,17.1c1,.6,1.7,1.5,1.9,2.6.2,1.1,0,2.2-.6,3.2l-2.3,3.2v-6c0-1.2-.2-2.4-.6-3.4.5,0,1,.2,1.5.4ZM47.6,45.6c.5.4.7,1,.7,1.6s-.3,1.2-.7,1.6l-3.1,2.7-.6-.5v-1.5c0-1.3.6-2.6,1.7-3.6.3-.3.5-.5.8-.8.5,0,.9.2,1.3.5ZM20.3,66.6h-3.2v-2h3.2v2ZM20.3,53.4h-3.2v-2h3.2v2ZM26.8,66.6h-3.2v-2h3.2v2ZM26.8,53.4h-3.2v-2h3.2v2ZM26.7,44.7c-.1-.6,0-1.2.5-1.7.8-.9,2.4-.9,3.2,0,.4.5.6,1.1.5,1.7l-.6,4.1h-2.9l-.6-4.1ZM33,66.6h-3v-2h3v2ZM33,53.4h-3v-2h3v2ZM31.5,46.5l1.3-1.5,2.4,2.1-1.3,1.5-2.4-2.1ZM33.9,49.8h2v19.1h-2v-19.1ZM35.7,70.5l-1.1-.9h1.8l-.8.9ZM39.6,66.6h-2.6v-2h2.6v2ZM39.6,53.4h-2.6v-2h.3l-.9-.8,1.3-1.5,2.4,2.1-.5.6v1.6ZM33.6,42.2c-.5-.4-1.1-.6-1.8-.6-.8-.9-1.9-1.4-3.1-1.4s-2.3.5-3.1,1.4c-.8.9-1.1,2.1-.9,3.3l.6,3.8h-9.3c-.2,0-.4,0-.6,0-.2-1.6-1-3.2-2.2-4.3-1.1-1-3.1-3.8-3.7-6.2-.3-1.2-.8-6.2-1.5-14.1-.2-2.1,1.2-4,3.1-4.4,1.1-.2,2.2,0,3.2.7.9.7,1.5,1.7,1.6,2.8l.9,9.4,2-.2-.6-6.2h17.1c3.2,0,5.9-2.6,5.9-5.9v-2.4h-2v2.4c0,2.1-1.7,3.9-3.9,3.9h-17.3v-1.1c-.3-1.7-1.1-3.2-2.5-4.2-1.1-.8-2.4-1.2-3.7-1.2,1-3.9,4.5-6.6,8.7-6.6h16.3c4.9,0,9,4,9,9v20.6c0,1.4-.6,2.7-1.6,3.7-1.3,1.2-2.1,2.8-2.3,4.4-.2,0-.4,0-.6,0h0l-7.6-6.6ZM41.2,54.8l1.3-1.5,2.3,2-1.3,1.5-2.3-2ZM42.9,59l3.7-4.4,1.5,1.3-5.3,6.1v-3.1ZM48.5,61.1l-2-1.7,1.3-1.5,2,1.7-1.3,1.5ZM74.9,39.9l-13.4,15.6c-.9,1.1-2.2,1.7-3.6,1.7-1.8,0-3.4.7-4.6,1.8-.1-.2-.2-.3-.4-.4l-6.9-5.9,2.9-2.5c.9-.8,1.4-1.9,1.4-3.1,0-1.2-.5-2.3-1.4-3.1-.5-.4-1-.7-1.6-.8.3-.8.5-1.6.5-2.5v-11.2l2.1-2.9,13,11.2c1.1.9,2.4,1.4,3.8,1.4s.3,0,.5,0c1.6-.1,3-.8,4-2l1.5-1.8-1.5-1.3-1.5,1.8c-.7.8-1.6,1.3-2.6,1.3-1,0-2-.2-2.8-.9l-13.2-11.3.7-.9c1-1.4,1.3-3.1,1-4.7-.3-1.3-1-2.5-2-3.3,3.3-2.3,7.8-2.1,10.9.6l12.4,10.6c3.8,3.2,4.2,8.9,1,12.6Z"/>
</svg>