<?xml version="1.0" encoding="UTF-8"?>
<svg id="Capa_1" data-name="Capa 1" xmlns="http://www.w3.org/2000/svg" viewBox="0 0 85.04 85.04">
  <defs>
    <style>
      .cls-1 {
        fill: #fff;
      }

      .cls-2 {
        fill: #6baf58;
      }

      .cls-3 {
        fill: #c8e2bf;
      }

      .cls-4 {
        fill: #154c08;
      }
    </style>
  </defs>
  <path class="cls-3" d="M83.72,27.34c0,18.71-14.32,51.2-33.04,51.2S10.87,58.19,10.87,39.48,3.73,4,22.45,4s61.27,4.63,61.27,23.34Z"/>
  <g>
    <g>
      <g>
        <path class="cls-2" d="M30.98,42.99l.94-1.09c1.1-1.28,1.6-2.97,1.38-4.64-.21-1.59.08-5.12,1.34-7.64.59-1.19,3.51-5.43,8.21-11.94.81-1.13,2.06-1.86,3.43-2.03.78-.1,1.58,0,2.31.28l.36.14.29-.25c3.74-3.18,9.17-3.16,12.91.05l12.41,10.64c4.18,3.58,4.66,9.87,1.08,14.05l-13.51,15.75c-1.08,1.26-2.67,1.92-4.33,1.98-1.68.05-3.27.81-4.35,2.08l-.94,1.09-21.53-18.46Z"/>
        <rect class="cls-4" x="21.98" y="48.84" width="28.36" height="19.78" rx="1.53" ry="1.53" transform="translate(46.93 -9.39) rotate(40.61)"/>
        <path class="cls-2" d="M43.53,45.61l-2.6,4.18,3.5,3,3.83-3.29c1.59-1.37,1.43-3.95-.49-5.07-1.42-.83-3.37-.23-4.24,1.17Z"/>
      </g>
      <g>
        <path class="cls-4" d="M31.74,43.65l-1.52-1.3.9-1.05c.91-1.06,1.33-2.47,1.15-3.86-.23-1.77.06-5.49,1.43-8.22.62-1.25,3.38-5.27,8.19-11.95,1.84-2.55,5.22-3.35,7.85-1.85,1.5.85,2.53,2.24,2.9,3.9.37,1.64.02,3.36-.95,4.73l-5.41,7.68-1.63-1.15,5.41-7.68c.64-.91.87-2.06.63-3.15-.25-1.1-.93-2.03-1.94-2.6-1.72-.98-4.02-.42-5.24,1.28-4.62,6.41-7.47,10.55-8.03,11.67-1.11,2.23-1.43,5.54-1.23,7.07.25,1.95-.33,3.92-1.62,5.42l-.9,1.05Z"/>
        <path class="cls-4" d="M53.26,62.1l-1.52-1.3,1.03-1.2c1.23-1.44,3.03-2.26,5.06-2.32,1.39-.04,2.72-.67,3.63-1.74l13.41-15.65c3.22-3.75,2.78-9.42-.97-12.64l-12.4-10.63c-3.5-3-8.66-2.88-12,.3l-1.38-1.45c4.09-3.88,10.39-4.04,14.68-.36l12.4,10.63c4.59,3.94,5.12,10.87,1.19,15.46l-13.41,15.65c-1.27,1.49-3.13,2.37-5.08,2.43-1.47.04-2.75.62-3.61,1.62l-1.03,1.2Z"/>
        <path class="cls-4" d="M66.7,39.21c-1.4,0-2.74-.49-3.81-1.41l-13.82-11.85,1.3-1.52,13.82,11.85c.79.67,1.79,1,2.82.92,1.03-.08,1.97-.56,2.64-1.34l1.55-1.81,1.52,1.3-1.55,1.81c-1.02,1.19-2.44,1.91-4.01,2.03-.15.01-.31.02-.46.02Z"/>
        <rect class="cls-1" x="31.57" y="61.56" width="19.12" height="2" transform="translate(-33.13 53.07) rotate(-49.4)"/>
        <path class="cls-1" d="M45.05,53.6l-1.3-1.52,3.83-3.29c.47-.4.74-.99.74-1.6s-.27-1.2-.74-1.6c-.47-.4-1.09-.58-1.7-.48-.61.09-1.15.45-1.47.97l-2.66,4.29-1.7-1.05,2.66-4.29c.63-1.02,1.68-1.71,2.87-1.89,1.18-.18,2.39.16,3.3.94.91.78,1.43,1.92,1.44,3.12,0,1.2-.52,2.34-1.43,3.12l-3.83,3.29Z"/>
        <path class="cls-1" d="M43.48,56.77l-2.27-1.95,1.3-1.52,2.27,1.95-1.3,1.52ZM38.78,52.74l-2.44-2.09,1.3-1.52,2.44,2.09-1.3,1.52ZM33.91,48.56l-2.44-2.09,1.3-1.52,2.44,2.09-1.3,1.52Z"/>
        <rect class="cls-1" x="47.14" y="58.13" width="2" height="2.64" transform="translate(-28.32 57.31) rotate(-49.4)"/>
        <rect class="cls-1" x="38.56" y="68.14" width="2" height="2.64" transform="translate(-38.92 54.29) rotate(-49.4)"/>
        <path class="cls-1" d="M34.9,66.78l-2.27-1.95,1.3-1.52,2.27,1.95-1.3,1.52ZM30.19,62.75l-2.44-2.09,1.3-1.52,2.44,2.09-1.3,1.52ZM25.32,58.57l-2.44-2.09,1.3-1.52,2.44,2.09-1.3,1.52Z"/>
        <path class="cls-4" d="M40.31,75.84c-.6,0-1.18-.21-1.64-.61l-19.2-16.46c-.51-.44-.83-1.05-.88-1.73s.16-1.33.6-1.84l10.88-12.69c.44-.51,1.05-.83,1.73-.88.67-.05,1.33.16,1.84.6l19.2,16.46c1.06.91,1.18,2.51.27,3.57l-10.88,12.69c-.44.51-1.05.83-1.73.88-.07,0-.13,0-.2,0ZM39.97,73.71c.11.09.24.13.39.13.14-.01.27-.08.36-.18l10.88-12.69c.19-.22.17-.56-.06-.75l-19.2-16.46c-.11-.09-.25-.14-.39-.13-.14.01-.27.08-.36.18l-10.88,12.69c-.19.22-.17.56.06.75l19.2,16.46Z"/>
      </g>
    </g>
    <g>
      <g>
        <path class="cls-2" d="M14.5,51.09v-1.44c0-1.69-.72-3.3-1.97-4.42-1.19-1.07-3.27-3.93-3.96-6.67-.32-1.29-.87-6.4-1.54-14.4-.12-1.38.35-2.76,1.29-3.77.53-.58,1.2-1.03,1.94-1.3l.36-.13.06-.38c.77-4.85,4.91-8.37,9.83-8.37h16.34c5.5,0,9.96,4.46,9.96,9.96v20.75c0,1.67-.78,3.2-2,4.32-1.24,1.13-1.95,2.74-1.95,4.41v1.44H14.5Z"/>
        <rect class="cls-4" x="14.5" y="49.77" width="28.36" height="19.78" rx="1.53" ry="1.53"/>
        <path class="cls-2" d="M25.73,44.9l.75,4.87h4.62l.77-4.99c.32-2.08-1.48-3.93-3.67-3.53-1.62.3-2.71,2.02-2.46,3.65Z"/>
      </g>
      <g>
        <path class="cls-4" d="M15.5,51.09h-2v-1.38c0-1.4-.6-2.74-1.64-3.68-1.33-1.19-3.53-4.21-4.27-7.17-.34-1.35-.86-6.2-1.55-14.4-.26-3.09,1.83-5.95,4.76-6.51,1.69-.33,3.38.06,4.74,1.08,1.34,1.01,2.2,2.54,2.36,4.21l.89,9.36-1.99.19-.89-9.36c-.11-1.11-.68-2.13-1.57-2.8-.91-.68-2.03-.93-3.16-.71-1.94.37-3.32,2.3-3.14,4.38.67,7.87,1.2,12.87,1.5,14.09.6,2.42,2.52,5.13,3.66,6.17,1.46,1.32,2.3,3.2,2.3,5.16v1.38Z"/>
        <path class="cls-4" d="M43.85,51.09h-2v-1.58c0-1.89.83-3.69,2.33-5.06,1.03-.94,1.62-2.28,1.62-3.68v-20.61c0-4.94-4.02-8.96-8.96-8.96h-16.34c-4.61,0-8.45,3.45-8.92,8.03l-1.99-.21c.58-5.6,5.27-9.83,10.91-9.83h16.34c6.05,0,10.96,4.92,10.96,10.96v20.61c0,1.96-.83,3.84-2.28,5.16-1.08.99-1.68,2.26-1.68,3.58v1.58Z"/>
        <path class="cls-4" d="M35.34,26.37h-18.21v-2h18.21c2.14,0,3.87-1.74,3.87-3.87v-2.38h2v2.38c0,3.24-2.63,5.87-5.87,5.87Z"/>
        <rect class="cls-1" x="33.94" y="49.77" width="2" height="19.12"/>
        <path class="cls-1" d="M32.08,49.98l-1.98-.3.77-4.99c.09-.61-.08-1.23-.48-1.7-.8-.94-2.4-.94-3.21,0-.4.47-.58,1.09-.48,1.7l.77,4.99-1.98.3-.77-4.99c-.18-1.19.16-2.39.94-3.3.78-.91,1.92-1.43,3.12-1.43s2.34.52,3.12,1.43c.78.91,1.12,2.11.94,3.3l-.77,4.99Z"/>
        <path class="cls-1" d="M32.96,53.4h-2.99v-2h2.99v2ZM26.76,53.4h-3.21v-2h3.21v2ZM20.35,53.4h-3.21v-2h3.21v2Z"/>
        <rect class="cls-1" x="36.92" y="51.4" width="2.64" height="2"/>
        <rect class="cls-1" x="36.92" y="64.59" width="2.64" height="2"/>
        <path class="cls-1" d="M32.96,66.59h-2.99v-2h2.99v2ZM26.76,66.59h-3.21v-2h3.21v2ZM20.35,66.59h-3.21v-2h3.21v2Z"/>
        <path class="cls-4" d="M41.32,70.55h-25.29c-1.4,0-2.53-1.14-2.53-2.53v-16.71c0-1.4,1.14-2.53,2.53-2.53h25.29c1.4,0,2.53,1.14,2.53,2.53v16.71c0,1.4-1.14,2.53-2.53,2.53ZM16.03,50.77c-.29,0-.53.24-.53.53v16.71c0,.29.24.53.53.53h25.29c.29,0,.53-.24.53-.53v-16.71c0-.29-.24-.53-.53-.53h-25.29Z"/>
      </g>
    </g>
  </g>
</svg>