<?xml version="1.0" encoding="UTF-8"?>
<svg id="Capa_1" xmlns="http://www.w3.org/2000/svg" version="1.1" viewBox="0 0 85 85">
  <!-- Generator: Adobe Illustrator 29.0.0, SVG Export Plug-In . SVG Version: 2.1.0 Build 186)  -->
  <defs>
    <style>
      .st0 {
        fill: #fff;
      }
    </style>
  </defs>
  <path class="st0" d="M53.7,30.3c.8-5,8,6.7,8.6,7.7v-5.5c.2-1.2,2-1,2.1,0v13.1c0,1.5.5,4.3-1,4.9-1.8-.3-1.2-2.4-1.2-3.9,0-3.5-.8-5.9-2.7-9-.7-1.4-2.2-3.4-3.3-4.6-.6-.6-2.3-2.2-2.6-2.9h0v.2Z"/>
  <g>
    <path class="st0" d="M62.3,46.6c0-1.8-.2-3.3-.7-4.8.5,1.5.7,3,.7,4.8Z"/>
    <path class="st0" d="M62.3,46.7c0,.6,0,1.4,0,2.1,0-.7,0-1.4,0-2.1s0,0,0,0Z"/>
    <path class="st0" d="M59.6,37.7h0c-.7-1.4-2.2-3.4-3.3-4.6-.3-.3-1-1-1.6-1.6.4.6.9,1.1,1.5,1.6,1,1.2,2.6,3.1,3.3,4.6h0Z"/>
    <path class="st0" d="M72.4,65.5c1.3-4,1.4-5.5,1-9.6l-2.6-25.1c-.6-5.2-.7-6.5-5.3-9.8-1.8-1.3-5.1-3.8-6.9-4.6,0-3.3-1.2-2.4-2.6-4.2-.5-.7-.7-1.6-1.1-2.4-2.8-5.2-14.6-4.8-19.3-3.6-2.7.7-5.2,1.7-6.2,4.5-1.1,3-2.7,2.1-3.8,5.5h0c-.4.6-1.7,1.3-2.3,1.7-3,2.1-7.5,4.9-8.8,8.5-.5,1.4-.5,3-.6,4.5l-1,10.5c0,.8-.4,2.2,0,2.9.4.8,1.7.7,1.9,0s.3-3,.4-3.9c.2-2.8.5-5.6.8-8.4.3-2.7,0-4.9,2-7.1,1.6-1.9,6.1-5,8.5-6.5h0l1.2,1h0c.6.4,1.2,1,1.8,1.5.8.6,1.8,1.5,2.8,2.4h0c0-.1,4,2.8,4,2.8h0v4.7c-1.5.3-1.5,1.8,0,2.2,0,.8-.2,2.5.3,3.1.4.5,1.2.4,1.6,0,.5-.5.3-2.3.3-3,1.3-.4,1.5-1.9,0-2.2v-3.5h7v1.7h0v1.7c-1.4.4-1.2,1.7,0,2.2,0,.8-.2,2.5.3,3s1.2.4,1.6,0c.5-.5.3-2.3.3-3.1,1.7-.2,1.7-1.9,0-2.2v-4.3l4-2.9c2.1-1.7,4.2-3.7,5.2-4.6.2-.2.4-.4.6-.5h0c1.8,1.2,3.5,2.4,5.2,3.6,4.2,2.9,5,3.3,5.5,8.2l2.4,23.6c.5,4.7.9,6.8-.8,11.3h-5.7v-6.6c0-1.5.5-4.3-1-5,0-.5,0,0,0,0-1.6.5-1.2,1.9-1.2,3.3v7.7c0,2.6.8,6.9-2.6,7.9-1.1.3-2.5.2-3.7.2h-18c-1.1,0-2.4-.3-2.6,1.2h-3.4,3.4c.4,1.5,2.2,1.1,3.6,1.1h20.1c0,3.4-.3,2.5-4.2,2.5h1.2-28.5v-2.5c1.8,0,3.9.7,4.5-1.1h0c0-.6-.4-.8-.7-1-.4,0-.8,0-1.3-.2-2.1,0-4,.3-5.4-.4-.9-.4-1.6-1.2-2.1-2.6v-25.5c.5-3.1,3.9-8.4,5.9-10.8,1.2-.8,2-1.9,2.6-3.1-1-4.7-7.8,6.8-8.3,7.7l-.2.3v-3.6c0-1.2.4-3.1-1.1-3-.4,0-.8.2-1.1.5-.1.9,0,2,0,2.8v30c-1.2,0-5.7.6-6.2-1.3-.8-3-.6-4.5-.3-7.6l.5-4.8c0-1,.9-3.5-.8-3.7-1.2,0-1.2,1.2-1.3,2.1l-.2,2.2c-.4,4.2-1.7,11.5,1.1,14.9,0,4.5-1.1,5.1,3.6,5.1h4.2c.7,1,1.4,1.9,2.5,2.4v2.6c0,3.3,3.3,2.6,5.6,2.6h28.5c2.8,0,3.7-1,3.7-3.8v-1.7c1-.6,1.8-1.2,2.3-2.2,1.2,0,6.6,0,7.3,0,1.2-.4.5-3.3.7-4.3,0-.7.5-1.3.7-1.9l.5.2ZM41.4,7.6h0c2.6,0,4.9.3,7.5.8,0,.8-.2,1.6-.3,2.3-1.6-.3-3.3-.5-4.9-.6-2.4,0-5,0-7.4.6,0-.8,0-1.5-.2-2.3,1.7-.4,3.6-.6,5.3-.8h0ZM56.5,16.6c-.7,1-7.3,6.3-8.4,7.1,0-.4,0-.6,0-1-.2-.3-.4-.5-.8-.5-1.5-.1-1.3,1.9-1.3,2.8-2.1.7-4.9.6-7,0,0-.8.2-2-.3-2.5-.8-.8-1.8,0-1.9.9h0c-.6-.1-7.9-6.1-8.6-7h0c.5-1.4,1.9-1.8,2.7-2.9,1.2-1.5.5-3.5,3.2-4.3,0,.6.2,1.1.2,1.7h0c.3,1.2.5,2.3.8,3.5,3.9,13.2,13,10,15.4-1.6.3-1.2.4-2.4.7-3.6h0c1.7.5,2,1.7,2.6,3.1.7,1.6,1.4,2,2.8,3v1.2h0ZM20.3,69.7h-5v-2.5h5v2.5ZM27.6,77.3h-1.8v-2.5h1.8v2.5ZM44.4,77.3h1.6-1.6ZM69.5,69.7h-5v-2.4h5v2.4Z"/>
    <path class="st0" d="M46.6,14.7v.2-.2h0Z"/>
  </g>
  <path class="st0" d="M56.4,57.9c-.2,0-5.1-2.1-5.1-7.8s-.5-1-1-1h-15.6c-.6,0-1,.5-1,1,0,5.7-4.9,7.7-5.1,7.8-.4.2-.6.5-.6,1v7.9c0,.6.5,1,1,1h27c.6,0,1-.5,1-1v-7.9c0-.4-.3-.8-.6-1h0ZM55,65.7h-24.9v-6.2c1.5-.8,5.2-3.3,5.7-8.3h13.6c.5,5.1,4.1,7.5,5.7,8.3v6.2h-.1Z"/>
</svg>