<?xml version="1.0" encoding="UTF-8"?>
<svg id="Capa_1" data-name="Capa 1" xmlns="http://www.w3.org/2000/svg" viewBox="0 0 85.04 85.04">
  <defs>
    <style>
      .cls-1 {
        fill: #fff;
      }

      .cls-2 {
        fill: #6baf58;
      }

      .cls-3 {
        fill: #154c08;
      }
    </style>
  </defs>
  <g>
    <path class="cls-3" d="M25.75,16.28c1.02-3.47,2.67-2.58,3.75-5.53,1.02-2.79,3.52-3.85,6.19-4.53,4.67-1.19,16.5-1.59,19.26,3.6.42.8.55,1.66,1.1,2.4,1.36,1.83,2.69.89,2.57,4.21,1.82.79,5.15,3.34,6.9,4.6,4.57,3.3,4.74,4.59,5.31,9.79l2.58,25.1c.44,4.01.28,5.56-1,9.56-.21.64-.58,1.28-.7,1.94-.17.98.43,3.96-.72,4.33-.78.25-6.12.12-7.33.12-.57,1.03-1.34,1.66-2.35,2.23v1.68c0,2.73-.9,3.75-3.67,3.75h-28.51c-2.25,0-5.6.67-5.6-2.63v-2.63c-1.1-.55-1.78-1.43-2.5-2.4h-4.24c-4.7,0-3.61-.58-3.63-5.06-2.82-3.4-1.54-10.73-1.12-14.93l.22-2.22c.08-.84.06-2.2,1.3-2.09,1.61.15.85,2.65.75,3.65l-.47,4.83c-.32,3.03-.5,4.51.29,7.56.49,1.89.71,1.32,2.57,1.33-.08-.42-.26-.85-.39-1.26-.8-2.59-.75-3.81-.49-6.42l2.34-24c.17-1.68.18-3.44.5-5.09.68-3.47,6.46-6.78,9.32-8.73l-1.24-1.03-.05.03c-2.41,1.43-6.92,4.61-8.55,6.47-1.92,2.18-1.73,4.39-2,7.11-.27,2.78-.57,5.57-.81,8.36-.08.93-.17,3.18-.41,3.93-.27.83-1.55.89-1.94.12-.4-.77-.05-2.11.04-2.92l1-10.52c.15-1.49.14-3.12.63-4.54,1.25-3.62,5.75-6.38,8.78-8.47.64-.44,1.86-1.15,2.3-1.69ZM28,16.42c.75.94,8.03,6.86,8.61,7.1.05-.07.04-.04.04-.1-.78-.76-1.43-1.67-2.15-2.49-.96-1.07-2.79-2.59-3.23-3.97.5-1.79,2.38-2.49,2.83-5.97,0-.59-.02-1.14-.16-1.72-2.73.75-1.99,2.77-3.22,4.27-.87,1.06-2.25,1.49-2.73,2.88ZM15.38,67.11v2.55h1.98v-2.55h-1.98ZM25.75,74.84v2.45c.61.01,1.21,0,1.81,0v-2.45c-.61.04-1.2.08-1.81,0Z"/>
    <path class="cls-2" d="M17.36,67.11h2.97v2.55h-2.97v-2.55Z"/>
    <path class="cls-1" d="M56.06,74.84h3.01c.02,3.44-.33,2.48-4.23,2.45h-8.89c-.49,0-1.06.06-1.54,0,.37-.05.79,0,1.16,0h10.48s0-2.44,0-2.44Z"/>
    <path class="cls-2" d="M38.86,27.42c2.55.23,4.3.57,6.98,0v1.64h-6.98v-1.64Z"/>
    <path class="cls-2" d="M64.48,67.24c1.65-.08,3.33,0,4.98,0v2.42h-3.26c-.56,0-1.16.06-1.71,0v-2.42Z"/>
    <path class="cls-1" d="M64.48,67.24c.9.08,1.87,0,2.78,0-.18.81-.41,1.61-.56,2.42-.69,0-1.54-.1-2.21,0v-2.42Z"/>
    <path class="cls-1" d="M36.78,12.9c2.62-.83,8.75-.56,11.26,0l-.02.17c-.23,1.99-2.16,5.59-3.6,6.95-.25-.48.38-.92.6-1.33.68-1.26,1.21-2.58,1.62-3.95-3.11-.53-5.32-.23-8.23-.42.3,1.62.87,3.09,1.65,4.53.26.47.83,1.02.93,1.54-2.07-1.27-3.53-5.17-4.21-7.47Z"/>
    <path class="cls-1" d="M41.42,7.62c2.62-.03,4.9.26,7.47.79-.13.77-.24,1.55-.3,2.33-1.62-.26-3.26-.45-4.89-.58-2.44-.06-4.99.05-7.38.58,0-.8-.07-1.55-.24-2.33,1.74-.44,3.56-.63,5.35-.79Z"/>
    <path class="cls-1" d="M38.41,14.3c2.91.2,5.13-.11,8.23.42-.4,1.38-.93,2.69-1.62,3.95-.23.42-.85.85-.6,1.33-1.1.93-2.2,1.22-3.43.36-.1-.52-.68-1.07-.93-1.54-.78-1.44-1.35-2.91-1.65-4.53Z"/>
    <path class="cls-2" d="M32.07,73.76c1.12.02,2.24.01,3.36,0,.44,1.51,2.23,1.08,3.56,1.07h17.07s0,2.44,0,2.44h-10.48c-.37,0-.79-.05-1.16,0h-16.85v-2.45c1.77,0,3.94.71,4.51-1.07Z"/>
    <path class="cls-2" d="M51.03,9.27c1.72.45,2.05,1.72,2.64,3.13.69,1.64,1.42,2.05,2.78,3.03,0,.39.01.79,0,1.18-.72,1.03-7.26,6.32-8.41,7.13.03-.38.03-.64-.13-1-.22-.26-.45-.48-.81-.51-1.51-.15-1.28,1.86-1.27,2.81-2.08.71-4.87.57-6.98,0,0-.75.23-1.98-.32-2.54-.77-.79-1.85-.01-1.89.92-.78-.76-1.43-1.67-2.15-2.49-.96-1.07-2.79-2.59-3.23-3.97.5-1.79,2.38-2.49,2.83-5.97l.03.08c.34,1.11.51,2.28.84,3.4,3.89,13.2,13.02,9.97,15.41-1.58.3-1.2.36-2.43.65-3.63Z"/>
    <path class="cls-2" d="M28,19.42c.64.39,1.22.99,1.8,1.46,1.79,1.48,4.96,4.3,6.85,5.22v2.96c-1.91-.09-4.07-.07-5.61,1.22-.88-5.06-7.81,6.61-8.36,7.61l-.18.34c.03-1.2,0-2.41,0-3.61,0-.9.4-3.07-1.08-3.01-.43.02-.79.25-1.1.52-.11.88,0,1.95,0,2.85v29.95c-1.2,0-2.41.04-3.61,0-.08-.42-.26-.85-.39-1.26-.8-2.59-.75-3.81-.49-6.42l2.34-24c.17-1.68.18-3.44.5-5.09.68-3.47,6.46-6.78,9.32-8.73Z"/>
    <path class="cls-2" d="M57.85,18.39c1.75,1.17,3.47,2.38,5.19,3.58,4.15,2.9,5.04,3.26,5.53,8.19l2.38,23.55c.48,4.68.92,6.75-.8,11.31h-5.66v-6.6c0-1.54.55-4.27-1.02-4.95,0-.95.05-1.92,0-2.86-1.8-.29-1.16-2.42-1.16-3.88,0-3.52-.8-5.9-2.66-8.99-.68-1.43-2.25-3.4-3.31-4.58-.57-.63-2.34-2.25-2.6-2.88-1.89-1.47-3.47-1.23-5.7-1.22v-2.56c1.81-.93,7.43-5.97,9.22-7.57.2-.18.4-.36.58-.54Z"/>
    <path class="cls-3" d="M53.74,30.28c.83-4.99,8,6.73,8.56,7.71v-3.51c0-.63-.06-1.33.05-1.95.22-1.18,2.02-1.05,2.12.07.07.79.01,1.64.01,2.43v10.67c0,1.53.53,4.3-1.02,4.92-1.8-.29-1.16-2.42-1.16-3.88,0-3.52-.8-5.9-2.66-8.99-.68-1.43-2.25-3.4-3.31-4.58-.57-.63-2.34-2.25-2.6-2.88Z"/>
    <path class="cls-1" d="M32.69,23.15l3.96,2.88v4.72c-1.45.26-1.52,1.82,0,2.19-.02.77-.24,2.52.28,3.08.44.46,1.2.43,1.63-.03.52-.55.28-2.29.29-3.05,1.28-.44,1.54-1.87,0-2.19v-3.47h6.98s0,2.91,0,3.47c-1.44.38-1.2,1.74,0,2.19,0,.78-.23,2.46.32,3.05.39.42,1.17.42,1.57,0,.53-.54.32-2.31.31-3.06,1.73-.22,1.69-1.89,0-2.19v-4.33l4.42-3.22s-.47,6.59,3.87,9.95c1.05,1.18,2.63,3.15,3.31,4.58,1.86,3.09,2.65,5.47,2.66,8.99,0,1.46-.64,3.59,1.16,3.88.05.94,0,1.91,0,2.86-1.63.47-1.17,1.89-1.17,3.28v7.73c0,2.64.76,6.9-2.57,7.93-1.13.35-2.5.2-3.67.2h-17.99c-1.1,0-2.44-.31-2.63,1.15-1.12.01-2.24.02-3.36,0-.2-1.14-1.05-1.13-2.07-1.15-3.39-.08-6.03.87-7.5-2.95.04-.71,0-1.41,0-2.12v-21.25c0-.72-.07-1.51.04-2.22.5-3.13,3.92-8.38,5.88-10.76,4.11-2.8,3.78-9.07,4.26-10.15Z"/>
    <path class="cls-1" d="M59.65,37.73c1.86,3.09,2.65,5.47,2.66,8.99,0,1.46-.64,3.59,1.16,3.88.05.94,0,1.91,0,2.86-1.63.47-1.17,1.89-1.17,3.28v7.73c0,2.64.76,6.9-2.57,7.93-1.13.35-2.5.2-3.67.2h-17.99c-1.1,0-2.44-.31-2.63,1.15-1.12.01-2.24.02-3.36,0-.2-1.14-1.05-1.13-2.07-1.15-3.39-.08-6.03.87-7.5-2.95h29.91c2.65,0,6.51.49,7.14-3.13.18-1.04.1-2.17.1-3.22v-18.77c0-2.27-.04-4.55,0-6.82Z"/>
  </g>
  <path class="cls-2" d="M54.99,65.73h-24.93v-6.22c1.53-.8,5.22-3.26,5.67-8.35h13.59c.45,5.09,4.14,7.54,5.67,8.35v6.22Z"/>
  <path class="cls-3" d="M56.39,57.91c-.21-.08-5.07-2.12-5.07-7.77,0-.57-.46-1.03-1.03-1.03h-15.56c-.57,0-1.03.46-1.03,1.03,0,5.65-4.86,7.69-5.07,7.77-.39.16-.65.53-.65.95v7.89c0,.57.46,1.03,1.03,1.03h26.98c.57,0,1.03-.46,1.03-1.03v-7.89c0-.42-.26-.79-.64-.95ZM54.99,65.73h-24.93v-6.22c1.53-.8,5.22-3.26,5.67-8.35h13.59c.45,5.09,4.14,7.54,5.67,8.35v6.22Z"/>
</svg>