<?xml version="1.0" encoding="UTF-8"?>
<svg id="Capa_1" data-name="Capa 1" xmlns="http://www.w3.org/2000/svg" viewBox="0 0 85.04 85.04">
  <defs>
    <style>
      .cls-1 {
        fill: #2a932c;
      }

      .cls-2 {
        fill: #6baf58;
      }

      .cls-3 {
        fill: #154c08;
      }
    </style>
  </defs>
  <path class="cls-3" d="M22.77,54.94c.47-.04,1.03.1,1.22.6.31.81.63,3.93-.78,4.43-.45.05-.99-.1-1.18-.55-.31-.75-.65-3.94.74-4.47Z"/>
  <path class="cls-3" d="M36.17,74.45c-.2.91-.62,1.24-1.5,1.28-2.64.11-6.86.19-9.48-.03-4.1-.33-3.3-4.99-3.29-7.85,0-1.49-.6-3.99,1.06-4.5,1.5.36,1.17,1.28,1.17,2.56v4.21c0,3.08-.38,3.34,2.83,3.39h5.78c1.28,0,2.97-.5,3.44.93Z"/>
  <path class="cls-3" d="M62.36,60.4c1.34.35,1.03,1.66,1.02,2.73v6.24c0,1.12.14,2.65-.17,3.71-.9,3.07-3.86,2.66-6.29,2.66h-12.29c-.87,0-4.39.48-4.07-1.29.8-1.54,2.8-.93,4.47-.93h13.16c3.3.01,2.92-.75,2.92-3.5v-5.69c0-1.6-.62-3.62,1.25-3.93Z"/>
  <path class="cls-3" d="M21.89,36.45c-.89,1.24-1.02,2.9-2.49,3.69-1.85.99-3.47-.17-5.13-.92-3.97-1.81-4.75-1.9-2.82-6.63l2.03-4.92c1.72-4.16,1.9-6.77,6.46-9.03.75-.37,2.12-1.13,2.95-.82.58.21.88.99.65,1.55-.28.66-1.66.98-2.3,1.26-3.73,1.66-3.78,3.45-5.21,6.98-.59,1.45-1.22,2.87-1.78,4.33.83.3,1.64.75,2.44,1.14,1.24.38,2.33,1.22,3.58,1.6.85-1,1.63-5.58,3.44-4.03.69.59.37,3.16.4,4.03v13.8c0,.62.04,1.27-.02,1.88-.09.85-1.21,1.26-1.83.66-.54-.52-.38-1.43-.38-2.09v-12.47ZM13.4,33.99c-.25.51-.53,1.03-.69,1.59.07.19.14.38.23.57.7.24,1.36.57,2.04.85.09-.55.43-1.41.73-1.88-.75-.41-1.55-.74-2.32-1.12Z"/>
  <path class="cls-1" d="M15.72,35.11c1.01.5,2.36,1.12,3.3,1.69-.19.7-.51,1.17-1.16,1.5-.97-.33-1.96-.85-2.87-1.31.09-.55.43-1.41.73-1.88Z"/>
  <path class="cls-2" d="M30.2,14.54c1.04-2.25,2.66-4.43,5.09-5.29.45-.16,2.84.04,3.56.04h7.33c1.44,0,3.1-.32,4.42.33,2.14,1.06,3.47,3.18,4.63,5.17.77.39,1.63.63,2.45.9,3.59,1.2,10.37,3.43,12.14,6.56.4.71.65,1.52.92,2.29l2.97,8.07c.71,1.91,1.83,4.06-.5,5.6-.7.46-1.74.75-2.52,1.08-4.67,1.92-5.55,1.69-7.28-3.16-.05,1.57,0,3.16,0,4.74v12.87c.01,1.09.34,2.37-1.02,2.74.01,1.29-.08,2.62,0,3.91-1.86.31-1.26,2.33-1.26,3.93v5.69c0,2.75.38,3.51-2.91,3.5h-13.16c-1.67,0-3.67-.61-4.47.93-.23.08-4.3.02-4.39,0-.47-1.43-2.16-.93-3.44-.93h-5.78s0-3.15,0-3.15v-24.86c0-1.08-.03-2.17,0-3.26-.08-.68-.22-.92,0-1.62.06-1.19,0-2.4.01-3.59.02-2.22-.84-2.41-2.84-2.37-.03-.87.29-3.44-.4-4.03-1.81-1.55-2.59,3.03-3.44,4.03-1.25-.39-2.34-1.22-3.58-1.6.05-.71.71-2.02.99-2.72l1.22-3.05c2.13-5.31,3.19-5.31,8.53-7.32.88-.33,2.9-1.27,3.72-1.37l-.7-1.7c-.77.36-2.03,1.14-2.87.86-.61-.21-.94-.93-.72-1.53.26-.69,2.64-1.45,3.33-1.69ZM30.2,14.54c-.68.24-3.07,1.01-3.33,1.69-.23.6.1,1.33.72,1.53.84.28,2.1-.5,2.87-.86l.7,1.7c.73,1.3,2.84,4.87,4.3,5.3,1.57-.38,3.58-2.31,5.11-3,.32.36.69.68.98,1.06v6.25c0,.83-.3,2.92.35,3.55.73.71,1.79.14,1.9-.77.1-.82,0-2.15,0-3.01v-6.01c.37-.36.75-.71,1.13-1.06.83.61,4.16,3.1,5.02,2.95,1.65-.3,4.12-5.1,4.83-6.76,1.36.35,3.58,1.21,4.88,1.78.53.53,1.21.89,1.82,1.31,2.73,1.9,3.27,3.4,4.4,6.45.68,1.83,1.66,4.75,2.58,6.43-1.18.47-2.38.9-3.57,1.35-.38-.89-1.73-5.66-3.44-3.91-.44.45-.34,1.18-.33,1.75v20.45c0,1.2-.49,3.64,1.25,3.78,1.36-.37,1.03-1.66,1.03-2.74v-12.87c0-1.58-.05-3.16,0-4.74,1.73,4.85,2.61,5.08,7.28,3.16.79-.32,1.82-.61,2.52-1.08,2.34-1.54,1.21-3.69.5-5.6l-2.97-8.07c-.27-.77-.52-1.58-.92-2.29-1.77-3.13-8.54-5.36-12.14-6.56-.82-.27-1.67-.51-2.45-.9-1.16-1.99-2.49-4.11-4.63-5.17-1.32-.66-2.99-.34-4.42-.33h-7.33c-.71,0-3.11-.2-3.56-.04-2.43.85-4.04,3.04-5.09,5.29Z"/>
  <path class="cls-3" d="M50.64,27.81c.78,0,4.88-.11,5.26.11.44.26.61.73.75,1.19-.23.38-.59.82-1.03.94h-3.17c-.81,0-2.81.29-2.96-.9-.1-.79.42-1.27,1.15-1.34Z"/>
  <path class="cls-1" d="M55.22,49.18c.85-.05,1.2.4,1.43,1.17-.13.54-.42,1.03-.66,1.53-1.28,2.71-1.3,6-.34,8.8.34,1,1.7,2.99-.03,3.44-.91.13-1.33-.48-1.67-1.26-1.64-3.74-1.76-7.57-.27-11.38.33-.84.66-1.92,1.55-2.31Z"/>
  <path class="cls-1" d="M26.96,40.63c.32-.21.72-.54,1.14-.45.76.17,2.38,2.68,2.79,3.39,1.69,2.95,2.06,6.32,1.16,9.56-.35,1.25-1.64,3.15-2.55,1.33-.5-1.01,2.11-4.71-.52-9.57-.27-.51-1.51-2.48-2.03-2.64-.08-.68-.22-.92,0-1.62Z"/>
  <path class="cls-1" d="M26.96,70.37h24.93c1.72,0,4.87.52,5.61-1.42.34-.89.19-5.55.19-6.78v-24.35c0-2.98-.57-5.41,3.43-5.56v20.45c0,1.2-.49,3.64,1.25,3.78.01,1.29-.08,2.62,0,3.91-1.86.31-1.26,2.33-1.26,3.93v5.69c0,2.75.38,3.51-2.91,3.5h-13.16c-1.67,0-3.67-.61-4.47.93-.23.08-4.3.02-4.39,0-.47-1.43-2.16-.93-3.44-.93h-5.78s0-3.15,0-3.15Z"/>
  <path class="cls-3" d="M30.2,14.54c1.04-2.25,2.66-4.43,5.09-5.29.45-.16,2.84.04,3.56.04h7.33c1.44,0,3.1-.32,4.42.33,2.14,1.06,3.47,3.18,4.63,5.17.77.39,1.63.63,2.45.9,3.59,1.2,10.37,3.43,12.14,6.56.4.71.65,1.52.92,2.29l2.97,8.07c.71,1.91,1.83,4.06-.5,5.6-.7.46-1.74.75-2.52,1.08-4.67,1.92-5.55,1.69-7.28-3.16-.05,1.57,0,3.16,0,4.74v12.87c.01,1.09.34,2.37-1.02,2.74-1.75-.14-1.26-2.58-1.25-3.78v-20.45c-.01-.57-.11-1.31.33-1.75,1.7-1.75,3.06,3.02,3.44,3.91,1.19-.45,2.39-.88,3.57-1.35-.92-1.68-1.9-4.6-2.58-6.43-1.14-3.05-1.67-4.55-4.4-6.45-.61-.42-1.29-.78-1.82-1.31-1.3-.57-3.52-1.43-4.88-1.78-.71,1.67-3.18,6.47-4.83,6.76-.86.16-4.18-2.34-5.02-2.95-.38.35-.76.69-1.13,1.06v6.01c0,.87.09,2.19,0,3.01-.11.91-1.16,1.48-1.9.77-.65-.63-.35-2.72-.35-3.55v-6.25c-.3-.38-.66-.7-.98-1.06-1.53.69-3.55,2.61-5.11,3-1.45-.43-3.57-4-4.3-5.3l-.7-1.7c-.77.36-2.03,1.14-2.87.86-.61-.21-.94-.93-.72-1.53.26-.69,2.64-1.45,3.33-1.69ZM32.35,15.75c.54,1.22,1.55,3.47,2.51,4.38-.79-1.65-.49-3.19.6-4.67-.5-.94-.76-1.97-1.04-2.99-1.1.81-1.72,1.98-2.07,3.28ZM36.44,12.28l.08.3c.73,2.73,2.74,4.27,5.04,6.39.5.46,1.06.6,1.2.74.5-.44,1-.87,1.48-1.31.35.09,4.37-2.77,5.17-6.26l-12.99.14Z"/>
  <path class="cls-1" d="M71.72,34.22c.35.17.55,1.48.39,1.76-.28.52-1.88.93-2.41,1.14-.74.29-2.25,1.22-3,.79-.4-.42-.59-.91-.74-1.46,1.96-.55,3.89-1.44,5.76-2.23Z"/>
  <path class="cls-1" d="M35.45,15.46c.87,1.97,2.44,2.38,3.43,3.78-1.02.74-2.15,1.29-3.12,2.12-.24-.34-.75-.9-.91-1.23-.79-1.65-.49-3.19.6-4.67Z"/>
  <path class="cls-1" d="M51.13,12.86c.63.31,1.57,1.99,1.76,2.61-.39,1.85-1.95,4.5-3.26,5.9-.24-.17-.51-.31-.77-.45-.69-.64-1.59-1.02-2.26-1.67.75-.92,1.87-1.46,2.69-2.52,1.05-1.36,1.12-2.69,1.85-3.87Z"/>
  <path class="cls-1" d="M59.65,18.88c2.12.62,7.12,2.66,8.16,4.57,1.13,2.07,2.21,6.19,3.24,8.62-.88.3-1.73.69-2.6,1-.92-1.68-1.9-4.6-2.58-6.43-1.14-3.05-1.67-4.55-4.4-6.45-.61-.42-1.29-.78-1.82-1.31Z"/>
</svg>