<?xml version="1.0" encoding="UTF-8"?>
<svg id="Capa_1" xmlns="http://www.w3.org/2000/svg" version="1.1" viewBox="0 0 85 85">
  <!-- Generator: Adobe Illustrator 29.0.0, SVG Export Plug-In . SVG Version: 2.1.0 Build 186)  -->
  <defs>
    <style>
      .st0 {
        fill: #fff;
      }

      .st1 {
        fill: #6baf58;
      }

      .st2 {
        fill: #c8e2bf;
      }

      .st3 {
        fill: #154c08;
      }
    </style>
  </defs>
  <path class="st2" d="M83.4,37.1c0,18.7-33.2,42.5-52,42.5S10.9,58.2,10.9,39.5,30.8,4,49.6,4s33.9,14.4,33.9,33.1Z"/>
  <path class="st0" d="M46.6,56.6c-.8-.8-1.5-1.7-2.2-2.6h0c-.5-.6-1-1.2-1.5-1.8-.7-.8-1.3-1.6-2-2.5-.4-.5-.7-.9-1.1-1.4-.6-.8-1.2-1.6-1.8-2.3,0-.1-.2-.2-.3-.4-2.5-3.3-4.5-5.9-5.1-6.8l-.3-.3c0-.1,0-.1-.2-.2,0,0-.8-.7-1.6-4-.1-.5-.5-.8-1-.8-1.3,0-2.3.6-3,1.5-1.2,1.6-1,3.9-.8,5.3-1.9.4-3.7.7-5-.1-2.1-1.3-2.4-3.6-2.7-5.8-.2-1.9-.5-3.6-1.9-4.5-2.4-1.5-7.1,3.4-8.2,4.9-.1.2-.3.4-.4.5-2.6,4.3-3,6.6-3.1,7.3-.5,1-.7,2.1-.4,3.1.2.9.7,1.7,1.4,2.3l-.8,2.1c-.2.5,0,1,.4,1.2l2,1.2c.2,0,.3.1.5.1.3,0,.5-.1.7-.3l1.4-1.6.6.4-.7,2c-.2.5,0,1,.4,1.2l2,1.2c.2,0,.3.2.5.2.3,0,.5-.1.7-.3l1.5-1.6c.6.2,1.2.3,1.9.3.5,0,1,0,1.4.3l7.7,4.7c.4.2.8.6,1,1.1.4.8,1,1.5,1.7,1.9l1.4.8-.7,2c-.2.4,0,.9.4,1.2l2,1.2c.2,0,.3.2.5.2.3,0,.5-.1.7-.3l1.5-1.6,1.6,1-.7,2c-.2.4,0,.9.4,1.2l2,1.2c.2,0,.3.2.5.2.3,0,.5-.1.7-.3l1.5-1.6,1.6,1-.7,2c-.2.4,0,.9.4,1.2l2,1.2c.2,0,.3.2.5.2.3,0,.5-.1.7-.3l1.5-1.6c.7.3,1.4.5,2.1.5s.7,0,1.1-.1c1.2-.3,2.2-1,2.8-2,0-.2,2.4-4.1-.7-8.9-1.2-1.9-2.9-3.8-4.7-5.8h0Z"/>
  <path class="st0" d="M30.5,46.6c.2.3.4.7.7,1l-7.5,5.4-1.1-.7,8-5.7h0Z"/>
  <path class="st0" d="M20.6,51.2l-.6-.4-.5-.3,9.3-6.6c.2.3.4.7.6,1l-8.8,6.3Z"/>
  <path class="st0" d="M32.3,49.2c.2.3.5.6.7,1l-6.4,4.7-1.1-.7,6.8-4.9h0Z"/>
  <path class="st0" d="M34.3,51.7c.3.3.5.6.8.9l-5.5,4-1.1-.7s5.8-4.2,5.8-4.2Z"/>
  <path class="st0" d="M36.5,54c.3.3.7.5,1,.8l-4.9,3.6-1.1-.7s5.1-3.7,5.1-3.7Z"/>
  <path class="st0" d="M28,36.3c.2-.3.4-.4.7-.6.4,1.5.8,2.5,1.2,3.1-.6.3-1.4.7-2.4,1-.2-1.5,0-2.8.5-3.6h0Z"/>
  <path class="st0" d="M14.9,31.7c.6.4.8,1.6,1,3.1.3,2.4.7,5.4,3.6,7.2,2.4,1.5,5.6.6,7.5.1h0c.2,0,.4-.1.6-.2,0,0,0,.2.1.2l-10.1,7.2-5.1-3.1c1.8-3.8.7-8.4-2.6-11,1.7-1.9,4.3-3.8,4.9-3.6h0Z"/>
  <path class="st0" d="M6.4,42.2c0,0,0-.1,0-.2,0,0,0-.2,0-.3,0,0,0-.2,0-.3,0,0,0-.2,0-.3,0,0,0-.2.1-.3,0-.1,0-.2.1-.4,0-.1,0-.2.2-.3,0-.1.1-.3.2-.4,0-.1.1-.3.2-.4,0-.2.2-.3.2-.5,0-.1.2-.3.2-.5,0-.2.2-.4.3-.6,0-.2.2-.3.3-.5,0-.1.2-.3.2-.4,2.4,2,3.3,5.4,2,8.3l-4.5-2.7c0,0,0-.2,0-.4h0Z"/>
  <polygon class="st0" points="7.2 50.5 6.7 50.2 7 49.3 7.9 49.9 7.2 50.5"/>
  <polygon class="st0" points="12.2 53.6 11.6 53.2 11.9 52.3 12.8 52.9 12.2 53.6"/>
  <polygon class="st0" points="31.6 65.3 31 65 31.3 64.1 32.2 64.7 31.6 65.3"/>
  <polygon class="st0" points="37.6 69 37 68.6 37.3 67.7 38.2 68.3 37.6 69"/>
  <polygon class="st0" points="43.5 72.6 43 72.2 43.3 71.4 44.2 71.9 43.5 72.6"/>
  <path class="st0" d="M46.8,71.1l-.5-.3h0l-3-1.8h0l-14-8.5c-.4-.2-.8-.6-1-1.1-.4-.8-1-1.5-1.7-1.9l-7.7-4.7c-.7-.4-1.5-.7-2.3-.7h-.2c-.5,0-1,0-1.4-.4l-8.1-4.9c-.6-.3-1-.9-1.1-1.5,0-.3,0-.6,0-.9l25.8,15.6.5.3h0l17.4,10.5c-.8.6-1.8.6-2.7,0h0Z"/>
  <path class="st0" d="M50.5,69.3l-16.1-9.8,4.9-3.6c.8.4,1.5.6,2.2.6s1.3-.2,1.9-.6c.5.6,1.1,1.3,1.7,1.9,1.7,2,3.4,3.8,4.5,5.5,1.6,2.6,1.4,4.7,1,5.9h0Z"/>
  <path class="st0" d="M79.2,31.8l-4.8-3.3,2.1-6c1.6,2.8,2.5,5.9,2.7,9.2Z"/>
  <path class="st0" d="M75.2,20.4l-2.7,7.6-6.3,2.1-6.5-4.7v-6.7l6.7-5.1c3.5,1.4,6.6,3.8,8.8,6.8Z"/>
  <polygon class="st0" points="64.8 31.6 62.5 38.8 54.9 38.8 52.6 31.6 58.7 27.2 64.8 31.6"/>
  <path class="st0" d="M58.7,12.2c1.8,0,3.6.3,5.4.7l-5.4,4.1-5.4-4.1c1.7-.5,3.5-.8,5.4-.7Z"/>
  <path class="st0" d="M51,13.7l6.7,5.1v6.7l-6.4,4.7-6.3-2.1-2.7-7.5c2.2-3,5.3-5.4,8.8-6.9h0Z"/>
  <path class="st0" d="M40.8,22.6l2.1,5.8-4.7,3.2c.2-3.3,1.1-6.4,2.6-9Z"/>
  <path class="st0" d="M38.3,34.1l6-4.1,6.4,2.1,2.5,7.6-3.9,5.4-6.7.2c-2.4-3.1-3.9-6.9-4.2-11.1h0Z"/>
  <path class="st0" d="M44.2,47.2h4.8c0-.1,1.3,4.2,1.3,4.2-2.3-1-4.3-2.5-6.1-4.2Z"/>
  <path class="st0" d="M64.8,52.3c-1.9.6-3.9.9-6,.9s-4.2-.3-6.1-.9l-1.8-6.1,3.9-5.4h8l3.9,5.4-1.8,6.1h0Z"/>
  <path class="st0" d="M67.1,51.4l1.3-4.4h4.9c-1.8,1.9-3.9,3.4-6.2,4.4h0Z"/>
  <path class="st0" d="M75,45.2l-6.8-.2-3.9-5.4,2.5-7.6,6.3-2.1,6.1,4.2c-.3,4.1-1.8,7.9-4.2,11h0Z"/>
  <g>
    <g>
      <path class="st3" d="M46.6,56.6c-.8-.8-1.5-1.7-2.2-2.6h0c-.5-.6-1-1.2-1.5-1.8-.7-.8-1.3-1.6-2-2.5-.4-.5-.7-.9-1.1-1.4-.6-.8-1.2-1.6-1.8-2.3,0-.1-.2-.2-.3-.4-2.5-3.3-4.5-5.9-5.1-6.8l-.3-.3c0-.1,0-.1-.2-.2,0,0-.8-.7-1.6-4-.1-.5-.5-.8-1-.8-1.3,0-2.3.6-3,1.5-1.2,1.6-1,3.9-.8,5.3-1.9.4-3.7.7-5-.1-2.1-1.3-2.4-3.6-2.7-5.8-.2-1.9-.5-3.6-1.9-4.5-2.4-1.5-7.1,3.4-8.2,4.9-.1.2-.3.4-.4.5-2.6,4.3-3,6.6-3.1,7.3-.5,1-.7,2.1-.4,3.1.2.9.7,1.7,1.4,2.3l-.8,2.1c-.2.5,0,1,.4,1.2l2,1.2c.2,0,.3.1.5.1.3,0,.5-.1.7-.3l1.4-1.6.6.4-.7,2c-.2.5,0,1,.4,1.2l2,1.2c.2,0,.3.2.5.2.3,0,.5-.1.7-.3l1.5-1.6c.6.2,1.2.3,1.9.3.5,0,1,0,1.4.3l7.7,4.7c.4.2.8.6,1,1.1.4.8,1,1.5,1.7,1.9l1.4.8-.7,2c-.2.4,0,.9.4,1.2l2,1.2c.2,0,.3.2.5.2.3,0,.5-.1.7-.3l1.5-1.6,1.6,1-.7,2c-.2.4,0,.9.4,1.2l2,1.2c.2,0,.3.2.5.2.3,0,.5-.1.7-.3l1.5-1.6,1.6,1-.7,2c-.2.4,0,.9.4,1.2l2,1.2c.2,0,.3.2.5.2.3,0,.5-.1.7-.3l1.5-1.6c.7.3,1.4.5,2.1.5s.7,0,1.1-.1c1.2-.3,2.2-1,2.8-2,0-.2,2.4-4.1-.7-8.9-1.2-1.9-2.9-3.8-4.7-5.8h0ZM31.1,40.5l.3.4c.5.6,1.1,1.5,1.9,2.5.6.8,1.2,1.6,2,2.6.6.8,1.2,1.6,1.9,2.5l.5.7.2.3c1,1.3,2.1,2.6,3.2,4,0,0,0,0,0,0,.1.2.3.3.4.5,0,0,0,.1.2.2,0,0,.2.2.2.3-.6.3-1.2.1-2.4-.6h-.1c-.7-.5-1.5-1.1-2.2-1.9-.7-.6-1.3-1.4-2.1-2.3-.6-.8-1.2-1.6-1.9-2.5-.6-.9-1.2-1.7-1.7-2.6-.6-1-1.2-1.9-1.6-2.7-.1-.2-.3-.5-.4-.7.6-.3,1.2-.5,1.6-.8ZM30.5,46.6c.2.3.4.7.7,1l-7.5,5.4-1.1-.7,8-5.7h0ZM20.6,51.2l-.6-.4-.5-.3,9.3-6.6c.2.3.4.7.6,1l-8.8,6.3ZM32.3,49.2c.2.3.5.6.7,1l-6.4,4.7-1.1-.7,6.8-4.9h0ZM34.3,51.7c.3.3.5.6.8.9l-5.5,4-1.1-.7s5.8-4.2,5.8-4.2ZM36.5,54c.3.3.7.5,1,.8l-4.9,3.6-1.1-.7s5.1-3.7,5.1-3.7ZM28,36.3c.2-.3.4-.4.7-.6.4,1.5.8,2.5,1.2,3.1-.6.3-1.4.7-2.4,1-.2-1.5,0-2.8.5-3.6h0ZM14.9,31.7c.6.4.8,1.6,1,3.1.3,2.4.7,5.4,3.6,7.2,2.4,1.5,5.6.6,7.5.1h0c.2,0,.4-.1.6-.2,0,0,0,.2.1.2l-10.1,7.2-5.1-3.1c1.8-3.8.7-8.4-2.6-11,1.7-1.9,4.3-3.8,4.9-3.6h0ZM6.4,42.2c0,0,0-.1,0-.2,0,0,0-.2,0-.3,0,0,0-.2,0-.3,0,0,0-.2,0-.3,0,0,0-.2.1-.3,0-.1,0-.2.1-.4,0-.1,0-.2.2-.3,0-.1.1-.3.2-.4,0-.1.1-.3.2-.4,0-.2.2-.3.2-.5,0-.1.2-.3.2-.5,0-.2.2-.4.3-.6,0-.2.2-.3.3-.5,0-.1.2-.3.2-.4,2.4,2,3.3,5.4,2,8.3l-4.5-2.7c0,0,0-.2,0-.4h0ZM7.2,50.5l-.6-.4.3-.9.9.5-.6.7ZM12.2,53.6l-.6-.4.3-.9.9.5s-.6.7-.6.7ZM31.6,65.3l-.6-.4.3-.9.9.6s-.6.7-.6.7ZM37.6,69l-.6-.4.3-.9.9.5-.6.7h0ZM43.5,72.6l-.6-.4.3-.9.9.5-.6.7h0ZM46.8,71.1l-.5-.3h0l-3-1.8h0l-14-8.5c-.4-.2-.8-.6-1-1.1-.4-.8-1-1.5-1.7-1.9l-7.7-4.7c-.7-.4-1.5-.7-2.3-.7h-.2c-.5,0-1,0-1.4-.4l-8.1-4.9c-.6-.3-1-.9-1.1-1.5,0-.3,0-.6,0-.9l25.8,15.6.5.3h0l17.4,10.5c-.8.6-1.8.6-2.7,0h0ZM50.5,69.3l-16.1-9.8,4.9-3.6c.8.4,1.5.6,2.2.6s1.3-.2,1.9-.6c.5.6,1.1,1.3,1.7,1.9,1.7,2,3.4,3.8,4.5,5.5,1.6,2.6,1.4,4.7,1,5.9h0Z"/>
      <path class="st3" d="M58.7,10.2c-12.4,0-22.5,10.1-22.5,22.5s1.8,10,4.8,13.9c0,.2.2.3.3.4,2.6,3.1,6,5.5,9.8,6.9.2.2.4.2.7.2h0c2.2.7,4.5,1.1,6.8,1.1s4.7-.4,6.8-1.1c.2,0,.4,0,.6-.2,8.8-3.1,15.1-11.5,15.1-21.3s-10.1-22.5-22.5-22.5h0ZM79.2,31.8l-4.8-3.3,2.1-6c1.6,2.8,2.5,5.9,2.7,9.2ZM75.2,20.4l-2.7,7.6-6.3,2.1-6.5-4.7v-6.7l6.7-5.1c3.5,1.4,6.6,3.8,8.8,6.8ZM64.8,31.6l-2.3,7.2h-7.5l-2.3-7.2,6.1-4.4s6.1,4.4,6.1,4.4ZM58.7,12.2c1.8,0,3.6.3,5.4.7l-5.4,4.1-5.4-4.1c1.7-.5,3.5-.8,5.4-.7ZM51,13.7l6.7,5.1v6.7l-6.4,4.7-6.3-2.1-2.7-7.5c2.2-3,5.3-5.4,8.8-6.9h0ZM40.8,22.6l2.1,5.8-4.7,3.2c.2-3.3,1.1-6.4,2.6-9ZM38.3,34.1l6-4.1,6.4,2.1,2.5,7.6-3.9,5.4-6.7.2c-2.4-3.1-3.9-6.9-4.2-11.1h0ZM44.2,47.2h4.8c0-.1,1.3,4.2,1.3,4.2-2.3-1-4.3-2.5-6.1-4.2ZM64.8,52.3c-1.9.6-3.9.9-6,.9s-4.2-.3-6.1-.9l-1.8-6.1,3.9-5.4h8l3.9,5.4-1.8,6.1h0ZM67.1,51.4l1.3-4.4h4.9c-1.8,1.9-3.9,3.4-6.2,4.4h0ZM75,45.2l-6.8-.2-3.9-5.4,2.5-7.6,6.3-2.1,6.1,4.2c-.3,4.1-1.8,7.9-4.2,11h0Z"/>
    </g>
    <path class="st1" d="M75.2,20.4l-2.7,7.6-6.3,2.1-6.5-4.7v-6.7l6.7-5.1c3.5,1.4,6.6,3.8,8.8,6.8Z"/>
    <path class="st1" d="M51,13.7l6.7,5.1v6.7l-6.4,4.7-6.3-2.1-2.7-7.5c2.2-3,5.3-5.4,8.8-6.9h0Z"/>
    <path class="st1" d="M38.3,34.1l6-4.1,6.4,2.1,2.5,7.6-3.9,5.4-6.7.2c-2.4-3.1-3.9-6.9-4.2-11.1h0Z"/>
    <path class="st1" d="M64.8,52.3c-1.9.6-3.9.9-6,.9s-4.2-.3-6.1-.9l-1.8-6.1,3.9-5.4h8l3.9,5.4-1.8,6.1h0Z"/>
    <path class="st1" d="M75,45.2l-6.8-.2-3.9-5.4,2.5-7.6,6.3-2.1,6.1,4.2c-.3,4.1-1.8,7.9-4.2,11h0Z"/>
    <path class="st1" d="M20.6,51.2l-.6-.4-.5-.3,9.3-6.6c.2.3.4.7.6,1l-8.8,6.3Z"/>
    <path class="st1" d="M32.3,49.2c.2.3.5.6.7,1l-6.4,4.7-1.1-.7,6.8-4.9h0Z"/>
    <path class="st1" d="M36.5,54c.3.3.7.5,1,.8l-4.9,3.6-1.1-.7s5.1-3.7,5.1-3.7Z"/>
    <path class="st1" d="M30.5,46.6c.2.3.4.7.7,1l-7.5,5.4-1.1-.7,8-5.7h0Z"/>
    <path class="st1" d="M34.3,51.7c.3.3.5.6.8.9l-5.5,4-1.1-.7s5.8-4.2,5.8-4.2Z"/>
  </g>
</svg>