<?xml version="1.0" encoding="UTF-8"?>
<svg id="Capa_1" xmlns="http://www.w3.org/2000/svg" version="1.1" viewBox="0 0 85 85">
  <!-- Generator: Adobe Illustrator 29.0.0, SVG Export Plug-In . SVG Version: 2.1.0 Build 186)  -->
  <defs>
    <style>
      .st0 {
        fill: #fff;
      }
    </style>
  </defs>
  <path class="st0" d="M53.3,36.6c2,1.2,3.4,2.5,6,1.3,1.3-.6,2.1-1.7,3-2.8l5.2-6c1.6-1.8,3.3-3.4,2.1-6.1-1.2-2.5-4.4-3.2-6.4-1.4-1,.9-1.9,1.9-2.8,2.8l-2.3,2.4c-.6.6-1.2,1.1-1.7,1.8-3.8-2.3-7.7-4.6-12.2-5v-2.2c2.2-2.4,3.5-5.2,3.3-8.6-.2-3.7-4.6-6.3-7.9-5.7-7.2.3-8.7,7.4-4.9,12.8.4.5.9,1,1.2,1.5h0c0,.8,0,1.5,0,2.2-5.5.7-7.7,1.2-12.3,3.9l-3.8,2.2c-1.4.8-5.8,3.1-6.5,4.1-2.4,3.1,0,7.6,3.8,7.1,1.4-.2,1.8-1,2.9-1.5,3-1.5,6.3-3,9.4-4.3.3,2.6.5,5.2.6,7.8,0,1.8.1,1.8-.8,3.3-1.1,1.8-2,3.3-3.3,4.9-2.7,3.3-3.9,4.2-5.8,8.1-2.1,4.3-4.5,8.5-6.8,12.8-.6,1.2-1.8,2.7-1.7,4.1.3,2.9,4.6,2.3,6.6,2.1,1.5-.2,2.1-1.6,2.9-2.7l6.5-9.5c1.5-2.2,1.8-3.1,4.1-4.6,4.4-2.9,7.7-5.6,13.2-3.7,1.5.6,6.5,2.2,7.6,2.9.5.9.5,2,.7,3l1.2,6.1c.3,1.5,1,5.9,1.6,7,1,1.9,3.4,1.5,5.2,1.5,1.1,0,2.9.2,3.9-.2,1-.5,1.5-1.7,1-2.7-.4-.7-2.6-2.2-3.4-2.7,0-.9,0-1.8-.1-2.7l-.5-8.9c-.1-3.1-.3-5.4-2.8-7.6-3.2-2.8-7.1-4.8-9-8.7,0-2.9.5-6.2.6-9.2.8.3,1.6.6,2.4,1.1ZM65.8,22.9c1.1-.2,2.1.8,2.1,1.8,0,.9-.7,1.5-1.3,2.2l-.3-.2c-.8-.8-1.7-1.5-2.5-2.4.5-.7,1-1.2,1.9-1.4ZM35.1,14.6c-.5-3.2,1.3-4.8,4.3-5.2,2-.2,4.8.6,5.7,2.6,1.2,2.8-1.2,7.7-4.1,8.9-3.4.6-5.5-3.5-5.9-6.3ZM42.2,22.9c0,2.2-.3,2-1.2,4-.3.5-.6,1-.9,1.5-1.3-2.6-2.1-2.7-2-5.5h0c1.4.5,2.7.5,4.1,0ZM16.4,38.8c-1.2-.2-2.1-1.4-1.7-2.7.3-1.1,1.4-1.5,2.3-2h0c.3.1,1.6,3.1,1.8,3.5-.8.6-1.3,1.3-2.4,1.2ZM28.7,33.3c-.7.1-1.5.5-2.1.8l-3.4,1.5c-.8.3-1.5.7-2.3,1-.6-1.2-1.3-2.5-1.8-3.7,1.9-1,3.8-2.1,5.6-3.2,4.5-2.7,6.2-3,11.5-3.8h0c.3.2,2.3,4.2,2.7,4.8-.9,2-2.3,4.4-3.4,6.3l-1.8,3.4c-.5.8-.9,1.7-1.4,2.5.2-2.1-.2-4.5-.3-6.6-.2-2.5.2-5.2-3.3-3ZM53.8,51.7c1.1.9,4.2,3.2,5,4.2,1.4,1.8,1.2,4,1.4,6.1l.4,7.4c.3,4.5-.3,4.3,3.7,6.9h-3.3c-4,0-3-.5-3.8-4.4l-1.8-9c-.7-3.3-.2-3.5-3.5-4.8l-3.4-1.2c-4.2-1.5-7.6-3-12.1-.8-1.5.7-7.4,4.4-8.2,5.3-1.1,1.2-3.5,5.2-4.5,6.7l-4.1,5.9c-.5.7-.9,1.5-1.5,2.1-.6,0-3.9,0-4.3-.1,0-.5,7.5-14.4,8.4-16.1,1.6-3.2,2.8-4.2,5.1-7,1.7-2,3.1-4.2,4.4-6.6l.6.3c-.2,1.2-2,6.6-1.7,7.4.3.8,1.5.9,1.9,0,.6-1.3,1.3-4.7,1.8-6.2.8.9,3.8,4.8,4.6,5,.8.2,1.5-.8,1.1-1.5-.5-1-3-3.5-3.8-4.7,4-.2,8.4-.4,12.3-.4h0s0,0,0,0c2,3,2.2,3.1,5,5.3ZM48.9,33.5c-.5,2.7-.7,7.9-.8,10.7-2.1.2-4.3.1-6.4.2-2.6,0-5.2.3-7.8.3,3.3-6.3,6.8-12.5,10.1-18.8h0c4,.5,5.8,1.4,9.3,3.4,4.1,2.3,3,2.7,6.3-.6.9-.9,1.9-1.8,2.6-2.8,1,.7,2.1,1.9,3,2.8-1.4,1.1-3.4,3.7-4.7,5.1-3,3.5-2.8,2.6-6.4.7-.9-.5-1.9-.8-2.8-1.2-.7-.3-2.2-1.1-2.4.2Z"/>
</svg>