<?xml version="1.0" encoding="UTF-8"?>
<svg id="Capa_1" data-name="Capa 1" xmlns="http://www.w3.org/2000/svg" viewBox="0 0 85.04 85.04">
  <defs>
    <style>
      .cls-1 {
        fill: #fff;
      }

      .cls-2 {
        fill: #6baf58;
      }

      .cls-3 {
        fill: #c8e2bf;
      }
    </style>
  </defs>
  <path class="cls-3" d="M61.66,5.91c13.82,12.62,33.27,70.25,15.06,74.54C60.48,84.28.76,87.1.3,63.89-.08,45.07,47.84-6.7,61.66,5.91Z"/>
  <path d="M35.96,21.5c-.32-.55-.82-.99-1.18-1.51-3.8-5.39-2.32-12.49,4.88-12.78,3.37-.57,7.71,2.01,7.93,5.71.2,3.35-1.14,6.15-3.29,8.58,0,.74,0,1.49,0,2.23,4.54.34,8.43,2.64,12.23,4.96.51-.62,1.11-1.19,1.67-1.76l2.33-2.39c.93-.94,1.83-1.95,2.81-2.84,2.01-1.83,5.22-1.14,6.38,1.36,1.23,2.65-.53,4.29-2.11,6.08l-5.2,5.98c-.91,1.06-1.75,2.17-3.05,2.77-2.65,1.22-4.02-.13-6.02-1.3-.77-.45-1.58-.76-2.41-1.07-.09,3.01-.61,6.26-.59,9.19,1.94,3.92,5.83,5.94,9.03,8.72,2.5,2.16,2.7,4.51,2.85,7.59l.5,8.94c.05.91.06,1.83.13,2.74.76.52,2.97,1.97,3.35,2.7.54,1.03,0,2.24-.99,2.73-1.01.5-2.78.26-3.87.25-1.79,0-4.14.41-5.17-1.47-.64-1.17-1.33-5.56-1.62-7.03l-1.24-6.12c-.2-.96-.26-2.13-.72-3-1.09-.74-6.03-2.35-7.58-2.94-5.45-1.96-8.73.77-13.15,3.66-2.37,1.55-2.66,2.45-4.15,4.64l-6.46,9.5c-.75,1.13-1.36,2.51-2.88,2.69-2.03.23-6.36.78-6.62-2.11-.13-1.45,1.09-2.9,1.72-4.12,2.21-4.28,4.65-8.46,6.76-12.78,1.88-3.84,3.11-4.77,5.77-8.06,1.34-1.65,2.29-3.1,3.35-4.93.9-1.56.85-1.54.77-3.33-.12-2.6-.34-5.19-.62-7.78-3.1,1.33-6.37,2.88-9.4,4.34-1.13.54-1.56,1.31-2.94,1.49-3.88.52-6.26-4.06-3.85-7.13.78-.99,5.11-3.22,6.54-4.05l3.76-2.17c4.63-2.71,6.81-3.24,12.32-3.94-.05-.74,0-1.49,0-2.23Z"/>
  <path class="cls-2" d="M39.45,9.44c-3.04.43-4.8,2.05-4.33,5.2.42,2.8,2.46,6.88,5.89,6.26,2.94-1.18,5.3-6.02,4.12-8.86-.83-2-3.69-2.84-5.68-2.6Z"/>
  <path class="cls-2" d="M65.77,22.89c-.89.16-1.37.71-1.91,1.39.75.86,1.62,1.62,2.46,2.39l.29.24c.59-.62,1.33-1.24,1.29-2.17-.04-1.08-1.02-2.04-2.13-1.85Z"/>
  <path class="cls-2" d="M38.11,22.89c-.08,2.8.72,2.97,2,5.53.3-.5.58-1.01.9-1.5.9-1.98,1.22-1.81,1.19-4.02-1.4.47-2.68.47-4.09,0Z"/>
  <path class="cls-1" d="M36.16,25.89c-5.32.8-7.01,1.09-11.48,3.75-1.86,1.11-3.72,2.23-5.62,3.25.52,1.26,1.16,2.51,1.8,3.72.78-.24,1.53-.62,2.28-.96l3.38-1.53c.68-.31,1.4-.72,2.13-.85,3.51-2.22,3.06.53,3.27,2.99.17,2.1.49,4.55.33,6.62.55-.78.98-1.62,1.43-2.46l1.8-3.38c1.05-1.95,2.52-4.35,3.38-6.32-.36-.63-2.42-4.61-2.68-4.84Z"/>
  <path class="cls-1" d="M43.98,25.89c-3.27,6.32-6.81,12.49-10.07,18.81,2.6.03,5.21-.2,7.81-.3,2.14-.08,4.29-.04,6.42-.2.12-2.82.32-7.97.8-10.71.24-1.36,1.67-.56,2.4-.23.95.41,1.92.78,2.84,1.25,3.59,1.86,3.45,2.76,6.43-.71,1.21-1.4,3.29-4.01,4.65-5.14-.91-.86-2.02-2.1-3.03-2.79-.75,1.01-1.75,1.9-2.63,2.8-3.27,3.34-2.22,2.93-6.28.62-3.56-2.02-5.34-2.91-9.33-3.42Z"/>
  <path class="cls-2" d="M16.98,34.05c-.93.52-2,.9-2.32,2.03-.36,1.26.48,2.45,1.72,2.7,1.16.06,1.62-.55,2.42-1.2-.22-.44-1.55-3.4-1.81-3.53Z"/>
  <path class="cls-1" d="M48.75,46.42c-3.98,0-8.36.17-12.33.4.86,1.19,3.32,3.62,3.83,4.67.36.74-.31,1.72-1.14,1.54-.89-.19-3.88-4.17-4.65-5.03-.44,1.5-1.16,4.9-1.78,6.16-.38.78-1.58.72-1.93-.08-.32-.72,1.45-6.13,1.69-7.36l-.61-.31c-1.25,2.34-2.64,4.51-4.35,6.55-2.29,2.73-3.49,3.77-5.11,6.97-.88,1.73-8.49,15.62-8.43,16.08.4.21,3.7.17,4.34.13.57-.62.97-1.43,1.45-2.12l4.07-5.95c.99-1.52,3.35-5.49,4.47-6.72.85-.93,6.69-4.58,8.21-5.32,4.49-2.19,7.92-.77,12.1.77l3.36,1.24c3.23,1.23,2.79,1.5,3.47,4.78l1.81,9.03c.79,3.88-.24,4.42,3.75,4.42h3.25c-3.97-2.65-3.41-2.45-3.67-6.92l-.42-7.41c-.13-2.13.05-4.3-1.37-6.08-.75-.94-3.85-3.26-4.98-4.15-2.78-2.19-2.95-2.26-4.95-5.29l-.07-.02Z"/>
</svg>