<?xml version="1.0" encoding="UTF-8"?>
<svg id="Capa_1" xmlns="http://www.w3.org/2000/svg" version="1.1" viewBox="0 0 85 85">
  <!-- Generator: Adobe Illustrator 29.0.0, SVG Export Plug-In . SVG Version: 2.1.0 Build 186)  -->
  <defs>
    <style>
      .st0 {
        fill: #fff;
      }
    </style>
  </defs>
  <path class="st0" d="M78.4,56.9h0c.4,0,.8-.3.8-.8s-.3-.8-.8-.8h-24c.7-.4,1.5-.8,2.2-1.2,0,0,0,0,0,0,1.4-.9,2.6-1.9,3.8-3h18c.4,0,.8-.3.8-.8s-.3-.8-.8-.8h-16.5c3.8-4.4,6.2-10.1,6.2-16.3s-1.2-8.6-3.2-12.2c0-.2-.1-.4-.3-.5-2.3-3.8-5.6-7-9.5-9.2-.1-.1-.3-.2-.5-.3-3.4-1.7-7.2-2.7-11.2-2.7-9,0-16.9,4.9-21.2,12.1-.1.1-.2.3-.3.5-2,3.6-3.2,7.8-3.2,12.2s0,.5,0,.8h0c0,.2,0,.3,0,.5.3,5.7,2.6,11,6.1,15H6.7c-.4,0-.8.3-.8.8s.3.8.8.8h19.4c1.8,1.7,3.8,3.2,6,4.3H6.7c-.4,0-.8.3-.8.8s.3.8.8.8h2.3v6.6h-2.1c-.4,0-.8.3-.8.8s.3.8.8.8h2.1v2.8c0,.4.3.8.8.8s.8-.3.8-.8v-2.8h6.6v6.6h-2.7c-.4,0-.8.3-.8.8s.3.8.8.8h2.7v.4c0,.4.3.8.8.8s.8-.3.8-.8v-.4h6.6v1.8c0,.4.3.8.8.8s.8-.3.8-.8v-1.8h6.6v5c0,.4.3.8.8.8s.8-.3.8-.8v-5h6.6v5c0,.4.3.8.8.8s.8-.3.8-.8v-5h6.6v5c0,.4.3.8.8.8s.8-.3.8-.8v-5h6.6v1.8c0,.4.3.8.8.8s.8-.3.8-.8v-1.8h6.9v.4c0,.4.3.8.8.8s.8-.3.8-.8v-.4h2c.4,0,.8-.3.8-.8s-.3-.8-.8-.8h-2v-6.6h6.6v2.8c0,.4.3.8.8.8s.8-.3.8-.8v-2.8h2.8c.4,0,.8-.3.8-.8s-.3-.8-.8-.8h-2.8v-6.6h2.9ZM17,63.5h-6.6v-6.6h6.6v6.6ZM25.1,71.6h-6.6v-6.6h6.6v6.6ZM25.1,63.5h-6.6v-6.6h6.6v6.6ZM55.3,52.7c-1.9,1.2-4,2.1-6.2,2.7h0c-.6.2-1.1.3-1.7.4-.1,0-.3,0-.4,0-.6,0-1.2.2-1.8.2.1-.2.3-.5.4-.7h0c4.6-7.4,4.2-14.9-1.2-22.2,1.7-3.9,4-6.8,7-8.7,0,0,0,0,0,0h0s0,0,0,0c5.1,5,7.9,15.9,5.2,25.1h0c-.2.5-.3,1-.5,1.5h0c-.2.5-.4,1.1-.7,1.6ZM66.1,33.3c0,6.4-2.6,12.2-6.9,16.3h-.8c2.6-9.5-.2-20.6-5.4-26,2.9-1.3,6.3-1.7,10.2-1.3,1.8,3.3,2.9,7,2.9,11.1ZM62,20.2h0c-4.2-.2-7.8.5-10.9,2.2,0,0,0,0,0,0-3.6,2-6.4,5.3-8.4,9.9-4.3.5-7.9,0-10.9-1.7,2-7.7,11.6-16.6,22.4-17.6,3.2,1.7,5.9,4.1,7.9,7.1ZM43.2,10.5h0c2.7,0,5.2.5,7.5,1.3-10,2.2-18.6,10.5-20.8,18-2.6-1.8-4.7-4.6-6.3-8.2,4-6.6,11.3-11,19.5-11ZM20.4,33.3c0-3.5.8-6.8,2.2-9.8h0c3.6,7.3,9.4,10.9,17.2,10.9s2,0,3-.2c2.6,3.5,3.9,6.9,4,10.4-7.7,2.1-20.2-1.8-26.4-10.6,0-.2,0-.5,0-.8ZM27.3,49.6c-3.3-3.2-5.6-7.4-6.5-12.1,5.7,6.2,14.5,9.6,21.6,9.6s3-.2,4.4-.5c-.1,1-.3,2-.6,3h0c-.2.5-.3,1-.5,1.5-.7,1.7-1.6,3.3-2.9,5-.6,0-1.1,0-1.7-.1-.2,0-.5,0-.7,0-.3,0-.5,0-.8-.1-.7-.1-1.4-.3-2.1-.4-3.2-.8-6-2.3-8.5-4.3h0c-.6-.5-1.2-1-1.7-1.5ZM33.2,71.6h-6.6v-6.6h6.6v6.6ZM33.2,63.5h-6.6v-6.6h6.6v6.6ZM41.3,71.6h-6.6v-6.6h6.6v6.6ZM34.7,63.5v-6.6h1c1.8.6,3.6.9,5.6,1.1v5.5h-6.6ZM49.4,71.6h-6.6v-6.6h6.6v6.6ZM42.8,63.5v-5.4c.1,0,.3,0,.4,0,2.1,0,4.2-.3,6.2-.8v6.2h-6.6ZM57.5,71.6h-6.6v-6.6h6.6v6.6ZM57.5,63.5h-6.6v-6.6h6.6v6.6ZM59,56.9h6.9v6.6h-6.9v-6.6ZM65.9,71.6h-6.9v-6.6h6.9v6.6ZM74,63.5h-6.6v-6.6h6.6v6.6Z"/>
</svg>