<?xml version="1.0" encoding="UTF-8"?>
<svg id="Capa_1" data-name="Capa 1" xmlns="http://www.w3.org/2000/svg" viewBox="0 0 85.04 85.04">
  <defs>
    <style>
      .cls-1 {
        fill: #fff;
      }

      .cls-2 {
        fill: #6baf58;
      }

      .cls-3 {
        fill: #c8e2bf;
      }

      .cls-4 {
        fill: #154c08;
      }
    </style>
  </defs>
  <path class="cls-3" d="M16.08,2.03c18.2-4.36,71.98,20.91,65.32,38.4-5.94,15.59-64.46,58.8-72.66,37.08C2.13,60.01-2.12,6.39,16.08,2.03Z"/>
  <g>
    <path class="cls-4" d="M6.66,51.14h71.72c.41,0,.75-.34.75-.75s-.34-.75-.75-.75H6.66c-.41,0-.75.34-.75.75s.34.75.75.75Z"/>
    <path class="cls-4" d="M78.38,56.92c.41,0,.75-.34.75-.75s-.34-.75-.75-.75H6.66c-.41,0-.75.34-.75.75s.34.75.75.75h2.29v6.59h-2.14c-.41,0-.75.34-.75.75s.34.75.75.75h2.14v2.83c0,.41.34.75.75.75s.75-.34.75-.75v-2.83h6.59v6.6h-2.7c-.41,0-.75.34-.75.75s.34.75.75.75h2.7v.37c0,.41.34.75.75.75s.75-.34.75-.75v-.37h6.6v1.78c0,.41.34.75.75.75s.75-.34.75-.75v-1.78h6.59v5.03c0,.41.34.75.75.75s.75-.34.75-.75v-5.03h6.59v5.03c0,.41.34.75.75.75s.75-.34.75-.75v-5.03h6.6v5.03c0,.41.34.75.75.75s.75-.34.75-.75v-5.03h6.59v1.78c0,.41.34.75.75.75s.75-.34.75-.75v-1.78h6.87v.37c0,.41.34.75.75.75s.75-.34.75-.75v-.37h2.01c.41,0,.75-.34.75-.75s-.34-.75-.75-.75h-2.01v-6.6h6.6v2.83c0,.41.34.75.75.75s.75-.34.75-.75v-2.83h2.75c.41,0,.75-.34.75-.75s-.34-.75-.75-.75h-2.75v-6.59h2.89ZM26.64,56.92h6.59v6.59h-6.59v-6.59ZM25.14,63.51h-6.6v-6.59h6.6v6.59ZM34.73,56.92h6.59v6.59h-6.59v-6.59ZM42.82,56.92h6.6v6.59h-6.6v-6.59ZM50.92,56.92h6.59v6.59h-6.59v-6.59ZM59.01,56.92h6.87v6.59h-6.87v-6.59ZM10.44,63.51v-6.59h6.59v6.59h-6.59ZM18.54,71.61v-6.6h6.6v6.6h-6.6ZM26.64,71.61v-6.6h6.59v6.6h-6.59ZM34.73,71.61v-6.6h6.59v6.6h-6.59ZM42.82,71.61v-6.6h6.6v6.6h-6.6ZM50.92,71.61v-6.6h6.59v6.6h-6.59ZM65.89,71.61h-6.87v-6.6h6.87v6.6ZM73.99,63.51h-6.6v-6.59h6.6v6.59Z"/>
  </g>
  <g>
    <path class="cls-4" d="M18.52,34.14c-.04.16-.03.33.02.49.69,13.05,11.49,23.46,24.71,23.46,0,0,0,0,0,0,0,0,0,0,0,0,0,0,0,0,0,0,4.88,0,9.42-1.44,13.26-3.88.04-.02.07-.04.1-.06,6.85-4.41,11.41-12.09,11.41-20.83,0-4.42-1.18-8.57-3.22-12.17-.04-.19-.15-.36-.3-.49-2.3-3.84-5.58-7.03-9.53-9.16-.14-.14-.32-.22-.53-.26-3.37-1.72-7.17-2.7-11.2-2.7-9.03,0-16.92,4.87-21.25,12.1-.15.13-.25.29-.29.48-2.05,3.6-3.23,7.76-3.23,12.19,0,.28.03.55.04.82ZM20.79,37.59c5.68,6.21,14.47,9.56,21.64,9.56,1.54,0,3.01-.16,4.35-.47-.32,3.14-1.66,6.29-4,9.49-10.94-.23-20.01-8.16-21.99-18.58ZM58.14,50.64c3.1-9.75.25-21.36-5.1-27.05,2.87-1.3,6.27-1.74,10.2-1.33,1.82,3.28,2.87,7.05,2.87,11.06,0,6.92-3.1,13.12-7.98,17.32ZM43.25,10.45c2.65,0,5.18.48,7.55,1.31-9.99,2.22-18.59,10.49-20.81,17.97-2.58-1.85-4.66-4.6-6.27-8.24,4.02-6.6,11.26-11.03,19.53-11.03Z"/>
    <g>
      <path class="cls-2" d="M20.79,37.59c5.68,6.21,14.47,9.56,21.64,9.56,1.54,0,3.01-.16,4.35-.47-.32,3.14-1.66,6.29-4,9.49-10.94-.23-20.01-8.16-21.99-18.58Z"/>
      <path class="cls-2" d="M58.14,50.64c3.1-9.75.25-21.36-5.1-27.05,2.87-1.3,6.27-1.74,10.2-1.33,1.82,3.28,2.87,7.05,2.87,11.06,0,6.92-3.1,13.12-7.98,17.32Z"/>
      <path class="cls-2" d="M43.25,10.45c2.65,0,5.18.48,7.55,1.31-9.99,2.22-18.59,10.49-20.81,17.97-2.58-1.85-4.66-4.6-6.27-8.24,4.02-6.6,11.26-11.03,19.53-11.03Z"/>
      <path class="cls-1" d="M51.31,24.54c5.7,5.58,8.56,18.42,4.01,28.18-3,1.87-6.45,3.07-10.16,3.38,5.04-7.63,4.76-15.32-.81-22.89,1.72-3.95,4.03-6.84,6.97-8.67Z"/>
      <path class="cls-1" d="M61.98,20.24c-4.2-.22-7.84.54-10.92,2.24-.02,0-.03.02-.05.02-3.59,2-6.4,5.31-8.41,9.92-4.26.48-7.89-.07-10.93-1.68,1.95-7.72,11.61-16.63,22.35-17.59,3.18,1.71,5.9,4.14,7.95,7.08Z"/>
      <path class="cls-1" d="M22.59,23.57c3.65,7.27,9.42,10.94,17.19,10.94.97,0,1.98-.07,3.01-.18,2.57,3.47,3.91,6.91,4.03,10.36-7.68,2.14-20.23-1.8-26.42-10.6,0-.25-.04-.5-.04-.76,0-3.49.81-6.79,2.22-9.75Z"/>
    </g>
  </g>
</svg>