<?xml version="1.0" encoding="UTF-8"?>
<svg id="Capa_1" xmlns="http://www.w3.org/2000/svg" version="1.1" viewBox="0 0 85 85">
  <!-- Generator: Adobe Illustrator 29.0.0, SVG Export Plug-In . SVG Version: 2.1.0 Build 186)  -->
  <defs>
    <style>
      .st0 {
        fill: #fff;
      }

      .st1 {
        fill: #6baf58;
      }

      .st2 {
        fill: #c8e2bf;
      }

      .st3 {
        fill: #154c08;
      }
    </style>
  </defs>
  <path class="st2" d="M82.3,71.1c-2.9,23-63.2,6.7-72.6-7.1C-.8,48.6,25.2,1.1,43.9,1.1s40.8,51.5,38.4,70Z"/>
  <g>
    <g>
      <path class="st3" d="M23.2,75.6c3.8,0,6.9-3.1,6.9-6.9h-13.7c0,3.8,3.1,6.9,6.9,6.9Z"/>
      <path class="st3" d="M61.7,75.6c3.8,0,6.9-3.1,6.9-6.9h-13.7c0,3.8,3.1,6.9,6.9,6.9Z"/>
      <path class="st1" d="M13.1,54.2l-.3-1.9c-1.3-7.9-1.1-15.8.6-23.6l2-8.9h8.1l-.8,1.2c-.3.4-.5,1-.5,1.5v.8c0,1.5,1.2,2.7,2.7,2.7h18.7v.7c.6,7.7,5.7,14.3,12.9,16.8l10.5,3.7c2.7.9,4.5,3.4,4.7,6.2v.8c0,0-58.7,0-58.7,0h0Z"/>
      <path class="st3" d="M12.1,41.4c0,3.7.2,7.3.8,11l.3,1.9h10.6c-.4-6.6-5.4-11.9-11.8-12.8Z"/>
      <rect class="st0" x="11.6" y="54.2" width="61.8" height="5.3" rx="2.2" ry="2.2"/>
      <path class="st0" d="M74.1,65.8l-2.1-6.3h-5.3c0,2.1-1.7,3.8-3.8,3.8h-12.3c-2.1,0-3.8-1.7-3.8-3.8s-8.4,0-8.4,0c0,2.1-1.7,3.8-3.8,3.8h-12.3c-2.1,0-3.8-1.7-3.8-3.8s-5.3,0-5.3,0l-2.1,6.3c-.5,1.4.6,2.9,2.1,2.9h58.7c1.5,0,2.6-1.5,2.1-2.9Z"/>
      <path class="st0" d="M39.8,19.9v-3.9c0-1.3-.6-2.6-1.6-3.4-.3-.3-.7-.5-1.2-.7l-1.6-.7,3.5-1.4c.4-.2.9-.3,1.3-.3.8,0,1.7.3,2.3.9.7.7,1.1,1.6,1.1,2.6v7h-3.8Z"/>
      <path class="st1" d="M15.3,19.9v-.8c.2-2.6,2.1-4.8,4.8-5.2l14.5-2.4c.2,0,.4,0,.6,0,2.1,0,4,1.4,4.5,3.7,0,.3,0,.6,0,.8v4s-24.5,0-24.5,0Z"/>
      <path class="st3" d="M45.1,20.9v4.2c0,.5-.3,1-.8,1h-20.1c-1.1,0-2-1.1-2-2.5v-1c0-1.4.9-2.5,2-2.5h20.1c.4,0,.8.4.8,1h0Z"/>
      <path class="st3" d="M32.3,33.8l6.9,7.8c3.8,4.3,9.3,6.7,15.1,6.6l14.4-.2-12.1-4.5c-6.1-2.3-10.8-7.3-12.6-13.6l-.2-.7c-3.8.2-7.6,2.1-11.5,4.6h0Z"/>
      <path class="st0" d="M24.4,40c-.6,0-1.2,0-2-.3l-10.3-2.3v-.7c.3-2.8.7-5.5,1.3-8l2-8.9h8.1l-.8,1.2c-.3.4-.5,1-.5,1.5v.8c0,1.5,1.2,2.7,2.7,2.7h18.7v.7c.1.6.2,1.1.2,1.6v.8c.1,0-.6.1-.6.1-5.4.9-10,3.4-13.7,7.5l-.3.3c-1.8,2-2.8,3.1-4.8,3.1h0Z"/>
    </g>
    <g>
      <path class="st0" d="M23.5,54.3c-1-6-5.6-10.7-11.6-11.8l.3-2c6.8,1.2,12.2,6.6,13.3,13.4l-2,.3h0Z"/>
      <path class="st3" d="M71.2,60.6H13.7c-1.7,0-3.1-1.4-3.1-3.1v-1.1c0-1.7,1.4-3.1,3.1-3.1h57.6c1.7,0,3.1,1.4,3.1,3.1v1.1c0,1.7-1.4,3.1-3.1,3.1ZM13.7,55.2c-.6,0-1.1.5-1.1,1.1v1.1c0,.6.5,1.1,1.1,1.1h57.6c.6,0,1.1-.5,1.1-1.1v-1.1c0-.6-.5-1.1-1.1-1.1H13.7Z"/>
      <path class="st3" d="M72,69.7H13.2c-1,0-2-.5-2.6-1.3-.6-.8-.8-1.9-.4-2.9l2.1-6.3,1.9.6-2.1,6.3c-.1.4,0,.8.2,1.1s.6.5,1,.5h58.8c.4,0,.8-.2,1-.5s.3-.7.2-1.1l-2.1-6.3,1.9-.6,2.1,6.3c.3,1,.2,2-.4,2.9s-1.6,1.3-2.6,1.3h0Z"/>
      <path class="st3" d="M12.2,54.5l-.3-1.9c-1.3-8-1.1-16.1.6-24l2-8.9,2,.4-2,8.9c-1.7,7.7-1.9,15.5-.6,23.2l.3,1.9-2,.3h0Z"/>
      <path class="st3" d="M25.3,20.9h-10.9v-1.5c0-3.2,2.4-6,5.6-6.4l14.5-2.4c1.6-.2,3.2.2,4.4,1.3s1.9,2.6,1.9,4.2v3.9h-2v-3.9c0-1-.4-2-1.2-2.7-.8-.7-1.8-1-2.8-.8l-14.5,2.4c-2.1.3-3.7,2-3.9,4h8.9v2h0Z"/>
      <path class="st3" d="M44.6,19.9h-2v-7.1c0-.8-.4-1.5-1.1-2s-1.5-.5-2.2-.2l-4.5,1.9-.8-1.9,4.5-1.9c1.4-.6,2.9-.4,4.1.4,1.2.8,2,2.2,2,3.7v7.1Z"/>
      <path class="st3" d="M43.6,27h-18.7c-2,0-3.7-1.6-3.7-3.7v-.8c0-2,1.6-3.7,3.7-3.7h18.7c1.4,0,2.5,1.1,2.5,2.5v3.1c0,1.4-1.1,2.5-2.5,2.5ZM24.9,20.9c-.9,0-1.7.8-1.7,1.7v.8c0,.9.8,1.7,1.7,1.7h18.7c.3,0,.5-.2.5-.5v-3.1c0-.3-.2-.5-.5-.5,0,0-18.7,0-18.7,0Z"/>
      <path class="st3" d="M24.5,41.1c-.6,0-1.4,0-2.2-.3l-10.1-2.3.4-2,10.1,2.3c3,.7,3.6,0,5.9-2.5l.3-.3c4-4.4,8.9-7,14.7-7.9l.3,2c-5.4.8-9.8,3.1-13.5,7.2l-.3.3c-1.9,2.1-3.1,3.4-5.5,3.4Z"/>
      <rect class="st0" x="39.3" y="34.6" width="6.6" height="2" transform="translate(-12.8 31.4) rotate(-35.5)"/>
      <rect class="st0" x="43.6" y="38.4" width="4.9" height="2" transform="translate(-13.5 50.7) rotate(-51.3)"/>
      <rect class="st0" x="48" y="41.5" width="4.5" height="2" transform="translate(-12 63.7) rotate(-59)"/>
      <path class="st3" d="M68.8,49.1h-14.5c-6,0-11.8-2.6-15.9-7.1l-6.9-7.7,1.5-1.3,6.9,7.7c3.7,4.1,8.9,6.4,14.4,6.4h14.5v2h0Z"/>
      <path class="st3" d="M23.2,76.7c-4.3,0-7.9-3.5-7.9-7.9h2c0,3.2,2.6,5.9,5.9,5.9s5.9-2.6,5.9-5.9h2c0,4.3-3.5,7.9-7.9,7.9Z"/>
      <path class="st3" d="M61.7,76.7c-4.3,0-7.9-3.5-7.9-7.9h2c0,3.2,2.6,5.9,5.9,5.9s5.9-2.6,5.9-5.9h2c0,4.3-3.5,7.9-7.9,7.9Z"/>
      <path class="st3" d="M34.6,64.4h-12.3c-2.6,0-4.8-2.1-4.8-4.8h2c0,1.5,1.2,2.8,2.8,2.8h12.3c1.5,0,2.8-1.3,2.8-2.8h2c0,2.7-2.1,4.8-4.8,4.8Z"/>
      <path class="st3" d="M62.8,64.4h-12.3c-2.6,0-4.8-2.2-4.8-4.8h2c0,1.5,1.2,2.8,2.8,2.8h12.3c1.5,0,2.8-1.2,2.8-2.8h2c0,2.6-2.1,4.8-4.8,4.8Z"/>
      <rect class="st3" x="14.6" y="64.7" width="2.3" height="2"/>
      <rect class="st3" x="68" y="64.7" width="2.3" height="2"/>
      <path class="st3" d="M72.8,54.2h-2v-.2c0-2.6-1.6-4.9-4.1-5.8l-10.5-3.7c-7.9-2.8-13.3-10-13.6-18.4h2c.3,7.5,5.1,14,12.3,16.5l10.5,3.7c3.2,1.1,5.4,4.2,5.4,7.6v.2h0Z"/>
    </g>
  </g>
</svg>