<?xml version="1.0" encoding="UTF-8"?>
<svg id="Capa_1" xmlns="http://www.w3.org/2000/svg" version="1.1" viewBox="0 0 85 85">
  <!-- Generator: Adobe Illustrator 29.0.0, SVG Export Plug-In . SVG Version: 2.1.0 Build 186)  -->
  <defs>
    <style>
      .st0 {
        fill: #fff;
      }
    </style>
  </defs>
  <path class="st0" d="M75.2,65.5l-1.9-5.7c.7-.6,1.1-1.4,1.1-2.3v-1.1c0-1.2-.7-2.2-1.6-2.7,0-3.3-2.2-6.3-5.4-7.4l-10.5-3.7c-7-2.4-11.7-8.7-12.3-15.9.9-.4,1.5-1.2,1.5-2.3v-3.1c0-1-.6-1.9-1.5-2.3v-6.2c0-1.5-.8-2.9-2-3.7-1.2-.8-2.7-1-4.1-.4l-4.5,1.9h0c0,0-14,2.4-14,2.4-3.2.4-5.6,3.2-5.6,6.4v.7l-1.9,8.5c-1.7,7.9-1.9,16-.6,24l.2,1.2c-.9.5-1.5,1.5-1.5,2.6v1.1c0,1.1.6,2,1.4,2.6l-1.8,5.4c-.4,1-.2,2.1.4,2.9.6.8,1.6,1.3,2.6,1.3h2.2c.5,4,3.8,7,7.8,7s7.4-3.1,7.8-7h22.8c.5,4,3.8,7,7.8,7s7.4-3.1,7.8-7h2.7c1,0,2-.4,2.6-1.3.6-.9.7-1.9.4-2.9ZM13.7,58.5c-.6,0-1.1-.5-1.1-1.1v-1.1c0-.6.5-1.1,1.1-1.1h57.6c.6,0,1.1.5,1.1,1.1v1.1c0,.6-.5,1.1-1.1,1.1H13.7ZM65.4,60.6c-.4,1.1-1.4,1.8-2.6,1.8h-12.3c-1.2,0-2.2-.8-2.6-1.8h17.5ZM37.2,60.6c-.4,1-1.4,1.8-2.6,1.8h-12.3c-1.2,0-2.2-.8-2.6-1.8h17.5ZM70.7,53.3H25.4c-1.3-6.2-6.1-11.2-12.3-12.6,0-.7,0-1.3,0-2l9.1,2.1c.8.3,1.6.3,2.2.3h0c2.4-.1,3.6-1.4,5.5-3.5l.3-.3c.6-.7,1.3-1.4,2-2l6,6.7c4.1,4.5,9.9,7.1,15.9,7.1h14.1c1.3,1,2.2,2.5,2.4,4.2ZM16.3,20.9h5.3c-.2.5-.4,1-.4,1.6v.8c0,2.1,1.7,3.7,3.7,3.7h17.8c0,.4,0,.8.1,1.3-5.4,1-10.1,3.5-13.9,7.7l-.3.3c-2.3,2.5-2.9,3.2-5.9,2.5l-9.4-2.1c.2-2.6.6-5.1,1.2-7.7l1.8-8.1ZM51.7,42.2l-1.6,2.7-1.7-1,1.7-2.9c.5.4,1.1.8,1.6,1.2ZM47.8,38.9l-2.5,3.1-1.6-1.3,2.7-3.4c.4.6.8,1.1,1.3,1.6ZM45.1,35.1l-4.6,3.3-1.2-1.6,4.9-3.5c.3.6.6,1.2.9,1.8ZM39.3,10.6c.7-.3,1.5-.3,2.2.2s1.1,1.2,1.1,2v6h-1.8v-2.7c0-1.6-.7-3.1-1.9-4.2-.3-.3-.6-.5-1-.7l1.4-.6ZM20.3,15l14.5-2.4c1-.2,2,0,2.8.8.8.7,1.2,1.7,1.2,2.7v2.7h-13.9c-.4,0-.8,0-1.2.2h-7.3c.2-2,1.8-3.7,3.9-4ZM73.1,67.2c-.2.3-.6.5-1,.5H13.3c-.4,0-.8-.2-1-.5s-.3-.7-.2-1.1l1.8-5.5h3.7c.5,2.2,2.4,3.8,4.7,3.8h12.3c2.4,0,4.3-1.6,4.7-3.8h6.5c.5,2.1,2.4,3.8,4.7,3.8h12.3c2.3,0,4.2-1.7,4.7-3.8h3.8c0,0,.1,0,.2,0l1.8,5.5c.1.4,0,.8-.2,1.1Z"/>
  <rect class="st0" x="14.6" y="64.7" width="2.3" height="2"/>
  <rect class="st0" x="68" y="64.7" width="2.3" height="2"/>
</svg>