<?xml version="1.0" encoding="UTF-8"?>
<svg id="Capa_1" data-name="Capa 1" xmlns="http://www.w3.org/2000/svg" viewBox="0 0 85.04 85.04">
  <defs>
    <style>
      .cls-1 {
        fill: #1f8e20;
      }

      .cls-2 {
        fill: #6baf58;
      }

      .cls-3 {
        fill: #154c08;
      }
    </style>
  </defs>
  <path class="cls-3" d="M14.44,16.14c1.97.07.99,2.94-.32,3.26-.65,0-1.01-.32-1.23-.93.19-.82.65-2.08,1.54-2.32Z"/>
  <path class="cls-3" d="M67.41,14.83c.41-.52,1.08-1.07,1.74-.54.27.22,2.47,3.09,2.7,3.48.63,1.04-.02,1.78-1.13,1.77-.62-.37-3.39-4-3.31-4.71Z"/>
  <path class="cls-3" d="M23.65,69.75l-.06-.05c-1.72-1.6-1.08-5.68-1.08-7.96,0-.88-.33-3.12.35-3.78.48-.47,1.38-.29,1.66.31.26.55.15,1.47.15,2.06v4.67c-.01,2.96-.47,3.82,2.82,3.87,1.5,0,3.44-.58,3.78,1.2-.48,1.55-2.55.9-3.78.97,0,.91,0,1.81,0,2.72.83-.15,1.26,0,1.54.81-.26,1.37-.94,1.25-2.19,1.24-1.09-.02-1.99-.02-2.89-.72-1.81-1.4-1.61-3.67-.29-5.33ZM25.63,71.03c-1.12.62-1.27,2.22.15,2.57.54.13,1.15.04,1.71.15,0-.91,0-1.81,0-2.72-.62,0-1.25-.03-1.86,0Z"/>
  <path class="cls-3" d="M70.72,22.59c2.29-.9,1.65,2.71,1.65,3.96,0,2.35.69,5.7-2.15,6.69-1.78.62-5.55-.08-7.61.19v3.52c0,1.15.37,2.57-1.17,2.78-1.02-.62-.92-1.27-.92-2.33v-9.77c.05-.57.02-1.14,0-1.72.29-.44.55-.65,1.07-.77.48.16.73.36,1.02.77-.02,1.51-.14,3.94,0,5.4h4.79c2.76,0,2.83.31,2.83-2.58v-3.36c0-.98-.17-1.99.48-2.79Z"/>
  <path class="cls-3" d="M22.51,33.44h-4.74c-5.18,0-5.18-.95-5.18-5.44v-4.04c.02-2.06,1.89-1.61,2.09-.44.11.67.04,1.45.03,2.12v3.45c0,1.05-.23,1.6.7,2.24.86-.05,1.72,0,2.58,0h4.52v-3.64c0-.4-.07-.83-.04-1.22.05-.86,1.89-2.34,2.2.83,0,.28-.02.56,0,.84-.07,2.09,0,4.21,0,6.31v17.44c0,.69.06,1.44,0,2.13-.09.95-1.3,1.48-1.94.66-.43-.56-.21-2.35-.21-3.03v-18.19Z"/>
  <path class="cls-3" d="M30.89,11.39c-1.25-.02-2.51,0-3.76,0-2.91,0-2.43-.34-4.88,1.01-1.26.69-2.52,1.4-3.79,2.09-1.67.89-2.51-.8-1.6-1.58.7-.6,4.99-2.81,6.17-3.41.88-.44,1.81-.27,2.75-.27h8.72c2.54,0,2.21-.39,3.42,1.87,1.85,3.47,6.84,3.62,8.93.27.41-.65.63-1.95,1.5-2.07,1.01-.13,2.06-.07,3.08-.07l5.5.02c.97,0,3.19-.14,4.06.03.59.12,1.7,1.06,2.32,1.39,1.23.65,3.48.85,2.09,2.74-1.73.46-3.43-1.07-4.85-1.87l-.04-.02c-.02.22-.04.42,0,.64-2.14,0-4.29.04-6.44,0-4.17,11.05-18.71,11.5-23.04,0l-.16-.78ZM33.56,11.52h-.48c2.79,8.57,14.36,9.2,18.09,1.89.35-.61.66-1.23.89-1.89h-2.81c-1.82,3.82-6.02,5.67-9.95,3.77-1.54-.75-3.03-2.1-3.54-3.77-.73,0-1.46,0-2.2,0ZM54.28,11.52c-.06.21-.11.44-.19.64,2.14.04,4.29,0,6.44,0-.04-.22-.02-.42,0-.64h-4.06c-.73,0-1.46.03-2.19,0Z"/>
  <path class="cls-2" d="M60.53,11.52l.04.02c1.42.8,3.11,2.33,4.85,1.87.67.07,1.72.76,2,1.42-.08.7,2.69,4.34,3.31,4.71.06.31.03,2.67,0,3.05-.66.81-.49,1.81-.49,2.79v3.36c.01,2.89-.07,2.57-2.82,2.58h-4.79c-.14-1.46-.02-3.89,0-5.4-.29-.41-.54-.61-1.02-.77-.52.12-.78.33-1.07.77.02.57.05,1.15,0,1.72v9.77c0,1.06-.1,1.71.92,2.33.04.41.05,2.76,0,3.14,1.93.17,1.17,4.51,1.17,6.08v15.57c0,2.06.28,3.87-1.17,5.54,1.34,1.34,1.37,3.44,0,4.78-1.33,1.31-3.41.96-5.12.96h-16.91c-1.94,0-3.89.03-5.83,0-.87-.01-1.58-.21-1.6-1.24-.28.04-2.67.05-2.97,0-.28-.82-.71-.96-1.54-.81,0-.91,0-1.81,0-2.72,1.24-.07,3.3.58,3.78-.97-.35-1.78-2.29-1.2-3.78-1.2.04-.98,0-1.98,0-2.97V30.14c0-1.23.1-3.08-1.86-2.65-.39.18-.63.4-.97.64-.02-.28,0-.56,0-.84-.31-3.17-2.15-1.69-2.2-.83-.02.39.04.82.04,1.22v3.64h-4.52c-.05-.4,0-.84,0-1.24v-6.33c0-4.06.52-7.21,4.08-9.93,2.38-1.83,3.87-1.66,6.66-1.66.77,0,1.56-.1,2.33,0,4.33,11.5,18.87,11.05,23.04,0,2.14.04,4.29,0,6.44,0-.04-.22-.02-.42,0-.64ZM40.43,29.4c-3.73.14-5.57,3.67-3,6.04,1.05.97,2.2.94,3.55.94.03.94,0,1.88,0,2.81v5.31c0,2.47-.48,5.43,2.69,6.13.98.14,1.87.04,2.68-.56,1.75-1.29,1.39-3.27,1.39-5.17v-10.28c0-.83.08-1.72-.05-2.54-.36-2.42-2.69-2.68-4.6-2.68h-2.67Z"/>
  <path class="cls-1" d="M29.4,49.11c1.32-.1,4.42,3.18,1.65,3.8-1.12.07-4.5-2.95-1.65-3.8Z"/>
  <path class="cls-1" d="M56.48,15.73c2.79-.16.52,3.73-.82,4.25-.88.14-1.75-.66-1.36-1.57.27-.62,1.43-2.4,2.18-2.69Z"/>
  <path class="cls-1" d="M32.9,54.76c1.55.02,2.36,3.88.37,4.63-1.47.19-1.3-1.24-1.35-2.22-.06-1.11-.43-2.15.99-2.41Z"/>
  <path class="cls-1" d="M31.27,61.61c2.81-.17.46,3.47-1.34,4.08-.98.1-1.85-.7-1.35-1.72.16-.33,2.31-2.24,2.69-2.37Z"/>
  <path class="cls-1" d="M51.82,21.47c.66-.04,1.12.2,1.29.87.46,1.78-5.02,3.77-6.2,4.06-1.18.14-1.9-1.39-.89-2.13.38-.28,1.2-.39,1.67-.55,1.96-.66,2.67-1.6,4.13-2.25Z"/>
  <path class="cls-3" d="M35.76,68.96h13.42c.61,0,1.44-.17,1.98.19.89.58.48,1.74-.47,1.88-3.19.04-6.38,0-9.57,0h-3.02c-.84,0-3.03.29-3.27-.87-.13-.65.34-1.09.94-1.2Z"/>
  <path class="cls-1" d="M60.53,11.52l.04.02c1.42.8,3.11,2.33,4.85,1.87.67.07,1.72.76,2,1.42-.08.7,2.69,4.34,3.31,4.71.06.31.03,2.67,0,3.05-.66.81-.49,1.81-.49,2.79v3.36c.01,2.89-.07,2.57-2.82,2.58-.46-.14-.27-2.8-.27-3.3v-5.23c0-3.85.29-4.25-2.51-6.81l-2.1-1.92c-.67-.62-1.31-1.31-2.02-1.9-.04-.22-.02-.42,0-.64Z"/>
  <path class="cls-1" d="M57.87,68.96v-35.87c0-1.16-.36-4.71.48-5.54.63-.63,1.59-.54,2.18.09v9.77c0,1.06-.1,1.71.92,2.33.04.41.05,2.76,0,3.14-1.33.62-.93,2.24-.92,3.54v19.41c0,2.05-.05,3.69-2.66,3.13Z"/>
  <path class="cls-3" d="M61.45,42.87c1.93.17,1.17,4.51,1.17,6.08v15.57c0,2.06.28,3.87-1.17,5.54,1.34,1.34,1.37,3.44,0,4.78-1.33,1.31-3.41.96-5.12.96h-16.91c-1.94,0-3.89.03-5.83,0-.87-.01-1.58-.21-1.6-1.24.67-1.29,2.01-.82,3.35-.81h22.52s0-2.72,0-2.72c.27.01.54,0,.81,0-.68.09-3.04.08-3.81,0-.77-.07-1-1-.58-1.56.65-.84,2.62-.4,3.57-.53,2.6.56,2.66-1.09,2.66-3.13v-19.41c0-1.3-.41-2.92.92-3.54Z"/>
  <path class="cls-3" d="M58.68,71.03c1.02.2,1.47.48,1.84,1.44-.67,1.39-1.25,1.28-2.66,1.28v-2.72c.27.01.54,0,.81,0Z"/>
  <path class="cls-3" d="M40.43,29.4h2.67c1.91,0,4.24.25,4.6,2.67.12.82.05,1.71.05,2.54v10.28c0,1.9.35,3.88-1.39,5.17-.81.6-1.71.7-2.68.56-3.17-.7-2.69-3.66-2.69-6.13v-5.31c0-.94.03-1.88,0-2.81-1.35,0-2.49.03-3.55-.94-2.57-2.37-.73-5.9,3-6.04ZM39.96,31.59c-1.31.11-2.1,1.51-.87,2.4,1.08.78,3.05-.48,3.97.85.05,2.95,0,5.9,0,8.85v2.26c0,1.12-.18,2.08,1.03,2.61,2.16.15,1.55-2.93,1.55-4.41v-10.04c0-2.45.04-2.53-2.72-2.53h-2.95Z"/>
</svg>