<?xml version="1.0" encoding="UTF-8"?>
<svg id="Capa_1" xmlns="http://www.w3.org/2000/svg" version="1.1" viewBox="0 0 85 85">
  <!-- Generator: Adobe Illustrator 29.0.0, SVG Export Plug-In . SVG Version: 2.1.0 Build 186)  -->
  <path d="M14.4,16.1c2,0,1,2.9-.3,3.3-.6,0-1-.3-1.2-.9.2-.8.6-2.1,1.5-2.3h0Z"/>
  <path d="M67.4,14.8c.4-.5,1.1-1.1,1.7-.5.3.2,2.5,3.1,2.7,3.5.6,1,0,1.8-1.1,1.8-.6-.4-3.4-4-3.3-4.7Z"/>
  <path d="M23.6,69.7h0c-1.7-1.7-1.1-5.7-1.1-8s-.3-3.1.4-3.8c.5-.5,1.4-.3,1.7.3.3.5.1,1.5.1,2.1v4.7c0,3-.5,3.8,2.8,3.9,1.5,0,3.4-.6,3.8,1.2-.5,1.6-2.5.9-3.8,1v2.7c.8-.2,1.3,0,1.5.8-.3,1.4-.9,1.2-2.2,1.2-1.1,0-2,0-2.9-.7-1.8-1.4-1.6-3.7-.3-5.3h0ZM25.6,71c-1.1.6-1.3,2.2.1,2.6.5.1,1.1,0,1.7.2v-2.7c-.6,0-1.2,0-1.9,0Z"/>
  <path d="M70.7,22.6c2.3-.9,1.7,2.7,1.7,4,0,2.4.7,5.7-2.2,6.7-1.8.6-5.6,0-7.6.2v3.5c0,1.2.4,2.6-1.2,2.8-1-.6-.9-1.3-.9-2.3v-9.8c0-.6,0-1.1,0-1.7.3-.4.5-.6,1.1-.8.5.2.7.4,1,.8,0,1.5-.1,3.9,0,5.4h4.8c2.8,0,2.8.3,2.8-2.6v-3.4c0-1-.2-2,.5-2.8h0Z"/>
  <path d="M22.5,33.4h-4.7c-5.2,0-5.2-1-5.2-5.4v-4c0-2.1,1.9-1.6,2.1-.4.1.7,0,1.5,0,2.1v3.5c0,1-.2,1.6.7,2.2.9,0,1.7,0,2.6,0h4.5v-3.6c0-.4,0-.8,0-1.2,0-.9,1.9-2.3,2.2.8,0,.3,0,.6,0,.8,0,2.1,0,4.2,0,6.3v17.4c0,.7,0,1.4,0,2.1,0,1-1.3,1.5-1.9.7-.4-.6-.2-2.3-.2-3v-18.2h0Z"/>
  <path d="M30.9,11.4c-1.2,0-2.5,0-3.8,0-2.9,0-2.4-.3-4.9,1-1.3.7-2.5,1.4-3.8,2.1-1.7.9-2.5-.8-1.6-1.6.7-.6,5-2.8,6.2-3.4.9-.4,1.8-.3,2.8-.3h8.7c2.5,0,2.2-.4,3.4,1.9,1.8,3.5,6.8,3.6,8.9.3.4-.6.6-1.9,1.5-2.1,1-.1,2.1,0,3.1,0h5.5c1,0,3.2-.1,4.1,0,.6.1,1.7,1.1,2.3,1.4,1.2.6,3.5.9,2.1,2.7-1.7.5-3.4-1.1-4.8-1.9h0c-6.5-.4-6.2,0-6.4.6-4.2,11.1-18.7,11.5-23,0l-.2-.8h0ZM33.6,11.5h-.5c2.8,8.6,14.4,9.2,18.1,1.9.3-.6.7-1.2.9-1.9h-2.8c-1.8,3.8-6,5.7-10,3.8-1.5-.8-3-2.1-3.5-3.8h-2.2Z"/>
  <path d="M35.8,69h13.4c.6,0,1.4-.2,2,.2.9.6.5,1.7-.5,1.9-3.2,0-6.4,0-9.6,0h-3c-.8,0-3,.3-3.3-.9-.1-.7.3-1.1.9-1.2h0Z"/>
  <path d="M61.5,42.9c1.9.2,1.2,4.5,1.2,6.1v15.6c0,2.1.3,3.9-1.2,5.5,1.3,1.3,1.4,3.4,0,4.8-1.3,1.3-3.4,1-5.1,1h-16.9c-1.9,0-3.9,0-5.8,0-.9,0-1.6-.2-1.6-1.2.7-1.3,2-.8,3.4-.8h22.5v-2.7c.3,0,.5,0,.8,0-.7,0-3,0-3.8,0-.8,0-1-1-.6-1.6.7-.8,2.6-.4,3.6-.5,2.6.6,2.7-1.1,2.7-3.1v-19.4c0-1.3-.4-2.9.9-3.5h0Z"/>
  <path d="M40.4,29.4h2.7c1.9,0,4.2.2,4.6,2.7.1.8,0,1.7,0,2.5v10.3c0,1.9.3,3.9-1.4,5.2-.8.6-1.7.7-2.7.6-3.2-.7-2.7-3.7-2.7-6.1v-5.3c0-.9,0-1.9,0-2.8-1.3,0-2.5,0-3.5-.9-2.6-2.4-.7-5.9,3-6h0ZM40,31.6c-1.3.1-2.1,1.5-.9,2.4,1.1.8,3-.5,4,.8,0,3,0,5.9,0,8.9v2.3c0,1.1-.2,2.1,1,2.6,2.2.2,1.5-2.9,1.5-4.4v-10c0-2.5,0-2.5-2.7-2.5h-3Z"/>
</svg>