<?xml version="1.0" encoding="UTF-8"?>
<svg id="Capa_1" xmlns="http://www.w3.org/2000/svg" version="1.1" viewBox="0 0 85 85">
  <!-- Generator: Adobe Illustrator 29.0.0, SVG Export Plug-In . SVG Version: 2.1.0 Build 186)  -->
  <defs>
    <style>
      .st0 {
        fill: #fff;
      }
    </style>
  </defs>
  <g>
    <path class="st0" d="M14.5,47.6c1.7,0,.7,4.2.5,4.6-.2.3-.5.4-.8.5-.4,0-.9-.2-1-.6-.2-.6,0-4.1,1.3-4.4h0Z"/>
    <path class="st0" d="M16.9,30.9c1.9-.1.8,3.1.6,4.1l-.9,6.2c-.2,1.4,0,3.5-1.2,4-1.9,0-1-2.2-.9-3.2l.9-5.8c.2-1.4.2-5,1.5-5.4h0Z"/>
    <path class="st0" d="M67.6,30.9c1.9-.9,1.7,1.9,1.9,3.2l1.3,9.6c.2,1.3.8,2.7-.7,3.1-1.2-.2-1.1-2-1.3-3.1l-1.3-9.7c0-.9-.7-2.5,0-3.2h0Z"/>
    <path class="st0" d="M73.7,65.6l-1.7-11.9c-.2-1.4,0-4.1-1.6-4.3-1.6.4-.5,3.9-.3,5.1l.9,6.2c.2,1.4.5,2.8.6,4.2-1,0-2,0-3,.2-.7.2-1.6,0-2.3.2l-13.1.8c-1.6,0-3.2.3-4.8.3l-3-12.1c-.5-2.1-1.1-4.2-1.6-6.4-.2-.7-.4-1.1-1-1.5-1.7.2-1.9,3.8-2.3,5.4l-3,11.9c-.2.9-.5,1.8-.7,2.6h0c-.9,0-2.4,0-3.3-.2-1,0-2,0-3,0l-4.4-.3c-3.3-.2-6.6-.4-10-.7-.9,0-1.7,0-2.6,0,.3-1.6,1.2-7.6,1.1-9.1-.2-.4-.5-.6-1-.7-.6.2-.9.4-1,1-.3,1.8-.5,3.7-.7,5.5l-.4,3.5c-.3,2.2-.8,4.3,1.3,5.7,1,.7,2.4.6,3.6.6l14.4.8c1,0,3.5.3,4.3,0,2.8-.6,2.9-3.6,3.5-5.9.6-2.4,1.2-4.8,1.8-7.1l1.3-5.3c.3-1,.4-2.1,1-3.1,0,1.3.5,2.6.8,3.8l1.7,6.9c.6,2.2,1.1,4.4,1.7,6.6,1.2,4.5,2.1,4.3,6.1,4.1,2.8,0,5.5-.3,8.3-.5l6-.3c2.6,0,6.2.2,6.6-3.4,0-.8,0-1.8-.2-2.6ZM13.1,67h0c.8,0,1.8,0,2.6,0,0,.4-.2,2.4-.4,2.6-2-.2-2.6-.7-2.2-2.7ZM32.4,70.7h0c-.8,0-1.6-.2-2.5-.2l-12.7-.8h-1.9c.1-.2.3-2.2.4-2.6,1.1,0,2.3,0,3.4,0l3.1.2c3.4.2,7.4.3,10.7.7h0c1,0,2.2,0,3.2.2-.5,3-1.2,2.3-3.7,2.3h0ZM69.2,69.6h0c-1.5,0-3.1.2-4.6.3l-12.2.8c-2.3.2-3,.2-3.4-2.3h0c4.7-.4,9.5-.6,14.2-.9l3.7-.2c.7,0,1.4,0,2.1-.2.5,0,2.7-.2,2.9,0,.7,1.8-1.2,2.5-2.6,2.5h0Z"/>
    <path class="st0" d="M19.5,56.8c.6,0,.8,0,1.1.6.1,1,0,5-1.2,5.5h0c-1.9,0-.8-2.4-.7-3.7.1-.9-.2-2,.8-2.4h0Z"/>
    <path class="st0" d="M55.7,27.3c.8-2.4,2.8.5,3.6,1.3,1.6,1.6,3.1,3.2,4.7,4.7.6.7,2.9,2.1,1.6,3.2-.3.2-.7.2-1.1,0-.2-.3-1.1-1-1.4-1.3l-4.6-4.7c-.8-.8-2.5-2.2-2.9-3.2h.1Z"/>
    <path class="st0" d="M20,34.2h0c.7-.6,1.3-1.3,1.9-1.9l3.6-3.7c.6-.6,1.3-1.4,2-2,.9-.7,2.1.5,1.2,1.6-.7.8-1.5,1.6-2.3,2.4l-3.5,3.5c-.9,1-2,2.4-3.2,2.8-1.9-.8-.3-1.9.3-2.7h0Z"/>
  </g>
  <path class="st0" d="M16.6,27.4c.1.5.6.6,1,.7,1.4-.4,1.1-2,1.3-3.4l.5-3.1h46.1c.4,1.2.5,3,.7,4.3,0,.4,0,.9.2,1.3,0,.1,0,.2,0,.3.2.2.4.4.8.5.4-.1.7-.4.9-.8,0-1-.5-3.7-.7-4.8-.4-2.5-.3-4.4-.3-6.9s.4-2.7-.8-3h-3.7c-.5,0-.8.4-.9.9h-3.1c0-1.4-2.8-.9-3.9-.9H20.3c-.7,0-2-.2-2.5.4-.5.7-.2,6.2-.3,7.5-.1,1.5-1.1,6.2-1,7h.1ZM19.5,14.4h2.2v5.4h-2.2v-5.4Z"/>
</svg>