<?xml version="1.0" encoding="UTF-8"?>
<svg id="Capa_1" data-name="Capa 1" xmlns="http://www.w3.org/2000/svg" viewBox="0 0 85.04 85.04">
  <defs>
    <style>
      .cls-1 {
        fill: #2e8325;
      }

      .cls-2 {
        fill: #6baf58;
      }

      .cls-3 {
        fill: #154c08;
      }
    </style>
  </defs>
  <path class="cls-2" d="M70.94,60.73l-.88-6.17c-.18-1.21-1.25-4.72.31-5.09.02-.8-.07-1.9-.33-2.65-1.21-.23-1.13-2.03-1.28-3.07l-1.29-9.68c-.11-.93-.66-2.46.1-3.19.02-.79-.15-2.12-.26-2.94-1.09-.14-1.07-1.2-1.2-2.07-.19-1.26-.34-3.11-.7-4.28-.77-.09-2.04,0-2.87,0h-13.13s0,0,0,0h-2.27c-.4,0-.81-.02-1.21,0h-2.71c-.49,0-.98-.01-1.47,0h-4.6c-3.28-.02-6.56.01-9.84,0h-3.85c-.56,0-1.2-.08-1.75,0-.22.83-.28,1.69-.39,2.54l-1,7.13c-.12.82-.42,2.09-.32,2.88-.59.81-2.23,1.89-.33,2.74-.31,1.24-.39,2.58-.57,3.85l-3,22.23c-.08.69-.19,1.41-.18,2.1,3.32.31,6.64.47,9.96.7l4.41.27c1.01.06,2.02.15,3.03.15.89.19,2.39.17,3.33.17.18-.89.45-1.76.67-2.64l3.03-11.9c.41-1.59.59-5.11,2.32-5.35.68.3.8.79,1.03,1.45.57,2.11,1.08,4.24,1.62,6.36l3.01,12.08c1.59,0,3.21-.16,4.8-.27l13.06-.83c.73-.05,1.59-.02,2.3-.18,1.02-.08,2.03-.13,3.05-.18-.12-1.39-.39-2.79-.59-4.17Z"/>
  <g>
    <path class="cls-3" d="M14.46,47.63c1.73-.09.69,4.21.49,4.56-.17.31-.46.42-.78.51-.4-.03-.89-.2-1.01-.63-.18-.64-.06-4.09,1.29-4.44Z"/>
    <path class="cls-3" d="M16.89,30.89c1.89-.15.78,3.08.62,4.12l-.94,6.25c-.21,1.36.06,3.47-1.25,4.01-1.85.11-1.02-2.15-.87-3.16l.89-5.81c.22-1.39.21-5.02,1.55-5.42Z"/>
    <path class="cls-3" d="M67.57,30.89c1.94-.87,1.72,1.94,1.89,3.19l1.28,9.63c.18,1.33.85,2.65-.7,3.12-1.21-.23-1.13-2.03-1.28-3.07l-1.29-9.68c-.12-.93-.66-2.46.1-3.19Z"/>
    <path class="cls-3" d="M36.66,66.36c.18-.89.45-1.76.67-2.64l3.03-11.9c.41-1.59.59-5.11,2.32-5.35.68.3.8.79,1.03,1.45.57,2.11,1.08,4.24,1.62,6.36l3.01,12.08c1.59,0,3.21-.16,4.8-.27l13.06-.83c.73-.05,1.59-.02,2.3-.18,1.02-.08,2.03-.13,3.05-.18-.12-1.39-.39-2.79-.59-4.17l-.88-6.17c-.18-1.21-1.25-4.72.31-5.09,1.62.17,1.38,2.85,1.59,4.28l1.7,11.88c.11.84.34,1.8.23,2.64-.44,3.6-4.02,3.31-6.63,3.45l-6,.34c-2.78.17-5.55.38-8.33.51-4,.19-4.83.42-6.07-4.1-.6-2.18-1.1-4.38-1.66-6.56l-1.72-6.87c-.3-1.24-.77-2.54-.82-3.82-.58.92-.7,2.03-.97,3.06l-1.34,5.28c-.59,2.37-1.23,4.74-1.79,7.12-.55,2.32-.67,5.27-3.49,5.89-.8.18-3.38-.07-4.34-.13l-14.41-.85c-1.17-.07-2.57.05-3.6-.62-2.18-1.41-1.64-3.57-1.35-5.72l.45-3.51c.24-1.84.38-3.72.7-5.55.1-.61.35-.87.96-1.03.45.09.73.26.96.66.09,1.5-.83,7.59-1.12,9.15.87-.03,1.72.08,2.59.08,3.32.31,6.64.47,9.96.7l4.41.27c1.01.06,2.02.15,3.03.15.89.19,2.39.18,3.33.17ZM13.12,66.96c-.42,2.05.22,2.49,2.2,2.71.15-.18.3-2.16.36-2.57-.79-.18-1.75-.24-2.56-.15Z"/>
    <path class="cls-1" d="M68.88,67.11c.52.01,2.68-.21,2.94,0,.68,1.79-1.23,2.45-2.63,2.48-.12-.82-.27-1.65-.31-2.48Z"/>
    <path class="cls-1" d="M32.95,68.15c1.04.08,2.16.08,3.19.23-.53,3.03-1.17,2.27-3.75,2.35.09-.1.49-2.3.56-2.58Z"/>
    <path class="cls-2" d="M15.69,67.11c1.1-.11,2.27.02,3.37.11l3.14.21c3.44.21,7.36.26,10.76.73-.07.28-.48,2.49-.56,2.58-.82-.13-1.64-.16-2.47-.21l-12.69-.78c-.64-.04-1.27-.1-1.91-.07.15-.18.3-2.16.36-2.57Z"/>
    <path class="cls-2" d="M48.9,68.38c4.72-.35,9.46-.58,14.18-.89l3.68-.22c.7-.04,1.42-.07,2.12-.16.04.83.19,1.66.31,2.48-1.53.02-3.08.22-4.61.32l-12.25.75c-2.27.15-3.01.17-3.43-2.27Z"/>
    <path class="cls-3" d="M19.52,56.81c.57-.05.81.1,1.08.61.13,1.05.06,5.02-1.2,5.51h-.05c-1.86-.08-.81-2.42-.68-3.69.1-.93-.18-1.98.84-2.43Z"/>
    <path class="cls-3" d="M55.68,27.29c.8-2.36,2.83.45,3.63,1.26,1.56,1.57,3.09,3.18,4.69,4.71.59.74,2.93,2.12,1.6,3.17-.3.24-.71.21-1.05.1-.16-.27-1.08-1.03-1.36-1.32l-4.62-4.68c-.82-.83-2.48-2.16-2.88-3.24Z"/>
    <path class="cls-3" d="M20,34.16l.03-.03c.66-.56,1.26-1.25,1.86-1.86l3.64-3.68c.64-.65,1.29-1.43,2.03-1.97.9-.66,2.1.46,1.17,1.56-.71.83-1.53,1.61-2.31,2.39l-3.49,3.5c-.94.95-2.05,2.42-3.25,2.85-1.9-.85-.27-1.93.33-2.74Z"/>
    <path class="cls-1" d="M33.33,66.2c.59-3.23,1.58-6.5,2.39-9.68l1.24-4.82c.35-1.38.82-4.05,1.63-5.2,2.3-3.25,6.05.29,5.12,1.42-.23-.66-.35-1.15-1.03-1.45-1.72.25-1.91,3.76-2.32,5.35l-3.03,11.9c-.22.88-.48,1.75-.67,2.64-.94,0-2.44.03-3.33-.17Z"/>
    <path class="cls-1" d="M62.54,21.6c.84,0,2.11-.09,2.87,0,.36,1.16.5,3.02.7,4.28.13.87.11,1.92,1.2,2.07.11.82.27,2.15.26,2.94-.76.73-.22,2.26-.1,3.19l1.29,9.68c.15,1.04.07,2.84,1.28,3.07.26.75.35,1.85.33,2.65-1.56.37-.48,3.88-.31,5.09l.88,6.17c.2,1.38.47,2.78.59,4.17-1.02.05-2.04.1-3.05.18-.27-2.08-.61-4.15-.91-6.22l-2.88-20.78c-.06-.48-.2-1.06-.16-1.54.35.11.75.14,1.05-.1,1.33-1.06-1-2.44-1.6-3.17-.34-1.56-.44-3.78-.65-5.43l-.57-4.18c-.09-.66-.24-1.38-.23-2.04Z"/>
  </g>
  <path class="cls-3" d="M16.58,27.36c.1.5.57.64,1,.74,1.44-.39,1.13-1.99,1.34-3.38l.48-3.11c.69,0,1.65.08,2.31,0,.55-.07,1.19,0,1.75,0h2.57s1.28,0,1.28,0c3.28,0,6.56-.03,9.84,0h4.6c.49-.01.98,0,1.47,0h2.71c.4-.02.81,0,1.21,0h2.27s13.12,0,13.12,0h0c.21,0,.45,0,.69-.01.5-.01,1.04-.03,1.52-.02.24,0,.46.02.65.04.36,1.16.5,3.02.7,4.28.07.43.1.91.24,1.3.04.1.08.19.14.27.16.25.42.43.82.49.45-.13.72-.37.94-.79.04-1.01-.48-3.72-.65-4.79-.4-2.5-.29-4.37-.29-6.9,0-.9.36-2.73-.84-2.98-.36-.07-3.26-.06-3.68,0-.55.08-.82.36-.91.9h-3.07c-.1-1.4-2.81-.93-3.9-.93H20.32c-.71,0-2.01-.21-2.5.45-.49.67-.17,6.24-.26,7.47-.1,1.5-1.15,6.16-.98,6.97ZM19.52,14.41c.73-.06,1.46-.03,2.19,0v5.35h-2.19c.07-1.72,0-3.61,0-5.35Z"/>
</svg>