<?xml version="1.0" encoding="UTF-8"?>
<svg id="Capa_1" data-name="Capa 1" xmlns="http://www.w3.org/2000/svg" viewBox="0 0 85.04 85.04">
  <defs>
    <style>
      .cls-1 {
        fill: #fff;
      }

      .cls-2 {
        fill: #6baf58;
      }

      .cls-3 {
        fill: #c8e2bf;
      }
    </style>
  </defs>
  <path class="cls-3" d="M5.59,20.36C16.93,5.47,75.19-6.29,81.07,11.47c5.25,15.84-18.32,81.29-38.4,69.65C26.49,71.73-5.76,35.24,5.59,20.36Z"/>
  <path d="M21.95,25.91c-1.88-.78-2.82-2.18-3.85-3.87-.72-1.18-1.53-2.31-1.68-3.73-.38-3.71,2.32-6.9,6-7.23,3.52-.35,5.1,1.9,6.59,4.46,1.31,2.25,1.85,2.75,1.55,5.46,5.7.87,8.97.6,14.64-1.33,1.84-.62,3.34-1.26,5.1.13,1.56,1.24,1.91,3.63.65,5.2-1.71,2.12-9.09,3.53-11.58,3.8,1.07,1.05,3.71,3.91,5.44,3.11.65-.3,1.27-.74,1.88-1.11,3.54-2.12,7.02-4.36,10.56-6.47,2.43-1.45,4.89-2.86,7.27-4.37.52-1.1,1.21-3.79,1.97-4.46,1.25-1.09,3.17-.4,3.53,1.15.17.72.68,5.26.61,5.94-.1,1.06-.96,1.49-1.7,2.1,1.13,1.9-1.07,3.03-2.32,4.05l-3.96,3.21c-3.6,2.92-7.36,6.09-10.86,9.14-4.4,4.11-4.24,8.38-4.55,13.92l-.51,9.56c-.07,1.14.13,4.24-.76,4.75.02,4.65-.6,4.67-5,4.65-1.3,0-4.25.37-5.18-.68-1.67-1.9,1.74-3.53,2.97-4.54-.4-1.01-.69-5.35-.81-6.63l-1.17-12c-.32-3.19.28-4.48-3.06-5.76-1.09,3.59-3.4,3.37-6.31,2.64l-3.42-.88c-1.53-.38-3.15-.65-4.63-1.17-2.26-.79-3.64-3.05-3.27-5.45.61-3.92,3.61-10.58,5.83-13.64Z"/>
  <path class="cls-2" d="M22.42,12.85c-3.01.39-5.18,3.46-3.95,6.29.3.69.75,1.31,1.15,1.95,1.35,2.19,2.33,3.66,5.21,3.48,2.46-.42,4.49-2.67,4.06-5.25-.17-1.02-1.9-4.01-2.57-4.87-.93-1.18-2.42-1.7-3.89-1.6Z"/>
  <path class="cls-2" d="M67.83,16.75c-.4.25-1.41,3.29-1.79,4,.49.67,1,1.33,1.53,1.96.15.19.29.37.43.57.32-.26.66-.51.95-.81-.07-1.04-.18-5.55-1.12-5.72Z"/>
  <path class="cls-1" d="M47.74,20.75h-.06c-.66.12-1.3.39-1.93.6-5.76,1.96-9.59,2.33-15.74,1.36-1.35,2.52-3.35,3.68-6.13,3.62-2.68,3.38-4.17,7.28-5.41,11.37-.27.9-.76,2.02-.64,2.97.38,2.99,3.99,3.09,6.28,3.67,1.34.34,5.05,1.58,6.26,1.43,2.11-.27,2.78-3.94-.93-4.05l-.06-.03c-.46-.23-.98-.33-1.48-.45l-2.92-.7c-.89-.21-2.61-.27-2.36-1.57.08-.39.92-3.2,1.09-3.5.69-1.2,1.9.38,2.43.9.93.93,3.12,3.39,4.31,3.6,1.26.23,1.99.72,2.75,1.75,2.63-2.9,5.22-6.3,6.54-10.05-.55-.58-3.13-2.91-3.12-3.55.02-1.09,1.29-.95,2.04-.99,2.99-.16,6.04-1.04,8.82-2.08,1.12-.42,2.36-.75,2.49-2.15.11-1.23-.99-2.35-2.24-2.15Z"/>
  <path class="cls-1" d="M64.67,21.91l-16.8,10.27c-1.19.74-2.19,1.41-3.59,1.69-.24,2.7-2.63,5.31-3.32,7.45l.02.07c.18.75.63,1.44.89,2.17.3.84,1.33,5.08.82,5.89-.24.38-.86.49-1.21.21-.57-.44-.44-1.85-.52-2.49-.2-1.47-.63-2.93-1.21-4.3-.35.29-1.69,1.84-1.99,2.23.61,1.77.64,3.57.83,5.41l.62,6c.11,1.12.18,2.25.33,3.36.17,2.57.5,5.15.73,7.71,1.56,0,3.13.02,4.7,0-.01-1.01.06-2.02.1-3.02l.54-11.06c.43-9.35,1.84-10.98,8.7-16.79l9.6-7.99c1.16-.97,2.63-2.04,3.69-3.09-.33-.51-2.66-3.66-2.9-3.76Z"/>
  <path class="cls-2" d="M41.2,32.73c-1.11,2.76-2.7,5.38-4.56,7.69-.68.84-1.49,1.59-2.12,2.46.54.22,1.06.48,1.58.73l.46.19c3.28-3.64,4.4-5.93,6.13-10.27-.52-.23-1-.51-1.49-.81Z"/>
  <path class="cls-1" d="M24.83,37.62c-.1.33-.2.66-.32.98.54.16,1.08.31,1.63.44l.18.03c-.02-.15-1.25-1.25-1.49-1.46Z"/>
  <path class="cls-2" d="M40.96,69.36c-1.25.99-2.53,1.93-3.81,2.89h5.13c2.39.03,2.01-.53,2-2.89-1.11,0-2.21-.01-3.32,0Z"/>
</svg>