<?xml version="1.0" encoding="UTF-8"?>
<svg id="Capa_1" xmlns="http://www.w3.org/2000/svg" version="1.1" viewBox="0 0 85 85">
  <!-- Generator: Adobe Illustrator 29.0.0, SVG Export Plug-In . SVG Version: 2.1.0 Build 186)  -->
  <defs>
    <style>
      .st0 {
        fill: #fff;
      }
    </style>
  </defs>
  <path class="st0" d="M70,16.6c-.4-1.6-2.3-2.2-3.5-1.2-.8.7-1.5,3.4-2,4.5-2.4,1.5-4.8,2.9-7.3,4.4-3.5,2.1-7,4.3-10.6,6.5-.6.4-1.2.8-1.9,1.1-1.7.8-4.4-2.1-5.4-3.1,2.5-.3,9.9-1.7,11.6-3.8,1.3-1.6.9-4-.7-5.2-1.8-1.4-3.3-.8-5.1-.1-5.7,1.9-8.9,2.2-14.6,1.3.3-2.7-.2-3.2-1.5-5.5-1.5-2.6-3.1-4.8-6.6-4.5-3.7.3-6.4,3.5-6,7.2.2,1.4,1,2.5,1.7,3.7,1,1.7,2,3.1,3.8,3.8-2.2,3.1-5.2,9.7-5.8,13.6-.4,2.4,1,4.7,3.3,5.5,1.5.5,3.1.8,4.6,1.2l3.4.9c2.9.7,5.2,1,6.3-2.6,3.3,1.3,2.7,2.6,3.1,5.8l1.2,12c.1,1.3.4,5.6.8,6.6-1.2,1-4.6,2.6-3,4.5.9,1.1,3.9.7,5.2.7,4.4,0,5,0,5-4.6.9-.5.7-3.6.8-4.8l.5-9.6c.3-5.5.2-9.8,4.6-13.9,3.5-3.1,7.3-6.2,10.9-9.1l4-3.2c1.2-1,3.5-2.1,2.3-4,.7-.6,1.6-1,1.7-2.1,0-.7-.4-5.2-.6-5.9ZM19.6,21.1c-.4-.6-.8-1.3-1.2-2-1.2-2.8.9-5.9,4-6.3h0c1.5,0,3,.4,3.9,1.6.7.9,2.4,3.8,2.6,4.9.4,2.6-1.6,4.8-4.1,5.2-2.9.2-3.9-1.3-5.2-3.5ZM33.2,41.7c-.8-1-1.5-1.5-2.8-1.8-1.2-.2-3.4-2.7-4.3-3.6-.5-.5-1.7-2.1-2.4-.9-.2.3-1,3.1-1.1,3.5-.2,1.3,1.5,1.4,2.4,1.6l2.9.7c.5.1,1,.2,1.5.5h0c3.7.1,3,3.8.9,4.1-1.2.1-4.9-1.1-6.3-1.4-2.3-.6-5.9-.7-6.3-3.7-.1-1,.4-2.1.6-3,1.2-4.1,2.7-8,5.4-11.4,2.8,0,4.8-1.1,6.1-3.6,6.1,1,10,.6,15.7-1.4.6-.2,1.3-.5,1.9-.6h0c1.2-.2,2.4.9,2.2,2.2-.1,1.4-1.4,1.7-2.5,2.1-2.8,1-5.8,1.9-8.8,2.1-.8,0-2,0-2,1,0,.6,2.6,3,3.1,3.5-1.3,3.8-3.9,7.2-6.5,10.1ZM26.3,39.1h-.2c-.5-.2-1.1-.3-1.6-.5.1-.3.2-.6.3-1h0c.2.2,1.5,1.3,1.5,1.5ZM36.6,43.8l-.5-.2c-.5-.2-1-.5-1.6-.7.6-.9,1.4-1.6,2.1-2.5,1.9-2.3,3.5-4.9,4.6-7.7h0c.5.3,1,.6,1.5.8-1.7,4.3-2.8,6.6-6.1,10.3ZM42.3,72.2h-5.1c1.3-1,2.6-1.9,3.8-2.9,1.1,0,2.2,0,3.3,0,0,2.4.4,2.9-2,2.9ZM63.9,28.7l-9.6,8c-6.9,5.8-8.3,7.4-8.7,16.8l-.5,11.1c0,1-.1,2,0,3-1.6,0-3.1,0-4.7,0-.2-2.6-.6-5.1-.7-7.7-.1-1.1-.2-2.2-.3-3.4l-.6-6c-.2-1.8-.2-3.6-.8-5.4.3-.4,1.6-1.9,2-2.2.6,1.4,1,2.8,1.2,4.3,0,.6,0,2,.5,2.5.4.3,1,.2,1.2-.2.5-.8-.5-5-.8-5.9-.3-.7-.7-1.4-.9-2.2h0c.7-2.2,3.1-4.8,3.3-7.5,1.4-.3,2.4-1,3.6-1.7l16.8-10.3h0c.2,0,2.6,3.2,2.9,3.7-1.1,1-2.5,2.1-3.7,3.1ZM68,23.3c-.1-.2-.3-.4-.4-.6-.5-.6-1-1.3-1.5-2,.4-.7,1.4-3.8,1.8-4,.9.2,1,4.7,1.1,5.7-.3.3-.6.6-1,.8Z"/>
</svg>