<?xml version="1.0" encoding="UTF-8"?>
<svg id="Capa_1" xmlns="http://www.w3.org/2000/svg" xmlns:xlink="http://www.w3.org/1999/xlink" version="1.1" viewBox="0 0 296.4 294.7">
  <!-- Generator: Adobe Illustrator 29.0.0, SVG Export Plug-In . SVG Version: 2.1.0 Build 186)  -->
  <defs>
    <style>
      .st0 {
        fill: none;
      }

      .st1 {
        fill: #0e3a02;
      }

      .st2 {
        fill: #d30000;
      }

      .st3 {
        fill: #fff;
        filter: url(#drop-shadow-1);
      }

      .st4 {
        fill: #154c08;
      }

      .st5 {
        clip-path: url(#clippath);
      }

      .st6 {
        fill: #144d08;
      }
    </style>
    <filter id="drop-shadow-1" x="-8.8" y="-8.2" width="328" height="325" filterUnits="userSpaceOnUse">
      <feOffset dx="7" dy="7"/>
      <feGaussianBlur result="blur" stdDeviation="5"/>
      <feFlood flood-color="#000" flood-opacity=".8"/>
      <feComposite in2="blur" operator="in"/>
      <feComposite in="SourceGraphic"/>
    </filter>
    <clipPath id="clippath">
      <path class="st0" d="M148.2,76.2c-44.1,0-86.6,3.8-126.5,10.9.8,17.5,3.5,39.9,11.2,62.9,23.8,71.5,97.2,111.9,115.9,121.3,20-9.3,89.9-46.4,114.8-121.3,7.7-23,10.4-45.5,11.2-62.9-40-7.1-82.5-10.9-126.5-10.9Z"/>
    </clipPath>
  </defs>
  <path class="st3" d="M144.6,293c-1-.5-25.8-11.3-54.4-33.4-38.2-29.4-65-65-77.6-102.8C-5.5,102.7,1.1,52.7,1.4,50.6l1.2-9,9.1.3c0,0,.6,0,1.4,0,8.7,0,52.7-1.5,67.8-31.3l5.5-10.8,9.6,7.4c2.6-.4,24.5,16.5,52.3,17.1,29.6.6,52-17,52.2-17.1L210,0l5.5,10.7c15.1,29.7,59.1,31.3,67.8,31.3s1.3,0,1.4,0l9-.3,1.3,8.9c.3,2.1,6.9,52.1-11.1,106.2-30.6,91.7-121.2,131.9-131.4,136.2l-3.9,1.7-3.9-1.7Z"/>
  <path class="st6" d="M148.5,289.2l-2-.9c-1-.4-25.2-11.1-53.3-32.8-26.1-20.1-60.4-53.8-75.9-100.4C-.4,102.2,6.1,53.4,6.4,51.3l.6-4.5,4.5.2c.5,0,55.8,1.6,73.8-34l2.7-5.4,4.8,3.7c.2.2,23.8,18,55.3,18.2,31.5-.1,55.1-18,55.3-18.2l4.8-3.7,2.7,5.4c18.1,35.6,73.3,34,73.8,34l4.5-.2.6,4.5c.3,2.1,6.7,50.9-10.9,103.9-29.9,89.6-118.6,129-128.6,133.2l-2,.8ZM15.8,57c-1.1,12.9-3,53.1,11,95.1,14.7,44.1,47.4,76.2,72.3,95.5,22.7,17.6,43.3,27.8,49.5,30.8,16-7.1,93.9-45.1,121-126.3,14-42,12.1-82.2,11-95.1-5.9-.2-16.6-.9-28.5-3.9-21.6-5.4-37.7-15.9-47.1-30.6-9,5.7-30.1,16.9-56.7,17-26.7-.1-47.7-11.3-56.7-17-9.4,14.7-25.5,25.2-47.1,30.6-11.9,3-22.7,3.7-28.5,3.9Z"/>
  <g class="st5">
    <g>
      <rect class="st2" x="243.2" y="72.4" width="38.8" height="216.8"/>
      <rect class="st1" x="206.9" y="72.4" width="28.8" height="216.8"/>
      <rect class="st2" x="170.6" y="72.4" width="28.8" height="216.8"/>
      <rect class="st4" x="134.4" y="72.4" width="28.8" height="216.8"/>
      <rect class="st2" x="98.1" y="72.4" width="28.8" height="216.8"/>
      <rect class="st4" x="61.8" y="72.4" width="28.8" height="216.8"/>
      <rect class="st2" x="14.5" y="72.4" width="39.8" height="216.8"/>
    </g>
  </g>
  <g>
    <path d="M54.5,70.9c-1.8.2-3.3-.1-4.4-1-1.2-.9-1.9-2.3-2.1-4.2l-.9-7.4,2.5-.3.9,7.4c.2,1.4.6,2.3,1.2,2.8.7.5,1.5.7,2.6.6s1.9-.5,2.4-1.2c.5-.7.7-1.7.5-3.1l-.9-7.4,2.4-.3.9,7.4c.2,1.9,0,3.5-1,4.6-.9,1.1-2.2,1.8-4.1,2.1Z"/>
    <path d="M63.6,69.6l-1.4-13.2,2-.2,9.4,9.3h-1c0,.1-1.1-10.1-1.1-10.1l2.4-.3,1.4,13.2-2,.2-9.3-9.3h1c0-.1,1.1,10.1,1.1,10.1l-2.4.3Z"/>
    <path d="M78.9,68.1l-1.2-13.2,2.5-.2,1.2,13.2-2.5.2Z"/>
    <path d="M91.1,67.2c-1,0-2,0-2.9-.3-.9-.3-1.7-.7-2.4-1.3-.7-.6-1.2-1.3-1.7-2.1-.4-.8-.7-1.7-.7-2.7,0-1,0-1.9.3-2.8s.7-1.6,1.3-2.3,1.3-1.2,2.2-1.6,1.8-.6,2.8-.7c1,0,2,0,2.9.3.9.3,1.7.7,2.4,1.3.7.6,1.2,1.3,1.7,2.1.4.8.7,1.7.7,2.7s0,1.9-.3,2.8c-.3.9-.7,1.6-1.3,2.3-.6.7-1.3,1.2-2.2,1.6-.8.4-1.8.6-2.8.7ZM90.9,65.1c.7,0,1.3-.2,1.8-.5.5-.3,1-.6,1.4-1.1.4-.4.7-1,.9-1.6.2-.6.3-1.2.2-1.9,0-.7-.2-1.3-.5-1.9-.3-.6-.6-1-1.1-1.4-.5-.4-1-.7-1.6-.9s-1.2-.3-1.9-.2-1.3.2-1.8.5c-.6.3-1,.6-1.4,1.1s-.7,1-.9,1.6c-.2.6-.3,1.2-.2,1.9,0,.7.2,1.3.5,1.8.3.6.6,1,1.1,1.4.4.4,1,.7,1.6.9.6.2,1.2.3,1.9.2ZM88.4,52.8l2.4-2.8,2.8-.2-3.1,2.8-2,.2Z"/>
    <path d="M100.7,66.4l-.7-13.3h2c0-.1,8.9,9.7,8.9,9.7h-1c0,0-.6-10.2-.6-10.2h2.4c0-.1.7,13.1.7,13.1h-2c0,.1-8.9-9.7-8.9-9.7h1c0,0,.6,10.2.6,10.2h-2.4Z"/>
    <path d="M124.5,65.3l-.2-5.3.6,1.5-6.1-9.4h2.6c0,0,4.9,7.5,4.9,7.5h-1.5s4.4-7.8,4.4-7.8h2.4c0,0-5.5,9.6-5.5,9.6l.5-1.5.2,5.3h-2.5Z"/>
    <path d="M139,64.9v-13.3c0,0,5.4,0,5.4,0,1.2,0,2.2.2,3,.5s1.5.9,2,1.6.7,1.6.7,2.5c0,1-.2,1.8-.7,2.5-.5.7-1.1,1.3-1.9,1.6-.8.4-1.8.6-3,.6h-4.1s1.1-1.1,1.1-1.1v5s-2.4,0-2.4,0ZM141.4,60.2l-1.1-1.2h4c1.1,0,1.9-.3,2.5-.7.5-.5.8-1.1.8-2,0-.8-.3-1.5-.8-1.9-.6-.5-1.4-.7-2.5-.7h-4s1.1-1.2,1.1-1.2v7.7Z"/>
    <path d="M152.5,64.9l.2-13.3h5.5c1.2,0,2.2.3,3,.7.8.4,1.5.9,1.9,1.6.4.7.7,1.6.7,2.6,0,1-.2,1.8-.7,2.5-.5.7-1.1,1.2-2,1.6-.8.4-1.9.5-3,.5h-4.1c0,0,1.1-1.1,1.1-1.1v5c0,0-2.5,0-2.5,0ZM155.1,60.2l-1.1-1.2h4c1.1,0,1.9-.2,2.5-.6.6-.5.8-1.1.9-1.9,0-.8-.3-1.5-.8-2s-1.4-.7-2.5-.7h-4s1.1-1.3,1.1-1.3v7.7ZM161.2,65l-3.3-4.9h2.6s3.3,4.9,3.3,4.9h-2.7Z"/>
    <path d="M172.6,65.5c-1,0-2-.2-2.8-.6-.9-.4-1.6-.9-2.2-1.5-.6-.6-1.1-1.4-1.4-2.2s-.5-1.7-.4-2.7c0-1,.2-1.9.6-2.7.4-.8.9-1.5,1.6-2.1.7-.6,1.4-1,2.3-1.4.9-.3,1.8-.5,2.9-.4,1,0,2,.2,2.8.6.9.4,1.6.9,2.2,1.5s1.1,1.4,1.4,2.2c.3.8.5,1.8.4,2.8,0,1-.2,1.9-.6,2.7-.4.8-.9,1.5-1.6,2.1-.7.6-1.4,1.1-2.3,1.4-.9.3-1.8.4-2.9.4ZM172.6,63.3c.7,0,1.3,0,1.9-.3.6-.2,1.1-.5,1.5-.9.4-.4.8-.9,1-1.5.3-.6.4-1.2.4-1.9,0-.7,0-1.3-.3-1.9-.2-.6-.5-1.1-.9-1.5-.4-.4-.9-.8-1.5-1-.6-.2-1.2-.4-1.8-.4-.7,0-1.3,0-1.9.3s-1.1.5-1.5.9c-.4.4-.8.9-1,1.5-.3.6-.4,1.2-.4,1.9,0,.7,0,1.3.3,1.9.2.6.5,1.1.9,1.5.4.4.9.8,1.5,1,.6.2,1.2.4,1.9.4Z"/>
    <path d="M188.5,66.2c-1,0-2-.3-2.8-.7-.8-.4-1.6-.9-2.2-1.5-.6-.7-1.1-1.4-1.4-2.2s-.4-1.8-.4-2.8c0-1,.3-1.9.7-2.7.4-.8.9-1.5,1.6-2.1.7-.6,1.5-1,2.4-1.3.9-.3,1.9-.4,2.9-.4,1.1,0,2.1.3,3,.7.9.4,1.6,1,2.2,1.7l-1.6,1.4c-.5-.5-1-1-1.6-1.2s-1.2-.4-2-.5c-.7,0-1.4,0-2,.2-.6.2-1.1.5-1.6.9-.5.4-.8.9-1.1,1.4-.3.6-.4,1.2-.5,1.9,0,.7,0,1.3.3,1.9.2.6.5,1.1.9,1.5.4.4.9.8,1.5,1,.6.3,1.2.4,1.9.4.7,0,1.3,0,1.9-.2.6-.2,1.2-.5,1.8-1l1.3,1.9c-.7.5-1.5.9-2.5,1.1-.9.2-1.9.3-2.8.3ZM191.4,64.3l.3-5h2.3c0,.1-.3,5.4-.3,5.4l-2.3-.4Z"/>
    <path d="M196.9,66.4l.9-13.3,5.5.4c1.2,0,2.2.3,3,.8.8.4,1.4,1,1.8,1.8.4.7.6,1.6.5,2.6,0,1-.4,1.8-.9,2.5-.5.7-1.2,1.2-2.1,1.5-.9.3-1.9.4-3.1.4l-4.1-.3,1.2-1-.4,5-2.5-.2ZM199.7,61.9l-1-1.3,4,.3c1.1,0,1.9,0,2.5-.5.6-.4.9-1.1,1-1.9s-.2-1.5-.7-2c-.5-.5-1.3-.8-2.4-.9l-4-.3,1.2-1.1-.5,7.7ZM205.5,67l-3-5.1,2.6.2,3,5.1-2.7-.2Z"/>
    <path d="M213.3,65.6l7.5.7-.2,2.1-9.9-.9,1.2-13.2,9.7.9-.2,2.1-7.2-.6-.8,9.1ZM213.6,59.9l6.6.6-.2,2-6.6-.6.2-2Z"/>
    <path d="M227.4,69.2c-1-.1-2-.4-2.9-.8-.9-.4-1.6-.9-2.1-1.4l1.1-1.8c.5.5,1.1.9,1.9,1.2s1.5.6,2.4.7c.7,0,1.3,0,1.7,0s.8-.3,1-.5c.2-.2.4-.5.4-.8,0-.4,0-.7-.3-1-.3-.3-.6-.5-1.1-.7-.4-.2-.9-.4-1.5-.6-.5-.2-1.1-.4-1.6-.6-.5-.2-1-.5-1.5-.8-.4-.3-.8-.7-1-1.2s-.3-1.1-.2-1.8c0-.7.3-1.4.8-1.9s1.1-1,1.9-1.3c.8-.3,1.8-.3,3.1-.2.8,0,1.6.3,2.3.6.8.3,1.4.6,1.9,1.1l-1,1.8c-.6-.4-1.1-.7-1.8-1-.6-.2-1.2-.4-1.8-.4-.7,0-1.2,0-1.7,0-.4.1-.8.3-1,.6-.2.3-.4.5-.4.9,0,.4,0,.7.3,1,.3.3.6.5,1.1.7s.9.4,1.5.6c.6.2,1.1.4,1.6.6s1,.5,1.5.8c.4.3.8.7,1,1.2s.3,1.1.2,1.8c0,.7-.3,1.3-.8,1.9-.4.6-1.1,1-1.9,1.2-.8.3-1.9.3-3.1.2Z"/>
    <path d="M241.3,70.8c-1-.1-1.9-.4-2.8-.9-.8-.4-1.5-1-2.1-1.7-.6-.7-1-1.5-1.2-2.3-.2-.9-.3-1.8-.2-2.8.1-1,.4-1.9.9-2.6.5-.8,1-1.4,1.8-2,.7-.5,1.5-.9,2.4-1.1.9-.2,1.9-.3,2.9-.2,1,.1,1.9.4,2.8.9.8.4,1.5,1,2.1,1.7s1,1.5,1.2,2.3.3,1.8.2,2.8c-.1,1-.4,1.9-.9,2.6-.5.8-1,1.4-1.8,2-.7.5-1.5.9-2.4,1.1-.9.2-1.9.3-2.9.1ZM241.5,68.7c.7,0,1.3,0,1.9-.1.6-.2,1.1-.4,1.6-.8.5-.4.9-.8,1.2-1.3.3-.5.5-1.1.6-1.8s0-1.3-.1-1.9c-.2-.6-.4-1.1-.8-1.6-.4-.5-.8-.8-1.4-1.1-.5-.3-1.1-.5-1.8-.6-.7,0-1.3,0-1.9.1-.6.2-1.1.4-1.6.8-.5.4-.9.8-1.2,1.3s-.5,1.1-.6,1.8c0,.7,0,1.3.1,1.9s.4,1.1.8,1.6c.4.5.8.9,1.4,1.2.5.3,1.1.5,1.8.6Z"/>
  </g>
  <path class="st6" d="M148.7,273l-.6-.3c-21.4-10.6-92.9-50.9-116.7-122.1-6.5-19.5-10.3-40.8-11.2-63.3v-1.3c0,0,1.2-.2,1.2-.2,40.9-7.2,83.6-10.9,126.8-10.9s85.9,3.7,126.8,10.9l1.3.2v1.3c-1,22.6-4.8,43.9-11.3,63.3-25.1,75.2-94.8,112.5-115.6,122.1l-.7.3ZM23.2,88.4c1,21.8,4.8,42.4,11,61.2,23.2,69.5,92.6,109.1,114.5,120.1,21.3-10,89-46.8,113.4-120.1s10-39.4,11-61.2c-40.3-7.1-82.4-10.6-125-10.6s-84.6,3.6-125,10.6Z"/>
</svg>