<?xml version="1.0" encoding="UTF-8"?>
<svg id="Capa_1" xmlns="http://www.w3.org/2000/svg" version="1.1" viewBox="0 0 85 85">
  <!-- Generator: Adobe Illustrator 29.0.0, SVG Export Plug-In . SVG Version: 2.1.0 Build 186)  -->
  <defs>
    <style>
      .st0 {
        fill: #fff;
      }
    </style>
  </defs>
  <path class="st0" d="M23,7.9h-.8s0,0,0,0c-3.2,3.9-5.7,8.3-7.2,13.1-.3,1-1,3.3-1.1,4.2,0,.8.6,1.1,1.3.8l.2-.2c1.2-6.2,3.9-12.1,8-16.8.2-.4,0-.7-.3-1.1Z"/>
  <path class="st0" d="M23.2,15.8c-.2.2-1.1,2.1-1.3,2.5-.5,1.2-1,2.5-1.4,3.8-.2.9-1.1,2.8.5,2.6.1,0,.3,0,.4-.2.3-.4.9-3.1,1.2-3.9.3-.8,1.8-3.8,1.8-4.2,0-.6-.9-.8-1.2-.5h0Z"/>
  <path class="st0" d="M54.6,5.5c-5-.5-10.8,1.5-15,4.2-6.7,4.5-11,11.9-11.3,20h0c-.1,3.5.5,6.9,1.6,9.9-.7-.8-1.5-1.3-2.3-1.8-.6-3-.2-8.8-3.8-10-2-.6-4,.3-4.3,2.5.3,5.2-.2,10.6,0,15.7h0c.4,7.5,6.4,12.4,9.5,18.5.6,1.2.7,2.3.5,3.6,0,0,0,0,0,.1l-.8,3.8c0,.4.2.8.5.9.4,0,.8-.1.9-.5l1-4h-.1c.2-1.7,0-3-.8-4.5-3.3-6.4-9.1-10.9-9.3-18.7-.1-3.3,0-6.9,0-10.2,0-.9,0-4.6.2-5.2.3-.8,1.7-.8,2.4-.4,2.2,1,2,6.4,2.4,8.5-1.4.9-1.6,1.8-1.8,3.3-.2,2.4.4,5.2,1.3,7.4.2.6,1.6,3.2,2,3.5.6.5,1.5.2,1.3-.7-1.6-2.9-3.2-5.7-3.2-9.1s0-2.5.7-2.9c.5-.3,1.2.3,1.7.6,1.6,1.3,1.5,3.3,2.4,5,1.8,3.4,4.8,4,7.3,6.6,3.7,3.9,4.1,8.2,3.8,12.8l-.6,6.4c0,.3,0,.6,0,.8,0,1-.1,2-.2,3,0,.3,0,.7,0,1l.7.2c.4.1.9-.2.9-.6,0-.4,0-.7.1-1.1l.4-8.2c.4-5.4.6-9.6-2.6-13.9,3.5,2.1,7.6,3.4,11.9,3.6,1.3,0,2.6,0,3.9,0,12.1-1.2,22-11.5,22.5-23.7.6-13.9-10.2-25.9-24.1-26.5ZM68.3,12.4c.4,1.3.5,2.7.6,4.1.5,8.1-1.8,15.1-6.7,21.5l-.4.5c-3.2-1.6-5.9-4.1-8.2-6.9,4.5-5.6,6.8-13.3,6-20.4h0c0-.5-.6-3.3-.6-3.3,3.2.8,6.7,2.4,9.3,4.6ZM37.6,48c-1.1-1-2.2-2.1-3-3.4.2-.8,1.1-3.1,1.8-3.6.3,2.7,1.2,5.3,2.1,7.8-.4-.3-.7-.6-1-.9ZM34.6,40.8c-.4.7-.8,1.4-1.2,2.1-1.5-2.8-2.4-4.7-3-7.8-.4-1.9-.2-2,.7-3.7,3.6-6.7,11.2-10.2,18.6-9.8,2.4.2,4.6.6,6.8,1.3-1.2,3.4-2.6,5.1-4.4,7.9-5.6,0-10.8,2.6-14.7,6.4-1,1-2.1,2.2-2.9,3.4ZM54.5,7.1c.9,0,1.8.1,2.7.3.4,1.7.6,3.4.8,5.1-5-1.3-10.1-1.7-15.2-1-1.3.2-2.6.4-3.9.8h0c4.5-3.6,9.9-5.2,15.6-5.1ZM34.5,16.8c1.3-1.8,1.2-2,3.4-2.6,3.7-1.1,7.8-1.7,11.7-1.4,3,.2,5.7.7,8.5,1.4,0,1.7-.4,5.9-1.2,7.3-7-2.8-16.4-1.5-22.3,3.2-1.9,1.6-3.4,3.2-4.7,5.3.2-4.8,1.7-9.4,4.6-13.2ZM31.8,44c-.2-.5-.4-.9-.5-1.4.8,1.5,1.8,2.9,2.8,4.2-.9-.7-1.8-1.6-2.3-2.8ZM60.1,53.2c-6.2,1.7-12.8,1.1-18.4-2.2-1.8-1.1-3.5-9.6-3.9-11.7h0c.9-.7,1.8-2,2.8-2.5,4.2,8.1,13.9,14.7,23.2,15-1.2.6-2.5,1.1-3.8,1.5ZM68.2,49c-1.6,1.3-1.8,1.1-3.8,1.1-9.6,0-17.8-6.3-22.5-14.3h0c3.2-2.2,6.4-3.1,10.2-3.3.7.4,1.3,1.3,1.9,2,5,5.5,12.8,9,20.3,7.2-1.8,3-3.3,5.1-6.1,7.3ZM77,33.1c-.2,2-.8,4.9-1.8,6.7-1.6.5-3.5.8-5.2.7-2.1,0-4.8-.5-6.8-1.3,5.5-6.4,7.9-15.3,7.2-23.6,0-.4-.1-.8-.1-1.2h0s0,0,0,0c.5.7,1.1,1.3,1.6,1.9,3.7,4.6,5.5,11,4.9,16.8Z"/>
</svg>