<?xml version="1.0" encoding="UTF-8"?>
<svg id="Capa_1" data-name="Capa 1" xmlns="http://www.w3.org/2000/svg" viewBox="0 0 85.04 85.04">
  <defs>
    <style>
      .cls-1 {
        fill: #fff;
      }

      .cls-2 {
        fill: #6baf58;
      }

      .cls-3 {
        fill: #c8e2bf;
      }

      .cls-4 {
        fill: #154c08;
      }
    </style>
  </defs>
  <path class="cls-3" d="M4.05,29.82C7.58,11.44,59.14-5.15,72.33,8.13c11.76,11.84,16.43,74.07-6.74,72.59C46.91,79.54.53,48.2,4.05,29.82Z"/>
  <path class="cls-4" d="M28.31,29.64c.32-8.07,4.63-15.52,11.33-19.98,4.11-2.74,9.98-4.65,14.96-4.19,13.97.56,24.73,12.58,24.13,26.46-.53,12.24-10.34,22.51-22.48,23.74-1.31.13-2.61.13-3.92.09-13.76-.51-24.56-12.33-24.01-26.12Z"/>
  <g>
    <path class="cls-4" d="M22.18,7.89c-3.2,3.87-5.74,8.34-7.24,13.15-.32,1.01-1.05,3.29-1.11,4.24-.04.78.63,1.13,1.29.76l.2-.23c1.25-6.16,3.87-12.06,7.99-16.82.25-.44-.04-.72-.27-1.08l-.85-.02Z"/>
    <path class="cls-4" d="M23.16,15.77c-.2.18-1.12,2.09-1.3,2.49-.54,1.18-1.05,2.52-1.41,3.77-.24.85-1.08,2.78.51,2.57.14-.02.32-.07.4-.2.29-.43.91-3.1,1.22-3.93s1.84-3.75,1.83-4.22c-.01-.64-.86-.85-1.25-.49Z"/>
  </g>
  <path class="cls-1" d="M38.96,12.22c1.29-.32,2.58-.57,3.89-.76,5.11-.65,10.24-.31,15.21,1.03-.2-1.73-.45-3.37-.84-5.08-.89-.11-1.78-.2-2.67-.26-5.69-.16-11.1,1.48-15.6,5.07Z"/>
  <path class="cls-2" d="M59.62,11.13c.73,7.08-1.5,14.87-6.02,20.43,2.23,2.8,4.99,5.24,8.17,6.88l.39-.51c4.92-6.33,7.27-13.33,6.73-21.46-.09-1.36-.22-2.78-.58-4.1-2.53-2.17-6.09-3.76-9.26-4.56-.01.02.51,2.82.56,3.32Z"/>
  <path class="cls-2" d="M37.92,14.2c-2.17.65-2.06.83-3.41,2.63-2.84,3.81-4.41,8.42-4.57,13.17,1.29-2.12,2.74-3.72,4.65-5.3,5.89-4.74,15.25-6.05,22.29-3.21.8-1.43,1.19-5.57,1.2-7.29-2.85-.72-5.56-1.22-8.51-1.38-3.85-.31-7.96.27-11.65,1.38Z"/>
  <path class="cls-1" d="M70.41,14.32c-.02.38.08.82.11,1.2.64,8.33-1.71,17.2-7.21,23.61,1.94.87,4.63,1.31,6.76,1.32,1.64.04,3.6-.19,5.15-.73.92-1.73,1.53-4.71,1.75-6.66.64-5.88-1.15-12.23-4.89-16.84-.53-.66-1.11-1.28-1.64-1.94l-.03.03Z"/>
  <path class="cls-1" d="M31.06,31.44c-.89,1.66-1.05,1.77-.66,3.66.63,3.09,1.49,5.04,2.99,7.8.37-.72.75-1.44,1.17-2.13.73-1.26,1.83-2.43,2.87-3.44,3.93-3.8,9.1-6.52,14.68-6.42,1.82-2.82,3.19-4.5,4.38-7.9-2.25-.69-4.46-1.16-6.81-1.32-7.41-.47-15.06,3.08-18.62,9.75Z"/>
  <path class="cls-2" d="M41.88,35.83c4.72,7.93,12.96,14.33,22.54,14.28,2.03.05,2.22.17,3.78-1.1,2.74-2.22,4.28-4.29,6.09-7.28-7.48,1.81-15.28-1.7-20.3-7.22-.57-.63-1.22-1.53-1.91-1.98-3.78.23-6.99,1.11-10.18,3.29Z"/>
  <path class="cls-1" d="M37.8,39.32c.36,2.07,2.05,10.63,3.88,11.7,5.64,3.29,12.16,3.88,18.39,2.22,1.3-.38,2.57-.83,3.77-1.47-9.36-.22-19-6.8-23.25-14.95-.97.54-1.89,1.78-2.78,2.5Z"/>
  <path class="cls-2" d="M34.62,44.63c.81,1.24,1.88,2.36,2.96,3.36.33.3.65.6,1,.88-.97-2.54-1.8-5.11-2.14-7.81-.68.45-1.62,2.76-1.82,3.57Z"/>
  <path class="cls-1" d="M30.45,63.9c.74,1.45.95,2.85.76,4.48l.1.02-1.14,4.68,10.72,2.74c.08-1.76.17-3.51.2-4.01.02-.28.04-.56.07-.84l.58-6.43c.29-4.6-.12-8.93-3.84-12.85-2.45-2.59-5.55-3.27-7.31-6.64-.9-1.72-.84-3.75-2.43-5.04-.42-.34-1.15-.86-1.67-.59-.7.36-.73,2.1-.73,2.88,0,3.41,1.57,6.2,3.16,9.07.21.83-.69,1.18-1.27.65-.32-.3-1.72-2.98-1.97-3.54-.97-2.2-1.5-4.95-1.32-7.36.11-1.57.34-2.49,1.75-3.35-.47-2.06-.26-7.41-2.45-8.46-.67-.32-2.02-.32-2.35.44-.24.53-.2,4.29-.21,5.18-.03,3.28-.08,6.95.04,10.23.28,7.81,6.07,12.36,9.33,18.72Z"/>
  <path class="cls-4" d="M19.57,45.97c.42,7.49,6.37,12.38,9.54,18.52.62,1.21.71,2.26.55,3.61,0,0,.02.06.06.14l-.81,3.77c-.08.39.16.78.54.87h0c.4.1.81-.14.9-.54l.97-3.95-.1-.02c.19-1.63-.01-3.02-.76-4.48-3.26-6.37-9.05-10.92-9.33-18.72-.12-3.28-.07-6.95-.04-10.23,0-.89-.03-4.65.21-5.18.34-.76,1.68-.77,2.35-.44,2.18,1.05,1.98,6.4,2.45,8.46-1.4.86-1.63,1.78-1.75,3.35-.17,2.41.35,5.16,1.32,7.36.25.56,1.64,3.24,1.97,3.54.58.54,1.49.18,1.27-.65-1.59-2.87-3.16-5.66-3.16-9.07,0-.78.03-2.52.73-2.88.51-.26,1.25.26,1.67.59,1.59,1.28,1.54,3.31,2.43,5.04,1.75,3.36,4.85,4.05,7.31,6.64,3.72,3.92,4.13,8.25,3.84,12.85l-.58,6.43c-.02.28-.05.56-.07.84-.07,1-.11,2.01-.15,3.01-.02.33-.03.66-.05,1l.67.17c.43.11.85-.18.92-.61.06-.36.09-.73.1-1.11l.44-8.21c.45-6.45.75-11.13-4.73-16.27-2.26-2.12-5.06-2.86-6.44-5.79-.63-1.33-.65-2.74-1.51-3.97-.72-1.03-1.68-1.62-2.69-2.29-.56-3-.17-8.85-3.8-9.97-2.02-.63-3.96.32-4.31,2.47.27,5.19-.24,10.57.05,15.74Z"/>
</svg>